<?xml version="1.0" encoding="UTF-8" standalone="no"?>
<!-- Created with Inkscape (http://www.inkscape.org/) -->

<svg
   xmlns:osb="http://www.openswatchbook.org/uri/2009/osb"
   xmlns:dc="http://purl.org/dc/elements/1.1/"
   xmlns:cc="http://creativecommons.org/ns#"
   xmlns:rdf="http://www.w3.org/1999/02/22-rdf-syntax-ns#"
   xmlns:svg="http://www.w3.org/2000/svg"
   xmlns="http://www.w3.org/2000/svg"
   xmlns:xlink="http://www.w3.org/1999/xlink"
   xmlns:sodipodi="http://sodipodi.sourceforge.net/DTD/sodipodi-0.dtd"
   xmlns:inkscape="http://www.inkscape.org/namespaces/inkscape"
   width="40"
   height="2048"
   viewBox="0 0 10.583333 541.86668"
   version="1.1"
   id="svg8"
   inkscape:version="0.92.1 r"
   sodipodi:docname="archive_time_axis_r.svg">
  <defs
     id="defs2">
    <linearGradient
       id="linearGradient6094"
       osb:paint="solid">
      <stop
         style="stop-color:#9a9a9a;stop-opacity:1;"
         offset="0"
         id="stop6092" />
    </linearGradient>
    <linearGradient
       id="linearGradient4592"
       inkscape:collect="always">
      <stop
         id="stop4588"
         offset="0"
         style="stop-color:#ff000a;stop-opacity:0.43921569" />
      <stop
         id="stop4590"
         offset="1"
         style="stop-color:#060606;stop-opacity:0" />
    </linearGradient>
    <linearGradient
       inkscape:collect="always"
       id="linearGradient4553">
      <stop
         style="stop-color:#fb3b41;stop-opacity:0.43921569"
         offset="0"
         id="stop4549" />
      <stop
         style="stop-color:#000000;stop-opacity:0"
         offset="1"
         id="stop4551" />
    </linearGradient>
    <linearGradient
       inkscape:collect="always"
       xlink:href="#linearGradient4592"
       id="linearGradient4555"
       x1="5.6230264"
       y1="-107.73452"
       x2="5.4911513"
       y2="-7.1580324"
       gradientUnits="userSpaceOnUse"
       gradientTransform="matrix(1,0,0,-1,0,276.85779)" />
    <linearGradient
       inkscape:collect="always"
       xlink:href="#linearGradient4553"
       id="linearGradient4560"
       gradientUnits="userSpaceOnUse"
       gradientTransform="rotate(-180,5.3718525,108.00172)"
       x1="5.6230264"
       y1="-69.026955"
       x2="4.7561975"
       y2="27.874762" />
    <linearGradient
       inkscape:collect="always"
       xlink:href="#linearGradient4592"
       id="linearGradient4564"
       gradientUnits="userSpaceOnUse"
       gradientTransform="matrix(1,0,0,-2.619627,-0.03919753,351.11177)"
       x1="5.868011"
       y1="-45.273159"
       x2="5.4911513"
       y2="-7.1580324" />
    <linearGradient
       inkscape:collect="always"
       xlink:href="#linearGradient4553"
       id="linearGradient4584"
       gradientUnits="userSpaceOnUse"
       gradientTransform="matrix(1,0,0,-2.619627,0.15020585,19.26017)"
       x1="6.6029649"
       y1="-38.913876"
       x2="6.4710898"
       y2="5.5605345" />
    <linearGradient
       inkscape:collect="always"
       xlink:href="#linearGradient4592"
       id="linearGradient4586"
       gradientUnits="userSpaceOnUse"
       gradientTransform="matrix(1,0,0,-2.619627,0.15020585,-5.08165)"
       x1="5.6230264"
       y1="-69.026955"
       x2="5.4911513"
       y2="-44.846138" />
    <linearGradient
       inkscape:collect="always"
       xlink:href="#linearGradient4592"
       id="linearGradient4600"
       gradientUnits="userSpaceOnUse"
       gradientTransform="matrix(1,0,0,-2.619627,-0.03919753,351.11177)"
       x1="5.6230264"
       y1="-69.120476"
       x2="6.2261052"
       y2="-34.746101" />
  </defs>
  <sodipodi:namedview
     id="base"
     pagecolor="#ffffff"
     bordercolor="#666666"
     borderopacity="1.0"
     inkscape:pageopacity="0.0"
     inkscape:pageshadow="2"
     inkscape:zoom="1.08"
     inkscape:cx="-252.55911"
     inkscape:cy="1748.5012"
     inkscape:document-units="mm"
     inkscape:current-layer="layer2"
     showgrid="false"
     units="px"
     inkscape:snap-others="false"
     inkscape:snap-nodes="false"
     inkscape:snap-global="false"
     inkscape:window-width="1680"
     inkscape:window-height="1025"
     inkscape:window-x="0"
     inkscape:window-y="0"
     inkscape:window-maximized="1" />
  <metadata
     id="metadata5">
    <rdf:RDF>
      <cc:Work
         rdf:about="">
        <dc:format>image/svg+xml</dc:format>
        <dc:type
           rdf:resource="http://purl.org/dc/dcmitype/StillImage" />
        <dc:title />
      </cc:Work>
    </rdf:RDF>
  </metadata>
  <g
     inkscape:label="Layer 1"
     inkscape:groupmode="layer"
     id="layer1"
     transform="translate(0,244.86669)"
     sodipodi:insensitive="true">
    <flowRoot
       xml:space="preserve"
       id="flowRoot4485"
       style="font-style:normal;font-weight:normal;font-size:40px;line-height:25px;font-family:sans-serif;letter-spacing:0px;word-spacing:0px;opacity:1;fill:#000000;fill-opacity:1;stroke:none;stroke-width:1px;stroke-linecap:butt;stroke-linejoin:miter;stroke-opacity:1"
       transform="matrix(0.26458333,0,0,0.26458333,0,-244.86669)"><flowRegion
         id="flowRegion4487"><rect
           id="rect4489"
           width="30.693069"
           height="239.60396"
           x="9.9009905"
           y="199.48515" /></flowRegion><flowPara
         id="flowPara4491">laer</flowPara></flowRoot>  </g>
  <g
     inkscape:groupmode="layer"
     id="layer2"
     inkscape:label="Layer 2"
     style="display:inline"
     sodipodi:insensitive="true">
    <path
       sodipodi:nodetypes="cccccc"
       inkscape:connector-curvature="0"
       id="path4562"
       d="M 1.4088802,426.83225 C 0.61428018,445.0125 0.6688519,459.68708 5.7508698,478.91992 10.162943,459.54329 10.115903,444.79099 9.9196291,426.39917 10.70912,419.21377 9.4466083,395.98503 9.5405653,363.4839 H 4.0885261 c -6.0283845,12.46009 -3.5385109,59.61369 -2.6796459,63.34835 z"
       style="opacity:1;fill:url(#linearGradient4564);fill-opacity:1;stroke:none;stroke-width:0.98579705;stroke-linecap:round;stroke-miterlimit:4;stroke-dasharray:none;stroke-opacity:1" />
    <path
       style="opacity:1;fill:url(#linearGradient4600);fill-opacity:1;stroke:none;stroke-width:0.98579705;stroke-linecap:round;stroke-miterlimit:4;stroke-dasharray:none;stroke-opacity:1"
       d="M 0.38435954,527.35805 5.332655,539.83402 10.28095,527.35805 C 8.5103615,523.39288 9.0114937,492.05342 9.8979709,469.90625 11.536115,428.97993 5.9660785,510.80364 9.5405653,363.4839 H 4.0885261 c -1.9487907,55.70667 -2.969509,79.82286 -2.6721645,109.8779 0.4123639,41.68102 3.6694828,50.42191 -1.03200206,53.99625 z"
       id="path4572"
       inkscape:connector-curvature="0"
       sodipodi:nodetypes="cccsccsc" />
    <path
       style="opacity:1;fill:url(#linearGradient4555);fill-opacity:1;stroke:none;stroke-width:0.60907084;stroke-linecap:round;stroke-miterlimit:4;stroke-dasharray:none;stroke-opacity:1"
       d="m 0.66854164,385.06257 4.94829556,4.7625 4.9482958,-4.7625 C 8.7945437,383.54892 8.8057067,328.322 9.692184,319.86768 11.330329,304.24473 7.2301989,338.06255 10.804685,281.82563 H 0.94292432 c 0.25607038,20.28518 0.46027488,30.50666 0.75761938,41.97969 0.4123639,15.91104 3.6694829,59.89279 -1.03200206,61.25725 z"
       id="rect4547"
       inkscape:connector-curvature="0"
       sodipodi:nodetypes="cccsccsc" />
    <path
       sodipodi:nodetypes="cccsccsc"
       inkscape:connector-curvature="0"
       id="path4558"
       d="m 10.320148,284.03084 -4.9482955,4.76251 -4.94829543,-4.76251 C 8.5637448,282.27221 2.9179367,271.3875 2.0314594,262.93318 0.39331434,247.31023 3.7584907,217.70645 0.18400443,184.98805 H 10.045765 c 0.478884,21.75508 -0.4602745,76.53435 -0.757619,88.00738 -0.4123639,15.91105 -3.6694829,9.67096 1.032002,11.03541 z"
       style="opacity:1;fill:url(#linearGradient4560);fill-opacity:1;stroke:none;stroke-width:0.60907084;stroke-linecap:round;stroke-miterlimit:4;stroke-dasharray:none;stroke-opacity:1" />
    <path
       sodipodi:nodetypes="cccsccsc"
       inkscape:connector-curvature="0"
       id="path4582"
       d="M 0.57376285,171.16462 5.5220589,183.64059 10.470354,171.16462 C 8.6997649,167.19945 7.7309899,131.94024 8.6174669,109.79307 10.255612,68.86675 6.1554819,149.31854 9.7299688,1.9988 H 4.2779299 c -1.948791,55.70667 -4.46696345,77.79069 -0.712288,116.14951 0.8261007,8.43968 1.709606,49.44197 -2.99187905,53.01631 z"
       style="opacity:1;fill:url(#linearGradient4586);fill-opacity:1;stroke:none;stroke-width:0.98579705;stroke-linecap:round;stroke-miterlimit:4;stroke-dasharray:none;stroke-opacity:1" />
    <path
       style="display:inline;opacity:1;fill:url(#linearGradient4584);fill-opacity:1;stroke:none;stroke-width:0.98579705;stroke-linecap:round;stroke-miterlimit:4;stroke-dasharray:none;stroke-opacity:1"
       d="M 1.5982839,75.40148 C 0.80368385,93.58173 0.95973178,116.68084 7.3583873,126.68024 7.9814678,103.19067 10.305307,93.36022 10.109033,74.9684 10.898524,67.783 9.1460427,34.245293 9.2399997,1.7441727 H 3.7879608 C -2.2404242,14.204273 0.73941885,71.66682 1.5982839,75.40148 Z"
       id="path4580"
       inkscape:connector-curvature="0"
       sodipodi:nodetypes="cccccc" />
    <path
       sodipodi:nodetypes="cc"
       style="display:inline;fill:none;fill-rule:evenodd;stroke:#fafff0;stroke-width:0.26458332px;stroke-linecap:butt;stroke-linejoin:miter;stroke-opacity:1"
       d="m 0.99167296,202.51316 c 11.55941904,20.34451 -3.37193396,6.6346 8.89134304,0"
       id="path4520"
       inkscape:connector-curvature="0" />
    <path
       sodipodi:nodetypes="ccc"
       inkscape:connector-curvature="0"
       id="path4522"
       d="m 9.9110703,202.91715 c -2.494426,10.4158 -4.366377,20.8316 -4.773126,31.2474 0.0788,-14.12534 -1.057185,-25.14617 -4.118216,-31.2474"
       style="display:inline;fill:none;fill-rule:evenodd;stroke:#fafff0;stroke-width:0.60907084;stroke-linecap:round;stroke-linejoin:miter;stroke-miterlimit:4;stroke-dasharray:none;stroke-opacity:1" />
    <path
       sodipodi:nodetypes="ccccc"
       inkscape:connector-curvature="0"
       id="path4524"
       d="m 10.362102,240.78549 c -11.5511503,14.5478 1.331405,13.05393 -8.0319593,4.43665 8.4189263,5.45865 0.814223,-5.42176 -1.015535,-9.47288 2.47396,3.71745 5.257376,5.18407 8.9551733,0 -3.0221153,6.685 -6.1601543,10.69074 0.09232,5.03623 z"
       style="display:inline;opacity:1;fill:#fae1de;fill-opacity:1;stroke:#ffffff;stroke-width:0.30056745;stroke-opacity:1" />
    <path
       style="display:inline;opacity:1;fill:#fff6e6;fill-opacity:1;stroke:#ffffff;stroke-width:0.33423865;stroke-opacity:1"
       d="m 1.180615,217.66844 c 3.499418,21.59414 6.365648,17.30391 8.890372,0 -3.420305,1.38738 -3.16344,32.93365 0,10.75401 -3.859201,11.11293 -4.237016,9.9089 -8.890372,0 4.906446,22.24244 3.247517,-8.83166 0,-10.75401 z"
       id="path4526"
       inkscape:connector-curvature="0"
       sodipodi:nodetypes="ccccc" />
    <path
       inkscape:connector-curvature="0"
       id="path4513"
       d="m 1.219678,294.23568 c 11.559419,20.34425 -3.3719333,6.63448 8.891343,0"
       style="fill:none;fill-rule:evenodd;stroke:#ffedea;stroke-width:0.26458332px;stroke-linecap:butt;stroke-linejoin:miter;stroke-opacity:1"
       sodipodi:nodetypes="cc" />
    <path
       style="fill:none;fill-rule:evenodd;stroke:#ffedea;stroke-width:0.60907084;stroke-linecap:round;stroke-linejoin:miter;stroke-miterlimit:4;stroke-dasharray:none;stroke-opacity:1"
       d="m 1.2468051,294.1105 c 2.4944267,10.41564 4.3663768,20.83131 4.7731258,31.24699 -0.078803,-14.12517 1.0571855,-25.14587 4.1182171,-31.24699"
       id="path4511"
       inkscape:connector-curvature="0"
       sodipodi:nodetypes="ccc" />
    <path
       style="opacity:1;fill:#ffdcda;fill-opacity:1;stroke:#ffffff;stroke-width:0.30056745;stroke-opacity:1"
       d="m 1.5233463,331.97836 c 11.5511497,14.54769 -1.33140497,13.05383 8.031959,4.4366 -8.418926,5.45862 -0.8142226,-5.4217 1.0155347,-9.47277 -2.4739594,3.7174 -5.2573757,5.18401 -8.9551725,0 3.0221149,6.68492 6.1601542,10.69063 -0.092323,5.03617 z"
       id="rect4515"
       inkscape:connector-curvature="0"
       sodipodi:nodetypes="ccccc" />
    <path
       sodipodi:nodetypes="ccccc"
       inkscape:connector-curvature="0"
       id="path4518"
       d="m 1.4086202,308.86157 c 3.4994181,21.5939 6.3656477,17.30371 8.8903718,0 -3.4203046,1.38737 -3.1634399,32.93331 0,10.75389 -3.8592004,11.1128 -4.2370155,9.90879 -8.8903718,0 4.9064462,22.24222 3.2475167,-8.83156 0,-10.75389 z"
       style="opacity:1;fill:#ffe2d6;fill-opacity:1;stroke:#feffff;stroke-width:0.33423865;stroke-opacity:1" />
  </g>
</svg>
