<?xml version="1.0" encoding="UTF-8" standalone="no"?>
<svg
   inkscape:version="1.3.2 (091e20ef0f, 2023-11-25)"
   sodipodi:docname="fairycore.svg"
   width="256"
   height="256"
   viewBox="0 0 67.733332 67.733335"
   version="1.1"
   id="svg8"
   xmlns:inkscape="http://www.inkscape.org/namespaces/inkscape"
   xmlns:sodipodi="http://sodipodi.sourceforge.net/DTD/sodipodi-0.dtd"
   xmlns="http://www.w3.org/2000/svg"
   xmlns:svg="http://www.w3.org/2000/svg"
   xmlns:rdf="http://www.w3.org/1999/02/22-rdf-syntax-ns#"
   xmlns:cc="http://creativecommons.org/ns#"
   xmlns:dc="http://purl.org/dc/elements/1.1/">
  <sodipodi:namedview
     inkscape:current-layer="layer2"
     inkscape:window-maximized="1"
     inkscape:window-y="0"
     inkscape:window-x="1680"
     inkscape:cy="89.543751"
     inkscape:cx="121.08626"
     inkscape:zoom="4.3274935"
     showgrid="false"
     id="namedview6"
     inkscape:window-height="2136"
     inkscape:window-width="3840"
     inkscape:pageshadow="2"
     inkscape:pageopacity="0"
     guidetolerance="10"
     gridtolerance="10"
     objecttolerance="10"
     borderopacity="1"
     bordercolor="#666666"
     pagecolor="#ffffff"
     inkscape:showpageshadow="2"
     inkscape:pagecheckerboard="0"
     inkscape:deskcolor="#d1d1d1" />
  <defs
     id="defs2">
    <mask
       maskUnits="userSpaceOnUse"
       id="mask25">
      <path
         style="fill:#ffffff;fill-opacity:1;stroke:#000000;stroke-width:0.264583px;stroke-linecap:butt;stroke-linejoin:miter;stroke-opacity:1"
         d="M 53.549667,10.806347 C 41.651134,9.3803838 36.267906,10.430462 40.437168,15.621054 c 4.949563,6.162044 10.709881,-0.116159 14.169194,-2.64665 z"
         id="path26"
         sodipodi:nodetypes="cscc" />
    </mask>
    <mask
       maskUnits="userSpaceOnUse"
       id="mask28">
      <path
         style="fill:#ffffff;fill-opacity:1;stroke:#000000;stroke-width:0.264583px;stroke-linecap:butt;stroke-linejoin:miter;stroke-opacity:1"
         d="m 54.807345,10.397528 c 6.735532,-9.91165846 10.7423,-13.2175413 12.240069,-6.7305038 1.887017,8.1729148 -3.28092,6.5706898 -11.298322,8.9509078 z"
         id="path29"
         sodipodi:nodetypes="cscc" />
    </mask>
  </defs>
  <metadata
     id="metadata5">
    <rdf:RDF>
      <cc:Work
         rdf:about="">
        <dc:format>image/svg+xml</dc:format>
        <dc:type
           rdf:resource="http://purl.org/dc/dcmitype/StillImage" />
        <dc:title />
      </cc:Work>
    </rdf:RDF>
  </metadata>
  <g
     id="layer1"
     style="display:inline" />
  <g
     inkscape:label="Layer 1"
     id="layer2"
     inkscape:groupmode="layer"
     style="display:inline">
    <path
       style="fill:#00881f;fill-opacity:1;stroke:#007616;stroke-width:0.199979px;stroke-linecap:butt;stroke-linejoin:miter;stroke-opacity:1"
       d="m 31.514546,40.369115 c -1.83911,0.009 -1.95464,0.715432 -4.637699,1.575821 l 2.092722,0.198298 -2.679697,0.672815 c 0,0 1.842299,-0.275229 1.501177,0.0258 -0.218678,0.192977 -2.970921,1.491906 -3.070275,2.159857 -0.09935,0.667951 2.967653,-0.469878 2.967653,-0.469878 l -2.547461,2.180962 2.24627,-0.585002 -1.328084,0.660268 -0.329411,1.397963 c 0.746731,1.281811 1.766766,-2.476273 1.980564,2.336048 l 0.750022,1.062469 0.699492,-0.956642 c -0.431515,-2.027763 0.03473,-1.843512 0.549434,-2.313576 0.39117,1.470298 2.046238,1.557583 2.071541,1.387341 0.0253,-0.170206 -0.311884,-2.006945 -0.311884,-2.006945 0,0 1.876063,2.936446 1.727393,1.343759 -0.12501,-1.339231 -1.61185,-2.813222 -1.61185,-2.813222 0,0 2.67909,1.357717 2.919668,0.191529 0.115742,-0.561051 -2.382319,-1.64064 -2.065115,-1.498769 1.864829,0.819796 3.553119,-0.215409 3.962923,-0.667126 0.332507,-0.366514 -3.75227,-1.007725 -3.75227,-1.007725 l 2.153386,-0.370082 c -1.063591,-0.754437 -2.552864,-1.389411 -0.729668,-1.269072 z"
       id="path44"
       sodipodi:nodetypes="ccccsscccccccccscscscscccc" />
    <path
       style="fill:#00b727;fill-opacity:1;stroke:none;stroke-width:0.264583px;stroke-linecap:butt;stroke-linejoin:miter;stroke-opacity:1"
       d="m 12.294167,31.028645 c 8.0949,2.63203 15.61034,10.201144 16.212498,20.49373 l -1.213548,0.250926 C 27.281997,41.398417 17.29616,33.29884 11.344888,31.72996 Z"
       id="path67"
       sodipodi:nodetypes="ccccc" />
    <g
       id="g65"
       transform="rotate(-79.24423,29.015816,39.56921)">
      <ellipse
         style="fill:#f5ff38;fill-opacity:1;stroke:none;stroke-width:0.294481;stroke-linecap:round;stroke-dasharray:none;stroke-opacity:1"
         id="ellipse65"
         cx="39.349644"
         cy="7.7415051"
         rx="7.4593425"
         ry="4.6035252"
         transform="rotate(20.470207)" />
      <path
         style="fill:#f5ff38;fill-opacity:1;stroke:#d9e000;stroke-width:0.264583px;stroke-linecap:butt;stroke-linejoin:miter;stroke-opacity:1"
         d="m 31.938534,24.67555 -1.453409,1.182743 -0.641647,-0.503475 0.894213,-1.029413 -1.598518,0.37975 -0.553611,-0.319349 0.833271,-1.183348 -1.629424,0.550954 -0.590737,-0.780857 1.303358,-0.484025 -1.556245,0.04065 -0.167711,-0.473906 0.78998,-0.697041 -1.084403,-0.161121 -0.393977,-0.644745 1.145989,-0.219905 -1.292386,-0.47284 0.04412,-0.532336 0.843386,0.04402 -0.974602,-0.993685 0.401737,-0.401867 0.750202,0.42018 -0.752758,-1.342592 0.598328,-0.571187 1.936091,1.423678 -1.40032,-2.245249 0.825249,-0.548134 1.401204,2.252452 -0.533011,-2.685503 h 0.683479 l 1.083816,2.453055 -0.297276,-2.74042 0.671161,-0.233065 0.629393,2.435889 -0.124079,-2.581342 0.606113,0.04402 0.176083,2.865432 0.331235,-3.509863 h 0.551608 l -0.173561,3.583678 0.763235,-3.253825 0.636577,0.04355 -0.595997,3.54681 0.963218,-3.31635 h 0.534741 l -0.925401,3.599114 1.392854,-3.403308 0.492601,0.04788 -1.224928,3.766056 1.521886,-3.336905 0.437234,0.26308 -1.20582,3.188768 1.755619,-3.134162 0.441489,0.0913 -1.270201,3.177691 1.492441,-2.195462 0.553947,-0.326785 -1.609696,2.917518 1.823959,-2.153871 c 0,0 -1.794545,2.858989 -1.549774,2.653404 0.244774,-0.205586 2.186723,-2.302501 2.186723,-2.302501 l -1.617397,2.405774 2.391685,-2.040967 -1.893621,2.147465 1.426136,-1.166824 0.25717,0.481645 -1.270381,1.03492 1.64963,-0.60803 0.290827,0.24294 -1.565825,0.928856 1.7995,-0.02896 0.299786,0.324601 -1.519613,0.424339 h 1.72263 l -0.120899,0.672413 -1.378894,-0.0018 1.362242,0.484925 0.0052,0.606191 -1.237734,-0.02806 1.35386,0.544017 -0.361577,0.698486 -1.049594,-0.376052 0.805137,1.093642 -0.317357,0.482402 -1.214181,-0.798827 0.786606,1.348921 -0.81268,0.420915 -0.870331,-1.28475 0.0397,1.380781 -1.03863,0.35216 -0.307943,-1.367838 -0.378082,1.600737 -0.859313,0.149979 v -1.538947 l -0.567119,1.23592 -0.970277,0.08804 V 25.12868 l -0.854403,1.910204 -0.841,-0.244726 0.612289,-2.087346 -1.368338,2.094244 -0.997612,-0.301922 z"
         id="path65" />
    </g>
    <path
       style="fill:#00b727;fill-opacity:1;stroke:none;stroke-width:0.264583px;stroke-linecap:butt;stroke-linejoin:miter;stroke-opacity:1"
       d="m 34.115349,20.934416 c -4.836698,8.465281 -4.852445,20.237293 -4.250287,30.529879 l -1.213548,0.250926 c -0.01112,-10.374884 -0.196556,-22.743029 4.70035,-30.966558 z"
       id="path40"
       sodipodi:nodetypes="ccccc" />
    <g
       id="g63">
      <ellipse
         style="fill:#f5ff38;fill-opacity:1;stroke:none;stroke-width:0.294481;stroke-linecap:round;stroke-dasharray:none;stroke-opacity:1"
         id="path38"
         cx="39.349644"
         cy="7.7415051"
         rx="7.4593425"
         ry="4.6035252"
         transform="rotate(20.470207)" />
      <path
         style="fill:#f5ff38;fill-opacity:1;stroke:#d9e000;stroke-width:0.264583px;stroke-linecap:butt;stroke-linejoin:miter;stroke-opacity:1"
         d="m 31.938534,24.67555 -1.453409,1.182743 -0.641647,-0.503475 0.894213,-1.029413 -1.598518,0.37975 -0.553611,-0.319349 0.833271,-1.183348 -1.629424,0.550954 -0.590737,-0.780857 1.303358,-0.484025 -1.556245,0.04065 -0.167711,-0.473906 0.78998,-0.697041 -1.084403,-0.161121 -0.393977,-0.644745 1.145989,-0.219905 -1.292386,-0.47284 0.04412,-0.532336 0.843386,0.04402 -0.974602,-0.993685 0.401737,-0.401867 0.750202,0.42018 -0.752758,-1.342592 0.598328,-0.571187 1.936091,1.423678 -1.40032,-2.245249 0.825249,-0.548134 1.401204,2.252452 -0.533011,-2.685503 h 0.683479 l 1.083816,2.453055 -0.297276,-2.74042 0.671161,-0.233065 0.629393,2.435889 -0.124079,-2.581342 0.606113,0.04402 0.176083,2.865432 0.331235,-3.509863 h 0.551608 l -0.173561,3.583678 0.763235,-3.253825 0.636577,0.04355 -0.595997,3.54681 0.963218,-3.31635 h 0.534741 l -0.925401,3.599114 1.392854,-3.403308 0.492601,0.04788 -1.224928,3.766056 1.521886,-3.336905 0.437234,0.26308 -1.20582,3.188768 1.755619,-3.134162 0.441489,0.0913 -1.270201,3.177691 1.492441,-2.195462 0.553947,-0.326785 -1.609696,2.917518 1.823959,-2.153871 c 0,0 -1.794545,2.858989 -1.549774,2.653404 0.244774,-0.205586 2.186723,-2.302501 2.186723,-2.302501 l -1.617397,2.405774 2.391685,-2.040967 -1.893621,2.147465 1.426136,-1.166824 0.25717,0.481645 -1.270381,1.03492 1.64963,-0.60803 0.290827,0.24294 -1.565825,0.928856 1.7995,-0.02896 0.299786,0.324601 -1.519613,0.424339 h 1.72263 l -0.120899,0.672413 -1.378894,-0.0018 1.362242,0.484925 0.0052,0.606191 -1.237734,-0.02806 1.35386,0.544017 -0.361577,0.698486 -1.049594,-0.376052 0.805137,1.093642 -0.317357,0.482402 -1.214181,-0.798827 0.786606,1.348921 -0.81268,0.420915 -0.870331,-1.28475 0.0397,1.380781 -1.03863,0.35216 -0.307943,-1.367838 -0.378082,1.600737 -0.859313,0.149979 v -1.538947 l -0.567119,1.23592 -0.970277,0.08804 V 25.12868 l -0.854403,1.910204 -0.841,-0.244726 0.612289,-2.087346 -1.368338,2.094244 -0.997612,-0.301922 z"
         id="path39" />
    </g>
    <path
       style="fill:#00b727;fill-opacity:1;stroke:none;stroke-width:0.264583px;stroke-linecap:butt;stroke-linejoin:miter;stroke-opacity:1"
       d="M 0.60567085,67.060148 C 0.46731736,64.741689 1.394796,61.22284 2.3675793,59.016724 l 1.7592724,0.229507 0.3534995,-4.003293 c 0,0 2.2592836,0.372113 2.8160033,-0.09091 0.3568885,-0.296824 0.9173586,-3.812422 1.665694,-3.812422 0.7483355,0 3.3965945,0.364877 3.3965945,0.364877 l 1.938205,-2.495963 2.157944,0.87183 3.180046,-1.482061 2.021252,0.580784 c 1.596576,-0.780762 2.706739,-0.817398 7.409764,0.63505 l 0.517853,1.418794 -1.48441,0.870592 c -1.728862,-1.145474 -2.879859,-1.098711 -3.735885,-0.403757 1.195593,0.952886 -0.327633,4.636047 -0.518348,4.636016 -0.190675,-3.1e-5 -4.805919,-1.272392 -4.805919,-1.272392 0,0 5.234294,4.609423 3.735478,4.006988 -1.260299,-0.506564 -7.055406,-1.201794 -7.055406,-1.201794 0,0 4.102654,3.834288 2.746419,3.939152 -0.652482,0.05045 -7.428117,-1.935161 -7.519713,-1.40657 1.307468,1.026153 3.049158,2.74493 2.289352,3.280246 -0.616493,0.434346 -5.5152482,-0.391875 -5.5152482,-0.391875 l 2.0882458,2.120153 c -2.2259707,1.230419 -6.519466,1.013987 -9.20260175,1.650472 z"
       id="path41"
       sodipodi:nodetypes="ccccsscccccccccscscscsccc" />
    <path
       style="fill:#00b727;fill-opacity:1;stroke:none;stroke-width:0.264583px;stroke-linecap:butt;stroke-linejoin:miter;stroke-opacity:1"
       d="m 61.469007,54.210795 c -0.805052,-2.178597 -3.068491,-5.028046 -4.845854,-6.657229 l -1.518718,0.917173 -1.932538,-3.523721 c 0,0 -1.919264,1.2487 -2.615128,1.048448 -0.446088,-0.128373 -2.372153,-3.122339 -3.057398,-2.821598 -0.685246,0.300741 -2.9636,1.699137 -2.9636,1.699137 l -2.777876,-1.50661 -1.625643,1.665561 -3.507554,-0.07912 -1.617441,1.344119 c -1.775745,-0.07331 -2.807036,0.339298 -6.529852,3.559343 l 0.09599,1.507293 1.709136,0.200641 c 1.122764,-1.743696 2.195516,-2.163438 3.258661,-1.871093 -0.711851,1.353035 2.163143,4.113525 2.337767,4.036852 0.174587,-0.07666 3.889396,-3.09652 3.889396,-3.09652 0,0 -2.940572,6.32437 -1.810224,5.170381 0.950469,-0.970345 5.977607,-3.935896 5.977607,-3.935896 0,0 -2.215848,5.159801 -0.931811,4.710782 0.617748,-0.216023 6.02417,-4.757221 6.320474,-4.310004 -0.784849,1.465085 -1.688961,3.738906 -0.77808,3.92374 0.739073,0.149972 4.892787,-2.575302 4.892787,-2.575302 l -1.060146,2.780632 c 2.532785,0.232113 6.377327,-1.691539 9.090045,-2.187012 z"
       id="path42"
       sodipodi:nodetypes="ccccsscccccccccscscscsccc" />
    <path
       style="fill:#00b727;fill-opacity:1;stroke:#007616;stroke-width:0.199979px;stroke-linecap:butt;stroke-linejoin:miter;stroke-opacity:1"
       d="M 18.184342,67.489063 C 16.631627,66.210976 14.91079,65.657912 13.951396,62.056157 l 1.617818,-0.416039 -1.80083,-2.052475 c 0,0 2.118249,-0.496662 2.348993,-0.888758 0.147921,-0.251356 -1.22072,-2.128779 -0.583807,-2.353215 0.636914,-0.224436 2.64868,-0.841276 2.64868,-0.841276 l -1.343664,-1.794864 2.294346,-0.2233 1.92849,-1.674336 2.025209,-0.323815 c 0.948963,-0.858452 0.887148,-0.624739 5.65245,-1.329038 l 1.185604,0.534526 -0.806338,0.868488 c -2.072812,-0.03844 -1.803343,0.384312 -2.167068,0.978942 1.517835,0.104732 1.917946,1.713079 1.755611,1.770262 -0.162301,0.05717 -3.213314,0.07458 -3.213314,0.07458 0,0 5.326949,0.967033 3.735023,1.123635 -1.338592,0.131682 -4.116357,0.789759 -4.116357,0.789759 0,0 4.259629,1.021457 3.16038,1.479196 -0.528846,0.220218 -5.143935,0.916874 -4.944387,1.201353 1.651518,0.106802 2.687291,1.596886 2.321651,2.08504 -0.296673,0.396079 -4.899798,1.463561 -4.899798,1.463561 l 2.890384,0.404554 c -2.365376,0.89197 -3.916696,4.484339 -5.45613,4.556128 z"
       id="path43"
       sodipodi:nodetypes="ccccsscccccccccscscscscccc" />
    <path
       style="fill:#00b727;fill-opacity:1;stroke:none;stroke-width:0.264583px;stroke-linecap:butt;stroke-linejoin:miter;stroke-opacity:1"
       d="M 9.6352368,7.5562751 C 18.360757,12.012921 29.262904,41.171709 29.865062,51.464295 l -1.213548,0.250926 C 28.640394,41.340337 16.318247,11.320529 8.6859582,8.2575907 Z"
       id="path66"
       sodipodi:nodetypes="ccccc" />
    <g
       id="g64"
       transform="rotate(-46.83046,6.0269364,43.314607)">
      <ellipse
         style="fill:#f5ff38;fill-opacity:1;stroke:none;stroke-width:0.294481;stroke-linecap:round;stroke-dasharray:none;stroke-opacity:1"
         id="ellipse64"
         cx="39.349644"
         cy="7.7415051"
         rx="7.4593425"
         ry="4.6035252"
         transform="rotate(20.470207)" />
      <path
         style="fill:#f5ff38;fill-opacity:1;stroke:#d9e000;stroke-width:0.264583px;stroke-linecap:butt;stroke-linejoin:miter;stroke-opacity:1"
         d="m 31.938534,24.67555 -1.453409,1.182743 -0.641647,-0.503475 0.894213,-1.029413 -1.598518,0.37975 -0.553611,-0.319349 0.833271,-1.183348 -1.629424,0.550954 -0.590737,-0.780857 1.303358,-0.484025 -1.556245,0.04065 -0.167711,-0.473906 0.78998,-0.697041 -1.084403,-0.161121 -0.393977,-0.644745 1.145989,-0.219905 -1.292386,-0.47284 0.04412,-0.532336 0.843386,0.04402 -0.974602,-0.993685 0.401737,-0.401867 0.750202,0.42018 -0.752758,-1.342592 0.598328,-0.571187 1.936091,1.423678 -1.40032,-2.245249 0.825249,-0.548134 1.401204,2.252452 -0.533011,-2.685503 h 0.683479 l 1.083816,2.453055 -0.297276,-2.74042 0.671161,-0.233065 0.629393,2.435889 -0.124079,-2.581342 0.606113,0.04402 0.176083,2.865432 0.331235,-3.509863 h 0.551608 l -0.173561,3.583678 0.763235,-3.253825 0.636577,0.04355 -0.595997,3.54681 0.963218,-3.31635 h 0.534741 l -0.925401,3.599114 1.392854,-3.403308 0.492601,0.04788 -1.224928,3.766056 1.521886,-3.336905 0.437234,0.26308 -1.20582,3.188768 1.755619,-3.134162 0.441489,0.0913 -1.270201,3.177691 1.492441,-2.195462 0.553947,-0.326785 -1.609696,2.917518 1.823959,-2.153871 c 0,0 -1.794545,2.858989 -1.549774,2.653404 0.244774,-0.205586 2.186723,-2.302501 2.186723,-2.302501 l -1.617397,2.405774 2.391685,-2.040967 -1.893621,2.147465 1.426136,-1.166824 0.25717,0.481645 -1.270381,1.03492 1.64963,-0.60803 0.290827,0.24294 -1.565825,0.928856 1.7995,-0.02896 0.299786,0.324601 -1.519613,0.424339 h 1.72263 l -0.120899,0.672413 -1.378894,-0.0018 1.362242,0.484925 0.0052,0.606191 -1.237734,-0.02806 1.35386,0.544017 -0.361577,0.698486 -1.049594,-0.376052 0.805137,1.093642 -0.317357,0.482402 -1.214181,-0.798827 0.786606,1.348921 -0.81268,0.420915 -0.870331,-1.28475 0.0397,1.380781 -1.03863,0.35216 -0.307943,-1.367838 -0.378082,1.600737 -0.859313,0.149979 v -1.538947 l -0.567119,1.23592 -0.970277,0.08804 V 25.12868 l -0.854403,1.910204 -0.841,-0.244726 0.612289,-2.087346 -1.368338,2.094244 -0.997612,-0.301922 z"
         id="path64" />
    </g>
    <path
       style="fill:none;stroke:#c9b600;stroke-width:0.264583px;stroke-linecap:butt;stroke-linejoin:miter;stroke-opacity:1"
       d="m 29.780074,18.935455 -1.726491,-0.196638 0.02763,0.834385 1.540293,0.288385 c 0,0 -0.957059,1.0621 -0.62761,0.950508 0.329448,-0.111593 1.261507,-0.285841 1.261507,-0.285841 l -0.320255,1.542153 1.150258,-0.381596 c 0,0 -0.909175,1.703355 -0.657347,1.595763 0.251831,-0.107593 1.349904,-1.232005 1.349904,-1.232005 0,0 -0.0016,2.190341 0.223393,1.82571 0.224933,-0.364631 0.805331,-1.936526 0.805331,-1.936526 l 0.684498,1.682584 0.634537,-1.516232 c 0,0 -0.148373,2.341586 0.104757,2.167338 0.253127,-0.174248 1.124373,-1.800065 1.124373,-1.800065 l 0.794269,1.498462 -0.201213,-1.678725 1.511276,1.369002 -0.373406,-1.695757 c 0,0 2.27499,1.066004 2.106197,0.755086 -0.168791,-0.310917 -1.070145,-1.586552 -1.070145,-1.586552"
       id="path68" />
    <path
       style="fill:none;stroke:#c9b600;stroke-width:0.264583px;stroke-linecap:butt;stroke-linejoin:miter;stroke-opacity:1"
       d="m 9.4065162,35.02405 -0.6438826,1.613956 0.8122658,0.192836 0.6834166,-1.410181 c 0,0 0.772929,1.202747 0.751932,0.855547 -0.021,-0.347201 0.05608,-1.29227 0.05608,-1.29227 l 1.403592,0.714654 -0.06557,-1.210128 c 0,0 1.404194,1.325237 1.366637,1.053976 -0.03756,-0.271264 -0.833508,-1.626451 -0.833508,-1.626451 0,0 2.112776,0.577735 1.820174,0.264746 -0.292618,-0.312931 -1.656471,-1.286389 -1.656471,-1.286389 l 1.803387,-0.21777 -1.295909,-1.011047 c 0,0 2.220084,0.759124 2.118561,0.469071 -0.101524,-0.290048 -1.440889,-1.558296 -1.440889,-1.558296 l 1.654625,-0.372114 -1.67253,-0.247479 1.718341,-1.097919 -1.734259,-0.08583 c 0,0 1.626916,-1.91444 1.282547,-1.833382 -0.344359,0.0811 -1.812186,0.615096 -1.812186,0.615096"
       id="path69" />
    <path
       style="fill:none;stroke:#c9b600;stroke-width:0.264583px;stroke-linecap:butt;stroke-linejoin:miter;stroke-opacity:1"
       d="m 5.3731134,9.7787539 -1.3255722,1.1235191 0.6269757,0.551238 1.2649267,-0.925002 c 0,0 0.1186233,1.424763 0.2629018,1.108263 0.1442763,-0.316503 0.6555557,-1.115058 0.6555557,-1.115058 L 7.7624343,11.81114 8.272025,10.711582 c 0,0 0.6187254,1.828987 0.7127652,1.571792 0.094039,-0.2572 0.026573,-1.827396 0.026573,-1.827396 0,0 1.5951078,1.501078 1.4834558,1.087421 C 10.383126,11.129786 9.6350596,9.6304158 9.6350596,9.6304158 L 11.32997,10.283796 10.659541,8.7830894 c 0,0 1.604821,1.7116056 1.651177,1.4078156 0.04636,-0.303786 -0.541839,-2.0520374 -0.541839,-2.0520374 L 13.404782,8.5861649 12.04363,7.5832348 14.076182,7.4193679 12.584704,6.5302606 c 0,0 2.334721,-0.9279081 1.992554,-1.0178121 -0.342177,-0.089862 -1.889012,-0.306581 -1.889012,-0.306581"
       id="path70" />
  </g>
  <g
     style="display:inline"
     inkscape:label="Layer 2"
     id="layer3"
     inkscape:groupmode="layer"
     sodipodi:insensitive="true">
    <path
       style="fill:#848484;fill-opacity:1;stroke:#000000;stroke-width:0.264583px;stroke-linecap:butt;stroke-linejoin:miter;stroke-opacity:1"
       d="m 53.064748,11.280279 0.201718,-2.8221691 2.455445,1.5043888 c 0.278143,0.7752403 0.643665,1.5504813 0.276889,2.3257223 0.907828,0.81956 1.998225,1.350285 2.513899,2.790253 0.173814,1.052519 0.555968,2.144311 -0.572061,2.951431 -2.083477,0.273276 -2.462615,-0.756452 -3.221575,-1.495798 -0.648487,-1.078948 -0.530776,-2.157896 -0.601713,-3.236844 -0.734934,-0.415307 -1.205012,-1.007858 -1.052602,-2.016984 z"
       id="path7"
       sodipodi:nodetypes="ccccccccc" />
    <path
       style="fill:#ffffff;fill-opacity:1;stroke:#000000;stroke-width:0.264583px;stroke-linecap:butt;stroke-linejoin:miter;stroke-opacity:1"
       d="m 55.592234,12.306823 c 2.992613,-1.4474 10.177151,-1.509608 10.958632,4.185775 0.78148,5.695382 -8.403826,5.512537 -10.305891,-1.54695 z"
       id="path6"
       sodipodi:nodetypes="czcc" />
    <path
       style="fill:#ffffff;fill-opacity:1;stroke:#000000;stroke-width:0.264583px;stroke-linecap:butt;stroke-linejoin:miter;stroke-opacity:1"
       d="m 54.509049,12.681714 c -3.009068,1.412872 -7.582374,6.954202 -3.650744,11.148291 3.93163,4.194088 9.574723,-3.055655 5.289311,-8.979289 z"
       id="path3"
       sodipodi:nodetypes="czcc" />
    <path
       style="fill:#ffffff;fill-opacity:1;stroke:#000000;stroke-width:0.264583px;stroke-linecap:butt;stroke-linejoin:miter;stroke-opacity:1"
       d="M 53.549666,10.806347 C 41.651135,9.3803839 36.267907,10.430462 40.437167,15.621054 c 4.949563,6.162044 10.709882,-0.116159 14.169195,-2.64665 z"
       id="path1"
       sodipodi:nodetypes="cscc" />
    <path
       style="fill:#7f7f7f;fill-opacity:1;stroke:none;stroke-width:0.264583px;stroke-linecap:butt;stroke-linejoin:miter;stroke-opacity:1"
       d="m 40.615547,10.714798 c -0.504767,1.896275 0.797858,4.381767 3.955695,7.472065 l -2.76865,1.943937 -5.092716,-8.898777 z"
       id="path24"
       sodipodi:nodetypes="ccccc"
       mask="url(#mask25)" />
    <path
       style="fill:#ffffff;fill-opacity:1;stroke:#000000;stroke-width:0.264583px;stroke-linecap:butt;stroke-linejoin:miter;stroke-opacity:1"
       d="M 54.807344,10.397528 C 61.542878,0.48586954 65.549645,-2.8200133 67.047415,3.6670241 68.934431,11.839939 63.766495,10.237714 55.749092,12.617932 Z"
       id="path5"
       sodipodi:nodetypes="cscc" />
    <path
       style="fill:none;stroke:#000000;stroke-width:0.264583px;stroke-linecap:butt;stroke-linejoin:miter;stroke-opacity:1"
       d="m 49.459096,7.0756975 c 1.585201,-0.2862554 2.652053,0.6345854 3.78669,1.3975715 0.08025,-1.2932564 0.180644,-2.571982 0.964296,-3.3576559"
       id="path8"
       sodipodi:nodetypes="ccc" />
    <ellipse
       style="fill:#ff0909;fill-opacity:1;stroke:#000000;stroke-width:0.294481;stroke-linecap:round;stroke-dasharray:none;stroke-opacity:1"
       id="path9"
       cx="52.93774"
       cy="15.676752"
       rx="0.92602402"
       ry="0.95138991" />
    <ellipse
       style="fill:#ff0909;fill-opacity:1;stroke:#000000;stroke-width:0.294481;stroke-linecap:round;stroke-dasharray:none;stroke-opacity:1"
       id="ellipse9"
       cx="58.495548"
       cy="12.954797"
       rx="0.92602402"
       ry="0.95138991" />
    <ellipse
       style="fill:#ff0909;fill-opacity:1;stroke:#000000;stroke-width:0.294481;stroke-linecap:round;stroke-dasharray:none;stroke-opacity:1"
       id="ellipse10"
       cx="63.352318"
       cy="15.744442"
       rx="0.92602402"
       ry="0.95138991" />
    <ellipse
       style="fill:#ff0909;fill-opacity:1;stroke:#000000;stroke-width:0.294481;stroke-linecap:round;stroke-dasharray:none;stroke-opacity:1"
       id="ellipse11"
       cx="53.036297"
       cy="20.875429"
       rx="0.92602402"
       ry="0.95138991" />
    <ellipse
       style="fill:#ffffff;fill-opacity:1;stroke:none;stroke-width:0.294481;stroke-linecap:round;stroke-dasharray:none;stroke-opacity:1"
       id="ellipse12"
       cx="52.932308"
       cy="15.621186"
       rx="0.37475312"
       ry="0.3457742" />
    <ellipse
       style="fill:#ffffff;fill-opacity:1;stroke:none;stroke-width:0.294481;stroke-linecap:round;stroke-dasharray:none;stroke-opacity:1"
       id="ellipse13"
       cx="53.051014"
       cy="20.82403"
       rx="0.37475312"
       ry="0.3457742" />
    <ellipse
       style="fill:#ffffff;fill-opacity:1;stroke:none;stroke-width:0.294481;stroke-linecap:round;stroke-dasharray:none;stroke-opacity:1"
       id="ellipse14"
       cx="63.380196"
       cy="15.687344"
       rx="0.37475312"
       ry="0.3457742" />
    <ellipse
       style="fill:#ffffff;fill-opacity:1;stroke:none;stroke-width:0.294481;stroke-linecap:round;stroke-dasharray:none;stroke-opacity:1"
       id="ellipse15"
       cx="58.478054"
       cy="12.886506"
       rx="0.37475312"
       ry="0.3457742" />
    <path
       style="fill:#000000;fill-opacity:1;stroke:none;stroke-width:0.264583px;stroke-linecap:butt;stroke-linejoin:miter;stroke-opacity:1"
       d="m 46.215859,10.984518 c 0.478919,-0.509929 1.462916,-0.143702 1.460759,-0.0063 l 0.16333,1.611752 c -0.364249,0.671214 -0.982907,0.499755 -1.385661,0.265704 z"
       id="path15"
       sodipodi:nodetypes="ccccc" />
    <path
       style="fill:#0d0d0d;fill-opacity:1;stroke:none;stroke-width:0.264583px;stroke-linecap:butt;stroke-linejoin:miter;stroke-opacity:1"
       d="m 47.728462,15.366633 c -0.0892,-0.448575 1.037173,-1.121548 1.316717,-0.793535 l 0.569818,0.873551 c -0.408419,0.466084 -0.770615,0.665742 -1.453025,0.730529 z"
       id="path16"
       sodipodi:nodetypes="ccccc" />
    <path
       style="fill:#030303;fill-opacity:1;stroke:none;stroke-width:0.264583px;stroke-linecap:butt;stroke-linejoin:miter;stroke-opacity:1"
       d="m 49.743573,10.982943 c 0.238769,0.594996 0.489185,1.274772 0.813837,1.692789 0.361676,-0.0062 0.981428,-0.01786 1.159471,-0.560315 l -0.646316,-1.131072 z"
       id="path17"
       sodipodi:nodetypes="ccccc" />
    <path
       style="fill:#000000;fill-opacity:1;stroke:none;stroke-width:0.264583px;stroke-linecap:butt;stroke-linejoin:miter;stroke-opacity:1"
       d="m 60.3335,4.8824479 c -0.699449,-0.01272 -1.123671,0.9477009 -1.023737,1.0420261 l 1.040625,1.2415798 C 61.085365,7.3734525 61.3942,6.8106407 61.507552,6.3588201 Z"
       id="path18"
       sodipodi:nodetypes="ccccc" />
    <path
       style="fill:#0d0d0d;fill-opacity:1;stroke:none;stroke-width:0.264583px;stroke-linecap:butt;stroke-linejoin:miter;stroke-opacity:1"
       d="m 62.417252,9.0235683 c -0.259101,-0.3768858 -1.5271,-0.039561 -1.487174,0.3895586 l 0.22819,1.0177001 c 0.61885,0.03263 1.014593,-0.08752 1.537146,-0.5311654 z"
       id="path19"
       sodipodi:nodetypes="ccccc" />
    <path
       style="fill:#030303;fill-opacity:1;stroke:none;stroke-width:0.264583px;stroke-linecap:butt;stroke-linejoin:miter;stroke-opacity:1"
       d="m 57.870958,7.4084441 c 0.259631,0.5861935 0.571867,1.2398845 0.644795,1.7641161 -0.256796,0.2547624 -0.697572,0.6905892 -1.21039,0.4396407 L 56.946072,8.3600195 Z"
       id="path20"
       sodipodi:nodetypes="ccccc" />
    <circle
       id="path22"
       style="fill:#0d0d0d;stroke:#000000;stroke-width:0.264583"
       cx="46.29044"
       cy="18.121193"
       r="0.0068158424" />
    <path
       style="fill:#7f7f7f;fill-opacity:1;stroke:none;stroke-width:0.264583px;stroke-linecap:butt;stroke-linejoin:miter;stroke-opacity:1"
       d="m 62.671085,1.029563 c 1.814256,0.7477446 3.356582,3.8681675 3.90085,8.2528737 l 3.085003,-1.3347358 -3.991819,-9.4440122 z"
       id="path27"
       sodipodi:nodetypes="ccccc"
       mask="url(#mask28)" />
    <path
       style="fill:#0d0d0d;fill-opacity:1;stroke:none;stroke-width:0.264583px;stroke-linecap:butt;stroke-linejoin:miter;stroke-opacity:1"
       d="m 55.310546,18.815914 c 0.03146,-0.456274 0.762878,-0.72574 0.946701,-0.335936 l -0.0096,1.100672 c -0.516281,0.342774 -0.386195,0.35571 -1.061736,0.239414 z"
       id="path30"
       sodipodi:nodetypes="ccccc" />
    <path
       style="fill:#0d0d0d;fill-opacity:1;stroke:none;stroke-width:0.264583px;stroke-linecap:butt;stroke-linejoin:miter;stroke-opacity:1"
       d="m 56.375903,18.502461 c 0.310465,-0.337673 0.626254,-0.335101 0.892201,-0.238979 l 0.08697,0.910349 c -0.16984,0.296768 -0.67451,0.498731 -0.977058,0.38152 z"
       id="path31"
       sodipodi:nodetypes="ccccc" />
    <path
       style="fill:#0d0d0d;fill-opacity:1;stroke:none;stroke-width:0.264583px;stroke-linecap:butt;stroke-linejoin:miter;stroke-opacity:1"
       d="m 59.884997,16.734018 c -0.348195,-0.296539 -1.052255,0.03795 -0.902107,0.441925 l 0.793602,0.762735 c 0.606044,-0.129428 0.524335,-0.02738 0.913536,-0.591654 z"
       id="path32"
       sodipodi:nodetypes="ccccc" />
    <path
       style="fill:#0d0d0d;fill-opacity:1;stroke:none;stroke-width:0.264583px;stroke-linecap:butt;stroke-linejoin:miter;stroke-opacity:1"
       d="m 58.915998,17.276492 c -0.458488,-0.01415 -0.677452,0.213415 -0.794685,0.470755 l 0.590015,0.6987 c 0.330919,0.08608 0.828175,-0.133503 0.955923,-0.431755 z"
       id="path33"
       sodipodi:nodetypes="ccccc" />
    <path
       style="fill:#8a8a8a;fill-opacity:1;stroke:none;stroke-width:0.264583px;stroke-linecap:butt;stroke-linejoin:miter;stroke-opacity:1"
       d="m 42.574116,10.506612 c 0.01296,1.141983 0.02063,2.236335 0.824323,3.264156 l -0.908054,0.09586 c -0.450437,-0.73415 -1.198616,-1.5551 -1.189496,-3.117902 z"
       id="path34"
       sodipodi:nodetypes="ccccc" />
    <path
       style="fill:#c8c8c8;fill-opacity:1;stroke:none;stroke-width:0.264583px;stroke-linecap:butt;stroke-linejoin:miter;stroke-opacity:1"
       d="m 43.343196,13.986115 c 0.375608,0.523147 1.395505,1.439281 1.769613,1.717434 l -0.781224,0.07385 c -0.303443,-0.240711 -1.264101,-1.137836 -1.619363,-1.695073 z"
       id="path35"
       sodipodi:nodetypes="ccccc" />
    <path
       style="fill:#8a8a8a;fill-opacity:1;stroke:none;stroke-width:0.264583px;stroke-linecap:butt;stroke-linejoin:miter;stroke-opacity:1"
       d="m 61.426554,2.2046812 c 0.887666,0.7185695 1.741255,1.403443 2.048865,2.6713998 L 64.113897,4.2233206 C 63.817492,3.4146098 63.637702,2.3185228 62.406273,1.3562257 Z"
       id="path36"
       sodipodi:nodetypes="ccccc" />
    <path
       style="fill:#c8c8c8;fill-opacity:1;stroke:none;stroke-width:0.264583px;stroke-linecap:butt;stroke-linejoin:miter;stroke-opacity:1"
       d="m 63.678594,4.9663375 c 0.177325,0.6191281 0.263217,1.9873803 0.249314,2.4533551 L 64.470447,6.852757 C 64.469885,6.4654341 64.362152,5.1554371 64.145466,4.5311203 Z"
       id="path37"
       sodipodi:nodetypes="ccccc" />
    <path
       style="fill:#000000;fill-opacity:1;stroke:#000000;stroke-width:0.264583px;stroke-linecap:butt;stroke-linejoin:miter;stroke-opacity:1"
       d="m 12.571548,50.939078 c 1.219775,-1.12963 2.341074,-3.310112 8.450089,-2.390082 l 0.346561,0.462333 -8.103216,2.287823 z"
       id="path48"
       sodipodi:nodetypes="ccccc" />
    <path
       style="fill:none;stroke:#000000;stroke-width:0.264583px;stroke-linecap:butt;stroke-linejoin:miter;stroke-opacity:1"
       d="m 11.717443,51.804665 -1.045887,0.480681 -0.64715,-0.656709 -0.7571968,0.307777"
       id="path54" />
    <path
       style="fill:none;stroke:#000000;stroke-width:0.396875;stroke-linecap:butt;stroke-linejoin:miter;stroke-dasharray:none;stroke-opacity:1"
       d="m 17.440999,53.641926 c 0,0 1.876758,0.875538 2.091243,0.783857 0.214485,-0.09168 1.910034,-1.032042 1.910034,-1.032042 l 1.587115,0.486807"
       id="path52" />
    <path
       style="fill:#c03a00;fill-opacity:1;stroke:none;stroke-width:0.264583px;stroke-linecap:butt;stroke-linejoin:miter;stroke-opacity:1"
       d="m 12.92994,50.826082 c 0.804455,0.341411 1.706006,1.062949 2.892711,2.90086 1.329055,1.164531 2.416239,1.521663 3.188421,1.406665 2.172831,-0.58023 5.101448,-1.702908 3.171527,-6.148801 -3.732887,-1.179833 -6.402811,-0.527962 -9.252659,1.841276 z"
       id="path45"
       sodipodi:nodetypes="ccccc" />
    <path
       style="fill:#c03a00;fill-opacity:1;stroke:none;stroke-width:0.264583px;stroke-linecap:butt;stroke-linejoin:miter;stroke-opacity:1"
       d="m 12.919715,50.77925 c 2.005402,-1.964721 5.603406,-3.285828 9.203723,-1.775583 -1.605748,-0.990606 -3.661467,-1.931693 -5.811152,-1.511973 -2.363786,0.432471 -4.856812,1.39635 -5.838872,3.295195 -0.227047,0.700439 -0.154482,1.213519 -0.08813,1.730484 0.695009,-0.813419 1.390739,-1.90324 2.534431,-1.738123 z"
       id="path46"
       sodipodi:nodetypes="cccccc" />
    <ellipse
       style="fill:#fefefe;fill-opacity:1;stroke:none;stroke-width:0.607654;stroke-linecap:round;stroke-dasharray:none;stroke-opacity:1"
       id="ellipse60"
       transform="matrix(0.97725827,0.21205251,-0.19625549,0.98055279,0,0)"
       ry="0.91927874"
       rx="1.8198491"
       cy="47.113327"
       cx="24.28511" />
    <ellipse
       style="fill:#fefefe;fill-opacity:1;stroke:none;stroke-width:0.607654;stroke-linecap:round;stroke-dasharray:none;stroke-opacity:1"
       id="ellipse61"
       transform="matrix(0.97725827,0.21205251,-0.19625549,0.98055279,0,0)"
       ry="0.91927874"
       rx="1.8198491"
       cy="46.927483"
       cx="23.208704" />
    <path
       style="fill:#000000;fill-opacity:1;stroke:#000000;stroke-width:0.264583px;stroke-linecap:butt;stroke-linejoin:miter;stroke-opacity:1"
       d="m 10.458791,52.58294 c 0.39063,-1.071962 1.158131,-1.737543 2.452619,-1.73726 1.53708,0.732825 3.376955,2.455405 3.890197,3.677975 -3.259522,1.289031 -5.95067,0.267764 -6.342816,-1.940715 z"
       id="path47"
       sodipodi:nodetypes="cccc" />
    <path
       style="fill:#000000;fill-opacity:1;stroke:none;stroke-width:0.264583px;stroke-linecap:butt;stroke-linejoin:miter;stroke-opacity:1"
       d="m 10.608402,52.934586 3.180154,2.18172 c -0.374307,0.497481 -1.978972,0.609364 -2.529836,0.264656 -1.2879558,-0.805947 -0.812054,-2.494268 -0.650318,-2.446376 z"
       id="path49"
       sodipodi:nodetypes="ccsc" />
    <path
       style="fill:none;stroke:#000000;stroke-width:0.502708;stroke-linecap:butt;stroke-linejoin:miter;stroke-dasharray:none;stroke-opacity:1"
       d="m 15.742174,54.288226 -0.212921,1.253527 -1.617516,0.279353 -0.229992,1.121971"
       id="path50" />
    <path
       style="fill:none;stroke:#000000;stroke-width:0.529167;stroke-linecap:butt;stroke-linejoin:miter;stroke-dasharray:none;stroke-opacity:1"
       d="m 16.291737,54.294579 0.133456,1.111126 1.958535,0.873916 0.470458,0.987745"
       id="path51" />
    <path
       style="fill:none;stroke:#000000;stroke-width:0.264583px;stroke-linecap:butt;stroke-linejoin:miter;stroke-opacity:1"
       d="m 10.718472,52.574798 -0.7503533,0.48524 -0.091712,0.860719 H 8.7498469"
       id="path53" />
    <path
       style="fill:none;stroke:#000000;stroke-width:0.264583px;stroke-linecap:butt;stroke-linejoin:miter;stroke-opacity:1"
       d="m 9.0912047,54.892495 c 0.6349262,0.353955 1.2473863,0.05216 1.8594673,-0.260697 l 0.528001,0.480944 c -0.206284,0.431232 -0.321667,0.880268 0.305197,1.474679"
       id="path55"
       sodipodi:nodetypes="cccc" />
    <ellipse
       style="fill:#000000;fill-opacity:1;stroke:none;stroke-width:0.607654;stroke-linecap:round;stroke-dasharray:none;stroke-opacity:1"
       id="path56"
       transform="matrix(0.97725827,0.21205251,-0.19625549,0.98055279,0,0)"
       ry="0.91927874"
       rx="1.8198491"
       cy="46.117188"
       cx="23.679768" />
    <ellipse
       style="fill:#000000;fill-opacity:1;stroke:none;stroke-width:0.286442;stroke-linecap:round;stroke-dasharray:none;stroke-opacity:1"
       id="ellipse56"
       transform="matrix(0.79317806,0.60898979,-0.64748614,0.76207722,0,0)"
       ry="0.42313138"
       rx="0.87855268"
       cy="27.194613"
       cx="47.21875" />
    <ellipse
       style="fill:#000000;fill-opacity:1;stroke:none;stroke-width:0.239335;stroke-linecap:round;stroke-dasharray:none;stroke-opacity:1"
       id="ellipse57"
       transform="matrix(-0.97295048,0.23101376,0.44406048,0.89599681,0,0)"
       ry="0.29887816"
       rx="0.86833423"
       cy="51.636398"
       cx="7.7524118" />
    <ellipse
       style="fill:#000000;fill-opacity:1;stroke:none;stroke-width:0.363445;stroke-linecap:round;stroke-dasharray:none;stroke-opacity:1"
       id="ellipse58"
       transform="matrix(-0.99855517,0.05373613,-0.27216167,0.96225154,0,0)"
       ry="0.69806552"
       rx="0.85733205"
       cy="58.031292"
       cx="-35.377579" />
    <ellipse
       style="fill:#000000;fill-opacity:1;stroke:none;stroke-width:0.265725;stroke-linecap:round;stroke-dasharray:none;stroke-opacity:1"
       id="ellipse59"
       transform="matrix(-0.27331979,0.96192323,0.75271535,0.65834611,0,0)"
       ry="0.49147776"
       rx="0.65092248"
       cy="39.427116"
       cx="26.889799" />
    <ellipse
       style="fill:#fefefe;fill-opacity:1;stroke:none;stroke-width:0.607654;stroke-linecap:round;stroke-dasharray:none;stroke-opacity:1"
       id="ellipse62"
       transform="matrix(0.97725827,0.21205251,-0.19625549,0.98055279,0,0)"
       ry="0.59946281"
       rx="0.91779184"
       cy="49.998505"
       cx="24.539618" />
    <ellipse
       style="fill:#fefefe;fill-opacity:1;stroke:none;stroke-width:0.324023;stroke-linecap:round;stroke-dasharray:none;stroke-opacity:1"
       id="ellipse63"
       transform="matrix(0.62519743,-0.78046664,-0.0799564,0.99679836,0,0)"
       ry="0.34833434"
       rx="0.44910723"
       cy="73.057037"
       cx="26.481592" />
  </g>
</svg>
