<?xml version="1.0" encoding="UTF-8" standalone="no"?>
<svg
   xmlns:dc="http://purl.org/dc/elements/1.1/"
   xmlns:cc="http://creativecommons.org/ns#"
   xmlns:rdf="http://www.w3.org/1999/02/22-rdf-syntax-ns#"
   xmlns:svg="http://www.w3.org/2000/svg"
   xmlns="http://www.w3.org/2000/svg"
   id="svg8"
   version="1.1"
   viewBox="0 0 67.733332 67.733335"
   height="256"
   width="256">
  <defs
     id="defs2" />
  <metadata
     id="metadata5">
    <rdf:RDF>
      <cc:Work
         rdf:about="">
        <dc:format>image/svg+xml</dc:format>
        <dc:type
           rdf:resource="http://purl.org/dc/dcmitype/StillImage" />
        <dc:title></dc:title>
      </cc:Work>
    </rdf:RDF>
  </metadata>
  <g
     id="layer1" />
  <g
     id="layer2">
    <path
       style="fill:#bfa463;fill-opacity:1;stroke:none;stroke-width:0.264583px;stroke-linecap:butt;stroke-linejoin:miter;stroke-opacity:1"
       d="m 30.541084,49.062523 c 0.773024,2.592198 2.693451,2.037974 4.393282,2.088671 L 41.318423,35.257647 37.93908,21.22009 c 2.314371,2.469455 4.417412,4.952088 9.27346,7.263041 10.315617,-0.768871 9.209502,-2.108902 9.304219,-3.388884 C 55.70265,19.878515 52.451076,16.979264 49.077403,14.196053 41.110915,8.1933505 36.734546,7.3458224 28.2947,7.7783776 16.275151,8.6821361 16.652674,10.606197 13.747949,12.260123 c -1.745495,2.206177 -1.998185,4.46841 -1.27106,6.767435 2.351233,1.874732 6.204122,3.706931 11.826619,3.627554 2.817719,-0.271655 5.877295,0.268312 8.326123,-1.241264 l 3.902128,12.259762 z"
       id="path832" />
  </g>
  <g
     id="layer3"
     style="display:inline">
    <path
       id="path875"
       d="M 11.408394,10.087583 C 11.281284,9.7264646 5.2809815,6.2876753 5.2809815,6.2876753 3.5465265,5.9309668 3.291324,6.3495354 3.0115965,6.7552505 c -0.4575618,1.3143072 1.4323887,2.448359 2.593972,3.011919 l 5.6635095,1.3068615"
       style="fill:#9a9a9a;fill-opacity:0.483988;stroke:none;stroke-width:0.264583px;stroke-linecap:butt;stroke-linejoin:miter;stroke-opacity:1" />
    <path
       style="fill:#9a9a9a;fill-opacity:0.483988;stroke:none;stroke-width:0.264583px;stroke-linecap:butt;stroke-linejoin:miter;stroke-opacity:1"
       d="M 12.354955,8.6989377 C 12.227845,8.3378192 6.5548268,1.69522 6.5548268,1.69522 5.1733109,-0.06865104 3.1919906,-0.25214184 2.6309503,0.39181973 1.7711919,1.349322 2.4204652,2.6020556 3.1246254,3.2291165 l 9.0910136,6.456269"
       id="path845" />
    <path
       style="fill:#33ae7c;fill-opacity:1;stroke:none;stroke-width:0.264583px;stroke-linecap:butt;stroke-linejoin:miter;stroke-opacity:1"
       d="m 26.301368,3.2054643 c -0.133056,-0.4834959 2.80742,-2.23054089 3.232614,-2.0857919 0.906313,0.3864802 1.398912,0.1572959 3.763325,2.7136321 2.838008,0.5694773 5.382309,0.9007087 9.146809,2.2217255 2.556975,2.2044634 3.499455,5.252309 4.095449,8.481152 l -0.982295,1.883377 -9.470535,-1.063674 c -1.567582,-1.500234 -3.060597,-3.033039 -3.888447,-4.856391 l -2.427004,1.922684 -2.707698,0.859838 c -1.399768,0.03468 -1.519388,-2.349131 -0.158441,-2.144921 0.693352,0.104037 4.263773,-1.2275963 4.121582,-1.6042698 L 29.419294,6.8440179 C 28.755097,6.9232048 27.568835,6.0927394 26.904637,5.7870097 26.49838,4.9572255 25.959715,4.1472741 26.301368,3.2054643 Z"
       id="path835" />
    <path
       style="fill:#63bf6b;fill-opacity:1;stroke:none;stroke-width:0.264583px;stroke-linecap:butt;stroke-linejoin:miter;stroke-opacity:1"
       d="m 16.663244,22.973211 c 0.506116,1.141076 5.53769,1.349718 10.902971,5.552632 1.002827,1.872123 1.764904,3.687617 -0.663739,4.752583 L 13.854122,31.652771 c -4.3902536,1.155141 -7.4448366,3.631185 -9.8005596,6.798362 -2.0516436,3.349032 -1.6934961,6.926571 -0.9156898,10.047095 1.6670058,1.849976 5.7248656,4.56388 9.8751324,4.751387 -1.758259,1.199315 -3.0211131,2.56498 -3.8976537,4.060365 -0.2932015,1.97656 -0.3433692,3.95312 -5.027e-4,5.92968 0.5960272,1.485776 1.5590824,1.549005 2.6808934,0.996921 0.204533,0.21161 -0.0808,-2.035442 -0.07137,-2.628572 0.0063,-0.397881 -5e-6,-3.510766 -0.320875,-3.658058 1.908221,-1.114305 3.61761,-2.346068 5.012642,-3.763536 l 2.729986,1.150724 c 0.324547,1.090862 0.23775,2.301293 1.406286,3.146823 l 6.689074,3.259381 c 1.638136,0.476819 3.145454,0.32359 4.543079,-0.357951 0.45069,-1.981027 -0.0858,-3.962055 -0.754868,-5.943082 -1.665661,-1.674363 -2.229669,-3.057879 -5.146006,-4.261729 l -4.095264,-0.766339 c 0,0 2.354488,-0.522342 2.632708,-0.630391 1.722508,-0.66895 5.540651,1.381617 5.382869,1.44303 0.06934,-0.819287 0.9022,-1.638573 -1.42517,-2.45786 -1.647062,-0.813124 -3.294125,-1.109652 -4.941187,-1.175557 -1.602635,0.122896 -3.046191,0.468916 -4.311807,1.064514 -0.655794,-1.426362 -0.598911,-2.952985 -2.511007,-4.202605 0.811964,-1.644771 0.477704,-3.070424 0.427828,-4.550442 1.784017,-0.446074 2.81313,-1.240783 3.75509,-2.075743 1.182214,1.278533 2.435966,2.370432 3.794109,3.189983 2.168258,0.742785 3.40748,0.250846 4.948828,0.160444 l 2.391918,1.615135 c 1.458126,-1.117645 1.039933,-2.552878 0.828334,-3.953142 l -2.720104,0.501976 c -1.137901,-0.275221 -2.123282,-0.892287 -3.428717,-0.79201 -0.508816,-1.488986 -1.114602,-1.758172 -1.693571,-2.364692 l 4.16743,-1.40059 c 2.845007,-1.570316 2.153812,-4.829659 0.06389,-7.433892 -4.55686,-2.064176 -10.577914,-4.937742 -12.486623,-4.379189 z"
       id="path837" />
    <path
       style="fill:#63bf6b;fill-opacity:1;stroke:none;stroke-width:0.264583px;stroke-linecap:butt;stroke-linejoin:miter;stroke-opacity:1"
       d="m 17.514957,33.070985 -0.422441,-2.056056 1.41133,-1.905299 C 17.884352,28.676004 17.692864,28.108739 17.54074,27.529184 l 1.104295,0.02148 c 1.302081,0.713709 1.377338,1.311599 1.712428,1.934019 -0.221858,0.449225 -0.155877,0.791945 -1.396281,1.618049 1.424113,0.228844 2.339078,1.093328 3.23041,1.987317 z"
       id="path839" />
    <path
       style="fill:#72582f;fill-opacity:1;stroke:none;stroke-width:0.264583px;stroke-linecap:butt;stroke-linejoin:miter;stroke-opacity:1"
       d="m 63.060968,55.109691 1.787925,2.524702 -3.038412,1.241637 -11.158151,-4.349822 -6.091372,-4.130905 c 0,0 -2.545654,-7.599926 -2.44978,-7.915373 0.09588,-0.315446 3.836453,-8.116876 3.836453,-8.116876 l 8.727477,-2.882281 3.973793,-2.824927 1.427369,-6.518508 3.558831,-0.306557 -0.902454,8.832379 -6.72859,4.078933 -7.698605,2.264519 -2.345891,6.324888 2.288688,5.611357 8.706752,3.063349 z"
       id="path841" />
    <path
       style="fill:#000000;fill-opacity:1;stroke:none;stroke-width:0.264583px;stroke-linecap:butt;stroke-linejoin:miter;stroke-opacity:1"
       d="m 13.406505,10.834816 1.278573,-2.2777143 c 0.743433,0.2530094 0.950023,0.2851748 2.116491,-0.4736445 1.318328,-1.6420981 -0.679873,-3.0426177 -2.42252,-2.8075528 -0.564525,0.1497195 -0.786608,0.8354064 -0.824993,1.2497185 l -2.534838,3.415656 -3.33348,6.7278911 -0.5270815,6.494298 c 0.1574518,0.590505 0.7636058,1.705034 1.0970041,1.809267 0.6479029,0.202559 1.4530998,-0.632678 1.2213986,-1.089714 l -0.5421386,-1.35652 c 0,0 -0.3163144,-5.001338 -0.076327,-5.32937 0.2399877,-0.328031 4.5479114,-6.362315 4.5479114,-6.362315 z"
       id="path843" />
    <path
       style="fill:none;stroke:#000000;stroke-width:0.264583px;stroke-linecap:butt;stroke-linejoin:miter;stroke-opacity:1"
       d="m 13.79496,9.4115447 0.899337,1.5975403 2.8819,0.8804"
       id="path847" />
    <path
       style="fill:none;stroke:#000000;stroke-width:0.264583px;stroke-linecap:butt;stroke-linejoin:miter;stroke-opacity:1"
       d="m 13.18128,10.18009 1.048586,1.803005 2.707401,1.371351"
       id="path849" />
    <path
       style="fill:none;stroke:#000000;stroke-width:0.264583px;stroke-linecap:butt;stroke-linejoin:miter;stroke-opacity:1"
       d="m 12.409855,11.005341 c 0.333476,0.369232 1.749238,2.168535 1.749238,2.168535 l 1.920683,2.045303"
       id="path851" />
    <path
       style="fill:#6bd1a7;fill-opacity:1;stroke:none;stroke-width:0.264583px;stroke-linecap:butt;stroke-linejoin:miter;stroke-opacity:1"
       d="m 37.026797,16.526342 c -0.07083,-0.536405 0.444947,-1.07281 0.901848,-1.609215 4.803618,-0.398918 5.861152,0.61387 6.727542,1.266092 -0.672656,0.200728 -1.335184,0.394404 -2.480435,0.924203 0.167525,0.131966 -2.472093,0.484335 -2.863167,0.469154 -0.374177,-0.01452 -2.32314,-0.903781 -2.285788,-1.050234 z"
       id="path853" />
    <path
       style="fill:#ad3534;fill-opacity:1;stroke:none;stroke-width:0.264583px;stroke-linecap:butt;stroke-linejoin:miter;stroke-opacity:1"
       d="M 63.356979,23.714999 64.74057,21.364607 67.280667,18.990772 64.357905,21.0646 63.09896,23.048243"
       id="path859" />
    <path
       id="path861"
       d="m 62.384709,22.673984 1.383591,-2.350392 2.540097,-2.373835 -2.922762,2.073828 -1.258945,1.983643"
       style="fill:#ad3534;fill-opacity:1;stroke:none;stroke-width:0.264583px;stroke-linecap:butt;stroke-linejoin:miter;stroke-opacity:1" />
    <path
       style="fill:#ad7f34;fill-opacity:1;stroke:none;stroke-width:0.264583px;stroke-linecap:butt;stroke-linejoin:miter;stroke-opacity:1"
       d="m 60.16468,22.952608 -0.961363,-1.754281 1.30465,-1.27743 -0.430732,1.236209 0.776547,1.544386"
       id="path863" />
    <path
       style="fill:#ad7f34;fill-opacity:1;stroke:none;stroke-width:0.264583px;stroke-linecap:butt;stroke-linejoin:miter;stroke-opacity:1"
       d="m 62.475935,24.925015 c 0.352322,0.04402 1.866212,0.383687 1.866212,0.383687 l 0.743426,-1.786146 -1.166625,0.97326 -1.477801,-0.335336"
       id="path865" />
    <path
       id="path867"
       d="m 62.563904,55.739496 2.720839,-0.188944 1.67475,-2.582896 -1.577102,3.059238 -2.337017,0.241113"
       style="fill:#ad3534;fill-opacity:1;stroke:none;stroke-width:0.264583px;stroke-linecap:butt;stroke-linejoin:miter;stroke-opacity:1" />
    <path
       style="fill:#ad3534;fill-opacity:1;stroke:none;stroke-width:0.264583px;stroke-linecap:butt;stroke-linejoin:miter;stroke-opacity:1"
       d="m 63.061455,57.074211 2.720839,-0.188944 1.383628,-1.546267 -1.28598,2.022609 -2.337017,0.241113"
       id="path869" />
    <path
       id="path871"
       d="M 11.963114,9.6198208 C 11.836004,9.2587023 6.0237179,1.8802061 6.0237179,1.8802061 5.0375841,1.0198548 3.9298734,-0.16437611 2.2391093,1.3127028 1.5209965,2.4475834 2.124246,3.3822869 2.7327844,4.1499996 l 9.0910136,6.4562684"
       style="fill:#9a9a9a;fill-opacity:0.483988;stroke:none;stroke-width:0.264583px;stroke-linecap:butt;stroke-linejoin:miter;stroke-opacity:1" />
    <path
       style="fill:#9a9a9a;fill-opacity:0.483988;stroke:none;stroke-width:0.264583px;stroke-linecap:butt;stroke-linejoin:miter;stroke-opacity:1"
       d="M 11.289727,10.547458 C 11.162617,10.18634 5.0194262,8.4930529 5.0194262,8.4930529 4.129461,8.420985 3.1402593,8.1794937 2.7500412,8.9606281 2.3866061,10.314159 2.9560479,11.083115 5.6781056,11.473081 l 5.4723054,0.06082"
       id="path873" />
    <path
       style="fill:none;stroke:#ebbe5c;stroke-width:0.79375;stroke-linecap:round;stroke-linejoin:miter;stroke-opacity:1;stroke-miterlimit:4;stroke-dasharray:none"
       d="M 61.347844,27.803607 58.411609,27.917698 57.114323,24.61445"
       id="path877" />
    <path
       id="path879"
       d="m 60.011779,29.591452 -2.936235,0.114091 -1.297286,-3.303248"
       style="fill:none;stroke:#ebbe5c;stroke-width:0.79375;stroke-linecap:round;stroke-linejoin:miter;stroke-opacity:1;stroke-miterlimit:4;stroke-dasharray:none" />
    <path
       style="fill:none;stroke:#ebbe5c;stroke-width:0.79375;stroke-linecap:round;stroke-linejoin:miter;stroke-opacity:1;stroke-miterlimit:4;stroke-dasharray:none"
       d="m 57.453198,30.762716 -2.936235,0.114091 -1.297286,-3.303248"
       id="path881" />
    <path
       id="path883"
       d="m 54.882562,32.380608 -2.936235,0.114091 -1.297286,-3.303248"
       style="fill:none;stroke:#ebbe5c;stroke-width:0.79375;stroke-linecap:round;stroke-linejoin:miter;stroke-opacity:1;stroke-miterlimit:4;stroke-dasharray:none" />
    <path
       style="fill:none;stroke:#ebbe5c;stroke-width:0.79375;stroke-linecap:round;stroke-linejoin:miter;stroke-opacity:1;stroke-miterlimit:4;stroke-dasharray:none"
       d="m 52.419877,33.395982 -2.936235,0.114091 -1.297286,-3.303248"
       id="path885" />
    <path
       id="path887"
       d="m 50.303209,34.454316 -2.936235,0.114091 -1.297286,-3.303248"
       style="fill:none;stroke:#ebbe5c;stroke-width:0.79375;stroke-linecap:round;stroke-linejoin:miter;stroke-opacity:1;stroke-miterlimit:4;stroke-dasharray:none" />
    <path
       style="fill:none;stroke:#ebbe5c;stroke-width:0.79375;stroke-linecap:round;stroke-linejoin:miter;stroke-miterlimit:4;stroke-dasharray:none;stroke-opacity:1"
       d="M 47.192365,35.612543 44.721139,35.097574 44.11972,31.268376"
       id="path889" />
    <path
       id="path891"
       d="m 46.59904,36.570984 -2.936235,0.114091 -1.297286,-3.303248"
       style="fill:none;stroke:#ebbe5c;stroke-width:0.79375;stroke-linecap:round;stroke-linejoin:miter;stroke-opacity:1;stroke-miterlimit:4;stroke-dasharray:none" />
    <path
       style="fill:none;stroke:#ebbe5c;stroke-width:0.79375;stroke-linecap:round;stroke-linejoin:miter;stroke-opacity:1;stroke-miterlimit:4;stroke-dasharray:none"
       d="M 45.540706,39.216819 42.604471,39.33091 41.307185,36.027662"
       id="path893" />
    <path
       id="path895"
       d="m 44.482372,41.862654 -2.936235,0.114091 -1.297286,-3.303248"
       style="fill:none;stroke:#ebbe5c;stroke-width:0.79375;stroke-linecap:round;stroke-linejoin:miter;stroke-opacity:1;stroke-miterlimit:4;stroke-dasharray:none" />
    <path
       style="fill:none;stroke:#ebbe5c;stroke-width:0.79375;stroke-linecap:round;stroke-linejoin:miter;stroke-miterlimit:4;stroke-dasharray:none;stroke-opacity:1"
       d="m 44.482372,43.979322 -2.936235,0.114091 -2.315316,-2.491624"
       id="path897" />
    <path
       id="path899"
       d="m 44.482372,46.625157 -2.936235,0.114091 -2.367185,-1.860245"
       style="fill:none;stroke:#ebbe5c;stroke-width:0.79375;stroke-linecap:round;stroke-linejoin:miter;stroke-miterlimit:4;stroke-dasharray:none;stroke-opacity:1" />
    <path
       style="fill:none;stroke:#ebbe5c;stroke-width:0.79375;stroke-linecap:round;stroke-linejoin:miter;stroke-miterlimit:4;stroke-dasharray:none;stroke-opacity:1"
       d="m 45.011539,49.270992 -2.936235,0.114091 -2.908577,-1.514234"
       id="path901" />
    <path
       id="path903"
       d="m 46.25283,50.019024 -1.76225,2.158639 -3.542463,-0.212955"
       style="fill:none;stroke:#ebbe5c;stroke-width:0.79375;stroke-linecap:round;stroke-linejoin:miter;stroke-miterlimit:4;stroke-dasharray:none;stroke-opacity:1" />
    <path
       style="fill:none;stroke:#ebbe5c;stroke-width:0.79375;stroke-linecap:round;stroke-linejoin:miter;stroke-opacity:1;stroke-miterlimit:4;stroke-dasharray:none"
       d="m 47.209987,51.05347 -1.131906,2.711694 -3.542463,-0.212955"
       id="path905" />
    <path
       id="path907"
       d="M 49.326655,52.640971 48.194749,55.352665 44.652286,55.13971"
       style="fill:none;stroke:#ebbe5c;stroke-width:0.79375;stroke-linecap:round;stroke-linejoin:miter;stroke-opacity:1;stroke-miterlimit:4;stroke-dasharray:none" />
    <path
       style="fill:none;stroke:#ebbe5c;stroke-width:0.79375;stroke-linecap:round;stroke-linejoin:miter;stroke-opacity:1;stroke-miterlimit:4;stroke-dasharray:none"
       d="m 51.443323,53.699305 -1.131906,2.711694 -3.542463,-0.212955"
       id="path909" />
    <path
       id="path911"
       d="m 53.004635,53.76368 0.472932,2.900143 -3.119445,1.692175"
       style="fill:none;stroke:#ebbe5c;stroke-width:0.79375;stroke-linecap:round;stroke-linejoin:miter;stroke-opacity:1;stroke-miterlimit:4;stroke-dasharray:none" />
    <path
       style="fill:none;stroke:#ebbe5c;stroke-width:0.79375;stroke-linecap:round;stroke-linejoin:miter;stroke-opacity:1;stroke-miterlimit:4;stroke-dasharray:none"
       d="m 55.121303,54.292847 0.472932,2.900143 -3.119445,1.692175"
       id="path913" />
    <path
       id="path915"
       d="m 57.767138,55.351181 0.472932,2.900143 -3.119445,1.692175"
       style="fill:none;stroke:#ebbe5c;stroke-width:0.79375;stroke-linecap:round;stroke-linejoin:miter;stroke-opacity:1;stroke-miterlimit:4;stroke-dasharray:none" />
    <path
       style="fill:none;stroke:#ebbe5c;stroke-width:0.79375;stroke-linecap:round;stroke-linejoin:miter;stroke-opacity:1;stroke-miterlimit:4;stroke-dasharray:none"
       d="m 60.412973,55.880348 0.472932,2.900143 -3.119445,1.692175"
       id="path917" />
  </g>
</svg>
