<?xml version="1.0" encoding="UTF-8" standalone="no"?>
<svg
   xmlns:dc="http://purl.org/dc/elements/1.1/"
   xmlns:cc="http://creativecommons.org/ns#"
   xmlns:rdf="http://www.w3.org/1999/02/22-rdf-syntax-ns#"
   xmlns:svg="http://www.w3.org/2000/svg"
   xmlns="http://www.w3.org/2000/svg"
   xmlns:xlink="http://www.w3.org/1999/xlink"
   xmlns:sodipodi="http://sodipodi.sourceforge.net/DTD/sodipodi-0.dtd"
   xmlns:inkscape="http://www.inkscape.org/namespaces/inkscape"
   width="1095pt"
   height="913pt"
   viewBox="0 0 1095 913"
   version="1.1"
   id="svg2"
   inkscape:version="0.48.1 r9760"
   sodipodi:docname="luna - fun doubled 15.svg"
   inkscape:export-filename="lunatest.png"
   inkscape:export-xdpi="72"
   inkscape:export-ydpi="72">
  <metadata
     id="metadata128">
    <rdf:RDF>
      <cc:Work
         rdf:about="">
        <dc:format>image/svg+xml</dc:format>
        <dc:type
           rdf:resource="http://purl.org/dc/dcmitype/StillImage" />
        <dc:title></dc:title>
      </cc:Work>
    </rdf:RDF>
  </metadata>
  <defs
     id="defs126">
    <linearGradient
       id="linearGradient3090">
      <stop
         style="stop-color:#0d5f82;stop-opacity:1;"
         offset="0"
         id="stop3092" />
      <stop
         style="stop-color:#188795;stop-opacity:1;"
         offset="1"
         id="stop3094" />
    </linearGradient>
    <linearGradient
       inkscape:collect="always"
       xlink:href="#linearGradient3090"
       id="linearGradient3096"
       x1="617.03717"
       y1="636.09052"
       x2="628.76233"
       y2="669.80042"
       gradientUnits="userSpaceOnUse" />
  </defs>
  <sodipodi:namedview
     pagecolor="#ffffff"
     bordercolor="#666666"
     borderopacity="1"
     objecttolerance="10"
     gridtolerance="10"
     guidetolerance="10"
     inkscape:pageopacity="0"
     inkscape:pageshadow="2"
     inkscape:window-width="1187"
     inkscape:window-height="836"
     id="namedview124"
     showgrid="false"
     inkscape:zoom="0.3618404"
     inkscape:cx="615.82594"
     inkscape:cy="579.83973"
     inkscape:window-x="489"
     inkscape:window-y="0"
     inkscape:window-maximized="0"
     inkscape:current-layer="svg2" />
  <path
     d="m 627.44,421.83 c 7.56,3.48 13.54,9.95 17.39,17.24 2.88,7.65 4.59,16.83 0.6,24.42 -1.31,2.76 -2.09374,9.44961 -4.87374,11.02961 C 628.80497,453.67826 626.09658,433.07124 627.44,421.83 z"
     id="path40"
     inkscape:connector-curvature="0"
     style="fill:#f2f2f2"
     sodipodi:nodetypes="ccccc" />
  <path
     d="m 367.24091,338.78999 c 11.92,2.56 24.67448,11.30567 33.37448,19.39567 7.24,6.11 10.78097,11.9425 17.12097,18.9125 3.56579,2.84357 10.81444,9.21417 9.56364,10.87184 4.06085,7.18817 30.96368,7.29297 40.93433,9.92329 0,0 29.65367,4.87626 42.56597,5.61111 13.35,-0.06 36.14383,0.0322 49.48383,0.39218 10.67,0.27 24.96755,1.67503 35.51755,3.65503 9.99,1.8 20.1,3.04832 29.33,7.38832 -0.23,9.79 3.27105,23.03916 5.61105,32.39916 2.60546,7.61727 3.96766,12.47688 6.93949,21.02144 1.8881,4.23023 2.21021,4.07075 18.9022,14.5226 1.53,1.55 7.71351,0.85153 9.79351,1.65153 20.19155,3.77628 19.65742,1.38465 29.39672,4.75359 2.53105,12.68235 2.09946,19.39232 3.13719,31.03356 0.12,8.64 -1.36,20.03365 -4.02,28.24365 -5.96,2.85 -15.60638,5.58273 -22.10638,6.71273 -6.95,0.43 -14.68273,2.46819 -21.38273,0.24819 -6.68,-1.9 -8.81089,-2.78635 -15.47089,-4.72635 0.03,9.77 1.40546,15.65816 5.83546,24.57816 2.91,5.84 10.64365,7.23362 16.52365,10.00362 5.71,2.67 14.38092,-0.24819 20.46092,0.14181 -3.46,4.68 -10.22365,18.54641 -15.12365,21.72641 -5.61,0.7 -80.94397,10.41187 -86.57397,10.62187 -26.59039,13.3369 -39.36627,12.6987 -61.26422,46.8181 -7.5,9.85 -13.48546,21.33 -18.34546,32.63 -3.96,11.84 -7.13366,26.48503 -7.02366,39.06503 4.10394,27.88834 8.38575,56.09483 10.61302,80.06843 0.2663,2.86638 0.50324,5.67225 0.70698,8.40983 1.18,9.63 1.31084,20.52251 1.45084,30.20251 0.14,5.51 -6.06175,19.68846 -4.78175,25.11846 -6.29,3.41 -12.83084,6.10749 -19.75084,8.11749 -5.62,1.73 -12.12168,3.97167 -17.93168,4.87167 -8.97,0.58 -19.67335,-1.70587 -28.48335,-3.88587 -7.43,-1.86 -17.60588,-2.72748 -24.57588,-5.93748 -18.65,-8.28 -31.8258,-21.32748 -45.6958,-35.96748 -10.14,-11.44 -19.02084,-26.7242 -31.94084,-35.3442 -10.1,-6.95 -7.36896,-3.06322 -18.41896,-8.18322 0.46,0.08 -15.41607,-5.24175 -14.95607,-5.16175 11.6,-22.21 17.56832,-55.87013 24.16832,-79.92013 1.3,-5.42 4.97419,-9.19665 5.47419,-14.76665 4.34,-10.13 12.00504,-24.16923 15.36504,-34.70923 5.41,-12.48 9.88748,-23.29664 15.13748,-35.85664 6.39,-15.76 13.04748,-26.73077 17.28748,-43.27077 4.09,-16.74 4.19832,-35.20252 4.64832,-52.35252 0.93,-14.1 1.55168,-34.51342 2.99168,-48.58342 1.84,1.81 9.12091,10.60594 11.38091,11.85594 -2.65,-6.22 -6.33,-11.93 -9.16,-18.07 -10.29,-18.98 -22.26638,-38.98 -27.38638,-60 -1.87,-9.55 -1.92,-21.00819 -2.2,-30.69819 -0.54,-15.63 3.67546,-30.06454 8.64546,-44.81454 0.75,-2.16 3.19183,-6.68728 4.23183,-8.71728 z"
     id="path28"
     inkscape:connector-curvature="0"
     style="fill:#2d3c7a"
     sodipodi:nodetypes="cccccccccccccccccccccccccccscccccccccccccccccccccccc" />
  <path
     d="m 543.85651,549.24458 c 1.95,-2 13.34013,-6.68587 15.13013,-8.82587 1.55,2.05 4.67336,7.03129 6.24336,9.06129 -3.48,0.19 -17.90349,-0.15542 -21.37349,-0.23542 z"
     id="path84"
     inkscape:connector-curvature="0"
     style="fill:#89d9df"
     sodipodi:nodetypes="cccc" />
  <path
     d="m 630.19,448.03 c -2.34,-9.36 -6.07,-18.61 -5.84,-28.4 1.02,0.72 2.03,1.49 3.09,2.2 3.03687,17.8953 4.71826,30.596 13.40827,50.77394 -0.44,0.54 -0.84629,0.13804 -1.26629,0.68804 -2.03,-1.82 -4.38198,-3.99198 -6.39198,-5.81198 0.72,0.01 2.16,0.04 2.88,0.05 -1.59,-6.61 -4.38,-12.85 -5.88,-19.5 z"
     id="path38"
     inkscape:connector-curvature="0"
     style="fill:#040c25"
     sodipodi:nodetypes="cccccccc" />
  <path
     d="m 697.55726,383.46999 c 4.69,2.84 14.28912,6.95273 18.70912,10.20273 7.58,6.15 15.64182,12.57546 23.46182,18.41546 16.27521,14.44336 33.83153,20.46147 52.7,27.77817 58.26466,24.0656 118.17281,46.91205 162.66201,95.11357 1.80087,1.95113 3.73761,3.74086 5.52799,5.64007 8.37,7.34 12.93091,18.40365 18.55091,27.82365 8.66338,16.35985 8.84943,24.68924 11.99636,36.32727 3.08393,39.04097 -8.53403,61.23991 -26.5409,87.71546 -16.22207,19.25127 -22.14477,25.01831 -33.07546,42.55545 -1.93455,19.60985 -1.61341,23.80751 3.92726,43.32633 5.91,8.31 12.09183,20.57184 19.95183,27.30184 6.72,4.97 13.48636,9.4809 20.68636,13.7609 13.56,8.51 29.10094,12.3191 42.01094,21.9791 11.96,9.23 21.8018,23.73819 29.3818,36.60819 5.43,10.96 6.1427,23.66182 10.7927,34.98182 l -81.42705,0.39084 c -5.88859,-28.74642 -1.95636,-17.50487 -19.29141,-24.0356 -54.41727,-25.47691 -90.0046,-62.49391 -120.44349,-117.64021 -2.56357,-32.22005 17.62326,-82.67045 27.45993,-102.16405 4.06,-6.82 6.53,-24.17098 9.14,-31.63098 3.17537,-44.25137 -2.93905,-66.82289 -28.78147,-89.8614 -20.88965,-26.29804 -45.26012,-46.55611 -69.85658,-59.13762 -29.12671,-8.12763 -42.20802,-14.94991 -59.28245,-29.33812 -4.87,-3.94 -13.77923,-23.02188 -18.36923,-27.27188 -4.21527,-4.27815 4.45821,-26.31191 4.40175,-33.29098 -6.22821,-11.05094 -3.67274,-11.36001 -4.29274,-15.55001 z"
     id="path32"
     inkscape:connector-curvature="0"
     style="fill:#6941c5;fill-opacity:0.59903385"
     sodipodi:nodetypes="ccccscccccccccccccccccccccc" />
  <path
     d="m 700.53,423.48 c 0.6,-0.23 0.91061,-4.7061 1.51061,-4.9461 4.59,4.25 10.07939,12.4861 14.94939,16.4261 13.22,10.58 26.26,21.49 40.59,30.57 7.4,4.54 14.52,9.56 22.21,13.62 17.36,9.3 34.66,18.84 50.62,30.44 9.15,5.99 17.17,13.44 25.49,20.49 19.86,18.41 36.56,41.26 43.68,67.7 3.54,13.14 2.81,27.31 -1.61,40.14 -2.61,7.46 -5.08,15.04 -9.14,21.86 -12,22.55 -25.86,44.6 -32.25,69.59 -2.96,13.05 -4.38,27.15 0.1,40 8.37,15.9 17.88,31.48 30.78,44.14 23.82,22.74 49.57,43.86 78.72,59.43 11.01,4.72 20.76,12.34 28.1,21.81 4.43,5.32 6.53,11.97 9.17,18.25 l -382.66,0 c -12.46,-2.71 -48.89034,3.42587 -41.42755,-4.20503 8.26,-7.15 17.61252,-17.55672 26.30252,-24.19672 26.75965,-22.46728 35.02605,-29.88433 52.79503,-43.48419 29.51,-23.69 49.63406,-42.25406 78.51406,-66.69406 18.58183,-16.47654 22.38266,-20.25523 27.77671,-26.00426 13.21608,-7.64813 18.76176,-7.94437 22.98921,-18.45161 6.64,-14.57 10.91827,-27.10077 6.93827,-42.52077 -4,-15.05 -13.8792,-30.78336 -23.0692,-43.32336 -8.17,-11.1 -16.63,-19.78908 -25.65,-30.20908 -8.47684,-15.07953 -10.92066,-14.38822 -22.94997,-24.15635 -7.92484,-5.34412 -17.32658,-4.30997 -23.39362,3.55908 -4.81,6.23 -10.98092,19.15003 -16.15092,25.11003 -8.35,11.25 -17.13,22.73273 -25.68,33.84273 -14.93,19.71 -12.12264,26.19448 -27.51264,45.54448 -1.59,2.04 -16.06371,19.72371 -16.53371,22.12371 -7.79,11.61 -17.66819,34.57732 -25.40819,34.07727 -6.84,9.84 -13.78,19.63 -19.83,29.98 -12.71,17.99 -24.39,35.56454 -35.48,54.58454 -3.9,5.99 -10.12542,17.66808 -13.46542,23.98808 -1.99698,-19.9631 -7.23659,-33.12374 -17.60381,-49.10449 -1.87,-15.25 -7.11626,-37.09276 -10.18626,-52.16276 -0.7,-4.66 -0.46626,-4.50144 -0.63626,-9.23144 -0.28,-7.67 -0.0674,-22.79221 1.08264,-30.46221 1.09,-18.93 9.45819,-33.37089 19.23819,-49.50089 8.33,-15.04 18.62181,-25.45908 31.00181,-37.23908 3.26,-3.36 11.78911,-5.61546 15.82911,-7.71546 8.84,-4.64 13.91089,-7.56181 23.41089,-10.71181 9.48,-2.76 22.91911,-7.62092 32.77911,-8.54092 14.81,-2.37 25.97089,-1.02 40.89089,-1.17 1.88742,-1.59135 3.68012,-2.85885 5.40916,-3.9933 4.8118,-3.15709 8.02506,-5.28369 12.51992,-10.49213 3.24,-4.01 5.16999,-3.68634 7.13999,-8.51634 -4.09,-0.09 -5.43635,0.12454 -9.49635,0.68454 2.36,-7.65 -6.09914,-26.57914 10.08001,-29.34912 4.77,-2.35 6.89362,-2.39272 14.23364,-5.7709 2.26,-1.63 3.71546,-5.84365 4.45546,-8.33365 1.29816,-17.42 0.85908,-23.55176 -2.1591,-46.07269 -0.25857,-9.47262 -1.31222,-5.89187 -11.02182,-6.44727 -1.86,-7.47 0.1982,-20.16457 -2.7918,-27.28457 1.83,-1.67 2.69454,-8.38275 3.97454,-10.54275 5.59,-9.96 12.69546,-15.37725 12.82546,-27.12725 z"
     id="path42"
     inkscape:connector-curvature="0"
     style="fill:#1847b0"
     sodipodi:nodetypes="ccccccccccccccccccccccccccccccccccccccccccccccsccccccccccc" />
  <path
     d="m 552.52755,313.36161 c 58.48012,2.50031 102.99513,14.80985 134.46168,63.07419 14.12644,33.04075 8.42097,69.97389 -16.96557,90.23512 -2.89,2.42 -16.1325,9.28876 -19.6125,10.89876 -1.7584,-2.30013 3.23696,-19.87374 3.27793,-21.778 -0.75591,-24.5941 -15.05382,-37.12849 -37.22168,-44.38161 -20.52776,-12.80006 -45.4404,-7.27903 -67.62503,-7.62916 -24.03,-0.33 -45.56413,0.13748 -69.30413,-4.45252 -18.18,-2.24 -26.58902,-3.16413 -43.45902,-10.50413 -2.77,-0.82 -9.94923,-9.91426 -12.87923,-8.47426 -2.71,-4.78 -5.85,-9.32 -9.32,-13.57 9.98,-8.07 17.90077,-16.45839 29.20077,-22.27839 37.38786,-19.80065 91.95005,-28.96076 109.44678,-31.14 z"
     id="path24"
     inkscape:connector-curvature="0"
     style="fill:#1549ae"
     sodipodi:nodetypes="ccccccccccccc" />
  <path
     d="m 361.4,453.15 c 4.59,10.34 14.45184,24.15911 20.67184,33.60911 -1.68835,63.86604 -3.36221,82.38274 -21.95365,131.15819 -15.20857,34.69947 -26.21012,58.10054 -39.75457,93.13276 -3.33,-12 -3.76092,-40.57917 -4.53092,-52.84917 3.17493,-23.03578 0.34298,-47.31109 1.41273,-66.61816 6.25737,-36.13641 11.85247,-79.42869 23.61181,-108.88181 4.01,-9.42 15.48276,-20.66092 20.54276,-29.55092 z"
     id="path50"
     inkscape:connector-curvature="0"
     style="fill:#1648ae"
     sodipodi:nodetypes="cccccccc" />
  <path
     d="m 309.49,667.33 c 1.36,7.47 6.21259,16.62336 6.79259,24.14336 1.24,13.28 3.39916,18.21238 4.41916,31.51238 -3.59,12.63 -13.06175,31.79426 -17.50175,44.14426 -1.13,3.23 -2.46,6.41 -4.3,9.31 -0.17,-5.18 0.8,-10.29 0.79,-15.45 1.18,-10.28 0.66,-20.65 0.98,-30.98 -0.25,-12.4 1.77,-24.68 3.21,-36.96 1.95,-8.55 3.05,-17.31 5.61,-25.72 z"
     id="path98"
     inkscape:connector-curvature="0"
     style="fill:#6e67be"
     sodipodi:nodetypes="ccccccccc" />
  <path
     d="m 356.81091,439.42636 c 1.53,4.25 3.68637,8.63636 5.55637,12.75636 -5.06,8.89 -10.86728,18.88728 -14.87728,28.30728 -10.27,24.73 -16,51.02 -20.86,77.25 -1.63,11.07 -4.1,22.07 -4.41,33.29 -0.94,12.95 -0.6,25.96 -1.04,38.94 -0.66,10.7 0.29,21.39 0.18,32.1 0.77,12.27 -1.01,24.82 2.32,36.82 11.54952,-28.81105 25.81558,-59.31852 32.8258,-81.02825 10.4869,-23.89263 14.39086,-50.11662 15.9642,-73.82175 0.58,-19.4 1.11,-38.87 4.2,-58.07 0.27,-1.05 0.6,-2.08 0.98,-3.08 3.27,4.44 6.08,9.2 9.16,13.77 -1.44,14.07 -1.28,28.23 -2.21,42.33 -0.45,17.15 -1.34,34.44 -5.43,51.18 -13.91482,45.69799 -31.18157,77.56221 -47.79,115.4 -3.62,8.92 -7.6,17.68 -11.11,26.64 -0.86,2.18 -1.98,4.24 -3.21,6.24 -0.71,-2.92 -1.39,-5.85 -1.83,-8.82 -1.02,-13.3 -3.57,-26.44 -4.81,-39.72 -0.58,-7.52 0.43,-15.11 -0.93,-22.58 0.65,-7.1 -0.17,-14.21 -0.01,-21.32 0.09,-13.02 0.05,-26.04 0.37,-39.05 1.39,-17.66 1.47,-35.51 5.01,-52.92 1.33,-7.83 3.56,-15.46 5.26,-23.2 2.6,-10.61 4.78,-21.35 8.23,-31.72 2.26,-5.73 3.87,-11.69 6.33,-17.34 5.58,-14.48 14.98091,-28.65364 22.13091,-42.35364 z"
     id="path48"
     inkscape:connector-curvature="0"
     style="fill:#6941c5"
     sodipodi:nodetypes="cccccccccccccccccccccccccccc" />
  <path
     d="m 349.11,393.98 c -0.76,-21.56 4.9,-42.96 13.95,-62.41 17.53,1.76 30.83,14.73 42.79,26.47 2.79,2.8 5.34,5.84 8.03,8.74 3.47,4.25 6.61,8.79 9.32,13.57 1.46,2.48 2.95,4.96 4.1,7.62 0.01,1.45 -0.01,2.91 -0.05,4.37 -4.41,-2.44 -6.54,-7.2 -9.79,-10.82 -6.34,-6.97 -11.93,-14.67 -19.17,-20.78 -8.7,-8.09 -18.3,-16.35 -30.22,-18.91 -1.04,2.03 -2.1,4.07 -2.85,6.23 -4.97,14.75 -8.08,30.29 -7.54,45.92 -0.71867,32.08987 12.8343,64.04991 26.27,89.04 2.83,6.14 6.51,11.85 9.16,18.07 -2.26,-1.25 -4.46,-2.62 -6.3,-4.43 -3.08,-4.57 -5.89,-9.33 -9.16,-13.77 -6.22,-9.45 -11.66,-19.4 -16.25,-29.74 -1.87,-4.12 -3.75,-8.23 -5.28,-12.48 -5.97,-14.77 -7.29,-30.9 -7.01,-46.69 z"
     id="path26"
     inkscape:connector-curvature="0"
     style="fill:#051e3b"
     sodipodi:nodetypes="ccccccccccccccccccc" />
  <path
     d="m 371.65,389.99 c 0.52,-6.35 2.91,-12.29 4.91,-18.27 -0.04,3.16 -0.13,6.33 -0.45,9.48 -2.34,18.4 3.49878,39.53274 10.42794,57.07671 -2.2,-1.05 -5.07397,-1.46603 -7.13397,-2.75603 C 373.14153,418.19173 370.37992,404.53152 371.65,389.99 z"
     id="path30"
     inkscape:connector-curvature="0"
     style="fill:#061b42"
     sodipodi:nodetypes="cccccc" />
  <path
     d="m 424.18,499.33 c 7.03,-3.23 13.11,-8.09 18.89,-13.15 0.49,0.11 9.4622,-11.57059 22.64447,-7.73762 0.59,1.53 -19.56447,11.26762 -18.98447,12.81762 -3.41,3.75 -8.26,5.56 -12.74,7.66 -7.84,3.63 -16.49,5.05 -25.05,5.5 5.11,-1.59 10.44,-2.62 15.24,-5.09 z"
     id="path72"
     inkscape:connector-curvature="0"
     style="fill:#000528"
     sodipodi:nodetypes="ccccccc" />
  <path
     d="m 396.91,488.67 c 15.99,0.3 32.98107,-8.25252 44.99107,-18.43252 0.61,2.67 3.08793,4.80374 2.75793,7.58374 -9.7,6.06 -23.999,12.26878 -35.599,11.93878 -4.06,-0.12 -8.26,0.31 -12.15,-1.09 z"
     id="path62"
     inkscape:connector-curvature="0"
     style="fill:#010622"
     sodipodi:nodetypes="ccccc" />
  <path
     d="m 430.55,462.53 c 2.98,-1.4 4.13435,-1.5858 10.57878,-5.27939 0.14,3.01 0.49312,6.31313 0.52312,9.32313 -10.17,3.59 -22.8819,6.37626 -33.6619,6.84626 -8.55,0.34 -16.93,-1.75 -25.07,-4.13 6.01,0.49 11.96,1.67 18.02,1.25 10.35,-0.17 19.4229,-3.48 29.61,-8.01 z"
     id="path52"
     inkscape:connector-curvature="0"
     style="fill:#010521"
     sodipodi:nodetypes="ccccccc" />
  <path
     d="m 461.8,416.79 c 8.22,-3.56 18.77794,-5.78961 27.55794,-4.98961 12.68,1.3 28.69213,4.44541 40.00213,10.51541 -4.42,2 -13.77007,5.5542 -17.73007,8.4242 -6.81,4.9 -11.81,11.91 -15.39,19.42 -10.28,21.14 -11.9,45.73 -6.9,68.52 1.58,7.28 45.16563,23.84187 39.75193,28.37823 -5.09,-0.5 -20.7582,0.01 -46.16193,-13.07823 -21.74927,-14.028 -28.36748,-27.98671 -36.2,-42.72 -7.32686,-16.90205 -8.8315,-41.68059 -4.58,-51.03 3.3,-10.2 6.9518,-18.17818 19.65,-23.44 z"
     id="path36"
     style="fill:#e6e6e6"
     inkscape:connector-curvature="0"
     sodipodi:nodetypes="ccccccccccc" />
  <path
     style="fill:url(#linearGradient3096);fill-opacity:1"
     d="M 655.84375 530.34375 C 649.58593 532.11093 644.72552 534.60573 639.53125 538.4375 C 631.01875 544.5625 624.7875 553.3 620.3125 562.6875 C 607.4625 589.1125 605.4375 619.85625 611.6875 648.34375 C 613.6625 657.44375 617.0625 667.33125 621.5625 675.53125 C 629.09393 678.29375 633.38915 680.55715 652.53125 684.15625 C 647.32935 678.67859 639.40625 675.66875 639.46875 674.34375 C 633.79375 666.61875 629.9875 657.725 627.5 648.5 C 625.9 640.7 624.46875 632.8375 624.03125 624.875 C 626.27141 615.97959 627.15625 615.525 626.71875 612.4375 C 624.39375 603.2625 627.81875 602.8125 629.78125 593.75 C 632.86875 581.525 632.44375 578.7 639.71875 568.3125 C 642.61875 564.6125 642.26875 554.525 646.65625 552.5625 C 649.24375 551.325 648.49375 580.5875 650.96875 581.375 C 655.43125 588.6375 657.175 561.975 656.875 570.0625 C 658.1625 564.3875 658.01875 558.575 658.09375 552.8125 C 665.40625 549.2 674.0375 550.75 681.8125 551.8125 C 679.6375 547.5125 675.44375 544.975 671.90625 541.9375 C 666.74375 537.8125 661.40625 533.89375 655.84375 530.34375 z "
     transform="scale(0.8,0.8)"
     id="path44" />
  <path
     d="m 573.66,509.27 c 1.82,-16.06 -7.94367,-29.4518 -9.54274,-50.08365 2.24,3.74 4.36182,2.07088 9.43183,13.80729 5.48038,15.26688 4.01456,10.24001 5.78091,20.57636 0.04,2.1 0.11,4.2 0.1,6.31 -1.25,3.5 -3.59,6.44 -5.77,9.39 z"
     id="path54"
     inkscape:connector-curvature="0"
     style="fill:#0e7384"
     sodipodi:nodetypes="cccccc" />
  <path
     d="m 506.25,813.46 c 4.17,6.31 6.78,13.45 9.92,20.29 1.9,4.64 4.39,9.03 5.88,13.84 5.0693,6.11832 -3.17909,14.34168 -7.60909,20.92168 l -9.82014,6.05594 c -5.85091,1.13027 -5.94839,-66.13628 1.62923,-61.10762 z"
     id="path112"
     inkscape:connector-curvature="0"
     style="fill:#6e64d0"
     sodipodi:nodetypes="cccccc" />
  <path
     d="m 638.5,555.26 c 12.63267,6.55113 38.26859,-2.31816 36.6691,3.16999 -0.44,2.45 -2.2691,7.51001 -2.8391,9.93001 -10.18,4.24 -22.14,2.71 -31.78,-2.29 -1.01,-3.54 -1.52,-7.18 -2.05,-10.81 z"
     id="path86"
     style="fill:#f2f2f2"
     inkscape:connector-curvature="0"
     sodipodi:nodetypes="ccccc" />
  <path
     d="m 640.38891,568.9979 c 12.63267,6.55113 38.26859,-2.31816 36.6691,3.16999 -0.44,2.45 -2.2691,7.51001 -2.8391,9.93001 -10.18,4.24 -22.14,2.71 -31.78,-2.29 -1.01,-3.54 -1.52,-7.18 -2.05,-10.81 z"
     id="path86-5"
     style="fill:#f2f2f2"
     inkscape:connector-curvature="0"
     sodipodi:nodetypes="ccccc" />
  <path
     d="m 674.99638,557.33998 c 4.26,-0.79 5.25362,1.45002 9.33362,-0.07 -3.19,7.33 -6.2,14.79 -8.56,22.44 -2.54,0.81 -2.95039,3.6619 -5.60039,3.9819 0.2,-1.93 0.39054,-2.42176 1.39222,-9.60809 -11.50339,4.2141 -15.44839,3.56678 -29.03625,-0.61885 -2.35,-2.87 -0.83558,-3.87496 -1.97558,-7.39496 9.64,5 21.6,6.53 31.78,2.29 0.57,-2.42 1.19,-4.82 1.63,-7.27 0.32819,-2.82547 0.88095,-3.82638 0.31092,-4.02638 z"
     id="path88"
     inkscape:connector-curvature="0"
     style="fill:#91b6cc"
     sodipodi:nodetypes="ccccccccccc" />
  <path
     d="m 674.36999,463.78543 c 2.24,-2.4 6.89001,-0.47543 9.36001,-2.63543 2.99,7.12 4.11,14.84 5.97,22.31 2.53,0.16 5.19,-0.13 7.6,0.82 2.47,1.02 2.88,3.91 3.56,6.18 4.4,17.27 5.53,35.7 1.33,53.12 -0.74,2.49 -1.09,5.46 -3.35,7.09 -4.3,3.24 -9.74,4.25 -14.51,6.6 -4.08,1.52 -8.39,2.24 -12.65,3.03 -11.29,1.47 -22.83,-0.35 -33.18,-5.04 0.53,3.63 1.04,7.27 2.05,10.81 1.14,3.52 2.85,6.87 5.2,9.74 5.45,6.22 14.56,7.16 22.27,5.83 2.65,-0.32 5.21,-1.12 7.75,-1.93 4.06,-0.56 8.17,-0.36 12.26,-0.27 -1.97,4.83 -5.42,8.79 -8.66,12.8 -6.11,7.08 -13,13.44 -20.14,19.46 -14.92,0.15 -29.95,-1.2 -44.76,1.17 -9.86,0.92 -19.43,3.57 -28.91,6.33 -9.5,3.15 -18.44,7.73 -27.28,12.37 -4.04,2.1 -8.7,3.25 -11.96,6.61 -12.38,11.78 -24.33,24.41 -32.66,39.45 -9.78,16.13 -16.49,34.44 -17.58,53.37 -0.12425,31.50571 6.95421,56.50134 10.17,82.46 0.63,17.64 1.9,35.27 2.67,52.9 -3.4,2.54 -6.87,5 -10.51,7.18 -1.28,-5.43 -0.55,-11.01 -0.69,-16.52 -0.14,-9.68 0.12,-19.4 -1.06,-29.03 -2.55962,-34.58789 -11.34322,-62.55904 -11.32,-93.95 -0.11,-12.58 3.17,-24.88 7.13,-36.72 4.86,-11.3 9.74,-22.78 17.24,-32.63 5.71,-8.64 12.36,-16.59 19.37,-24.18 -9.06,-0.24 -18.2,0.4 -27.16,-1.3 -12.04,-2.34 -24.1,-5.39 -35.07,-10.98 14.41,1.2 28.66,4.83 43.23,4.12 17.59,-0.96 35.46,-4.47 50.89,-13.32 23.82,-12.8 51.07,-18.18 77.99,-17.74 5.63,-0.21 11.32,0.58 16.93,-0.12 4.9,-3.18 8.9,-7.65 12.36,-12.33 -6.08,-0.39 -12.54,0.87 -18.25,-1.8 -5.88,-2.77 -10.85,-7.48 -13.76,-13.32 -4.43,-8.92 -4.7,-19.23 -4.73,-29 6.66,1.94 12.66,5.59 19.34,7.49 6.7,2.22 13.88,1.84 20.83,1.41 6.5,-1.13 12.83,-3.31 18.79,-6.16 2.66,-8.21 4.14,-16.84 4.02,-25.48 -0.09,-6.01 0.09,-12.14 -1.71,-17.95 -1.72,1.58 -3.02,4.48 -5.74,4.27 -3.85,0.18 -6,-3.37 -8.07,-6.01 3.47,0.47 7.63,2.03 10.44,-0.94 2.27,-1.44 2.81,-4.17 1.87,-6.59 -3.09,-1.12 -6.44,-0.92 -9.65,-1.37 -8.04,-0.84 -15.66,-3.77 -23.02,-6.95 -2.08,-0.8 -3.72,-2.3 -5.25,-3.85 3.19471,-12.17649 8.64106,-11.59864 13.10539,-13.72916 -0.67,-4.95 9.0746,-0.23541 7.9046,-5.07541 z"
     id="path56"
     inkscape:connector-curvature="0"
     style="fill:#051c3f"
     sodipodi:nodetypes="cccccccccccccccccccccccccccccccccccccccccccccccccccccccc" />
  <path
     d="m 672.36908,467.53452 c 0.05,-1.94 3.04092,1.93548 4.28092,0.46548 1.17,4.84 2.48,9.66 3.15,14.61 -0.73,-0.01 -2.18,-0.02 -2.9,-0.03 -0.17787,-0.93973 -0.65436,-2.35166 -1.02041,-4.01428 -1.52463,-6.92492 -2.74364,-8.8924 -3.51051,-11.0312 z"
     id="path58"
     inkscape:connector-curvature="0"
     style="fill:#2b3a6f"
     sodipodi:nodetypes="ccccsc" />
  <path
     d="m 663.72,477.15 c 2.11,-1.5 4.37,-2.78 6.61,-4.07 0.35,1.61 1.70153,2.84137 2.10153,4.45137 0.24633,0.77329 0.17633,3.97014 -0.0537,4.67014 -2.45347,-0.34049 -3.81512,-0.45514 -8.23332,-1.97515 C 658.41634,477.30908 663.96,478.33 663.72,477.15 z"
     id="path66"
     inkscape:connector-curvature="0"
     style="fill:#020329"
     sodipodi:nodetypes="cccccc" />
  <path
     d="m 673.46229,470.55374 c 2.12408,3.9993 2.73052,8.30062 3.43771,12.02626 -0.63942,-0.0215 -0.81169,-0.0429 -1.5902,-0.0905 -0.6,-3.67 -2.23392,-7.37392 -2.69392,-11.06392 z"
     id="path60"
     style="fill:#f2f2f2"
     inkscape:connector-curvature="0"
     sodipodi:nodetypes="ccccc" />
  <path
     d="m 670.12273,473.08 c 0.69,-0.41 1.87643,-1.22 2.56643,-1.63 1.73023,3.69 1.799,6.25908 2.74099,11.05274 -1.05022,-0.0867 -1.84896,-0.17128 -3.04534,-0.30938 -0.33102,-2.92973 -0.85003,-5.20248 -2.26208,-9.11336 z"
     id="path64"
     inkscape:connector-curvature="0"
     style="fill:#0e7384"
     sodipodi:nodetypes="ccccc" />
  <path
     d="m 661.12,479.25 c 0.52,-0.23 1.55,-0.69 2.07,-0.91 -0.52,0.22 -1.55,0.68 -2.07,0.91 z"
     id="path68"
     inkscape:connector-curvature="0"
     style="fill:#8777d1"
     sodipodi:nodetypes="ccc" />
  <path
     d="m 579.43,499.88 c 0.01,-2.11 -0.06,-4.21 -0.1,-6.31 6.1,16.65 8.51,34.38 10.35,51.94 -7.03,2.24 -14.38,3 -21.68,3.74 2.41,-6.57 5.6,-12.85 7.63,-19.56 2.51,-9.72 4.07,-19.75 3.8,-29.81 z"
     id="path74"
     style="fill:#f2f2f2"
     inkscape:connector-curvature="0"
     sodipodi:nodetypes="cccccc" />
  <path
     d="m 570.33787,512.39671 c 2.18,-2.95 7.84213,-9.01671 9.09213,-12.51671 0.27,10.06 -1.29,20.09 -3.8,29.81 -2.26,-0.32 -8.25409,-1.33437 -10.40409,-2.07437 2.31,-6.02 4.72196,-8.73892 5.11196,-15.21892 z"
     id="path76"
     inkscape:connector-curvature="0"
     style="fill:#178b8f"
     sodipodi:nodetypes="ccccc" />
  <path
     d="m 641.01,501.01 c 2.52,2.12 4.63,4.79 7.54,6.4 4.02,1.81 8.67,0.98 12.42,-1.1 -1.46,3.82 -3.95,9.21 -8.93,8.35 -6.51,-1.21 -8.98,-8.2 -11.03,-13.65 z"
     id="path78"
     inkscape:connector-curvature="0"
     style="fill:#041b44"
     sodipodi:nodetypes="ccccc" />
  <path
     d="m 557.22787,540.02787 c 3.53,-4.66 6.06916,-7.45497 8.06916,-12.96497 2.15,0.74 8.07297,2.3071 10.33297,2.6271 -2.03,6.71 -5.22,12.99 -7.63,19.56 -0.69,0.06 -2.08,0.18 -2.77,0.23 -1.57,-2.03 -6.45213,-7.40213 -8.00213,-9.45213 z"
     id="path82"
     inkscape:connector-curvature="0"
     style="fill:#5ecebe"
     sodipodi:nodetypes="cccccc" />
  <path
     d="m 404.11,388.09 c 9.3,11.21 18.83,22.7 31.41,30.39 1.42,0.75 3.31,1.93 4.88,0.95 1.67,-2.11 2.74,-4.61 4.32,-6.78 3.29,-4.6 7.91,-7.99 12.18,-11.63 6.8,0.55 17.52547,-0.18547 24.24547,0.90453 15.2,2.66 34.85366,1.11181 41.83453,7.67547 5.21,4.36 11.33,7.47 16.41,12.01 12.55,11.38 23.93,24.52 30.96,40.07 2.56,5.51 3.69,11.51 5.41,17.3 -1,-1.92 -2.01,-3.82 -3.04,-5.71 -2.03,-3.86 -4.29,-7.58 -6.53,-11.32 6.85,14.69 8.89916,36.73175 6.68832,50.05587 -3.35893,21.52162 -8.27491,27.30877 -18.07832,37.43413 -23.3083,-0.10102 -27.83392,-1.08003 -34.61273,-2.32272 C 508.35901,542.34206 504.40123,527.50251 502,518.79 c -1.28,-6.24 -2.43,-12.52 -2.78,-18.89 3.21245,-13.62563 5.93451,-14.5793 9.40451,-19.3493 6.39,-10.11 11.0271,-12.94612 12.9671,-24.69612 -0.74792,-8.07095 1.39855,-11.63274 4.87839,-13.60458 6.40273,-4.54819 13.85546,-2.75546 18.97,-0.8 -17.63898,-19.67686 -34.75771,-24.57002 -57.45,-27.5 -8.78,-0.8 -17.97,-0.72 -26.19,2.84 -9.52,4.64 -15.55444,13.8144 -20.30535,24.77441 -1.29636,0.9309 -3.05919,1.24923 -5.75465,2.27559 -4.85,1.57 -9.62,3.52 -14.7,4.16 -13.07,2.24 -27.04,-0.44 -38,-8.01 -5.62,-3.61 -9.62,-9.12 -13.13,-14.69 2.91,2.18 5.78,4.4 8.81,6.41 2.06,1.29 4.25,2.39 6.45,3.44 4.1,1.98 8.37,3.87 12.96,4.29 7.73,0.57 15.82,0.82 22.97,-2.67 -3.37,-3.02 -7.44,-5.08 -10.87,-8 -9.72,-8.16 -17.39,-18.55 -23.21,-29.78 5.27,7.26 11.24,14.07 18.18,19.78 8.77,6.7 19.15,12.54 30.57,11.8 0.21,-0.28 0.62,-0.83 0.83,-1.11 -14.38,-10.44 -25.56,-25.05 -32.49,-41.37 z"
     id="path34"
     inkscape:connector-curvature="0"
     style="fill:#040318"
     sodipodi:nodetypes="cccccccccccccccccccccccccccccccccccccc" />
  <path
     d="m 517.20248,438.46321 c 19.94724,1.07116 -0.33201,74.37353 -17.98248,61.43679 -11.48586,-14.3915 2.79801,-60.5708 17.98248,-61.43679 z"
     id="path46"
     inkscape:connector-curvature="0"
     style="fill:#c8d5e1"
     sodipodi:nodetypes="ccc" />
  <path
     d="m 711.89,584.59 c 4.39,-0.6 9.09,-1.64 13.33,0.19 3.97,1.74 7.3,4.6 10.61,7.35 6.69,5.98 12.8,12.58 18.42,19.57 9.02,10.42 17.48,21.32 25.65,32.42 9.19,12.54 16.25,26.71 20.25,41.76 2.77925,14.2821 4.63141,42.26237 -10.03,53.24 -7.22,5.05 -14.19,10.44 -21.07,15.94 -1.76,1.51 -3.88,2.52 -6.22,2.59 -2.48,-1.96 -5.09,-3.75 -7.71,-5.49 1.65,-1.72 3.2,-3.52 4.83,-5.25 -0.96,-11.19 -8.06,-20.48 -15.55,-28.32 -8.82,-9.27 -18.49,-18.09 -30.04,-23.83 -3.32,-1.58 -7.08,-3.32 -10.81,-2.16 -3.46,4.33 -2.96,10.26 -2.31,15.42 0.4,5.61 3.02,10.68 4.63,15.99 -7.2,-1.58 -15.14,-4 -19.24,-10.66 -5.77,-9.76 -6,-21.53 -6.22,-32.54 -6.13,4.01 -11.29,9.43 -18.03,12.51 -12.64,7.3 -13.51605,30.56653 -28.04605,31.47653 -2.48,0.14 -18.41395,-18.89653 -20.85395,-18.50653 -1.17392,-1.13678 -0.59135,-3.51779 0.21,-4.61 15.39,-19.35 30.27,-39.1 45.2,-58.81 8.55,-11.11 17.33,-22.04 25.68,-33.29 5.17,-5.96 9.13,-12.8 13.94,-19.03 3.07,-4.22 8.58,-5.12 13.38,-5.96 z"
     id="path92"
     inkscape:connector-curvature="0"
     style="fill:#656bb4"
     sodipodi:nodetypes="cccccccccccccccccccccccccc" />
  <path
     d="m 705,597.99 c 5.01,-2.6 11.78,-4.57 16.63,-0.56 10.62,8.68 19.16,19.52 28.03,29.9 9.62,12.5 20.1,24.51 27.54,38.52 4.11,6.88 6.68,14.5 8.89,22.16 2.49,7.38 2.43,15.28 2.41,22.98 0.05,4.82 -1.35,9.48 -2.68,14.07 -0.89,2.93 -2.31,6.08 -5.26,7.42 -4.17,1.97 -7.75,5.12 -12.22,6.46 -2.77,-5.04 -4.78,-10.49 -8.19,-15.15 -8.31,-11.82 -18.94,-21.93 -30.72,-30.26 -7.54,-4.91 -16.06,-9.81 -25.41,-8.68 -4.24,1.17 -8.52,3.86 -10.08,8.16 -1.51,3.54 -2.2,7.34 -3.25,11.03 -3.08,-5.95 -3.89,-12.66 -5.45,-19.09 -1.52,-6.64 -1.82,-13.49 -3.5,-20.09 -3.83,3.47 -7.06,7.54 -11.02,10.88 -9.21,7.94 -20.16,14.08 -32.01,17 -1.76,0.5 -3.59,1.18 -5.42,0.61 7.66,-10.96 16.16,-21.3 23.92,-32.18 13.08,-16.64 25.39,-33.86 38.47,-50.5 3.19,-4.15 5.4,-9.15 9.32,-12.68 z"
     id="path94"
     inkscape:connector-curvature="0"
     style="fill:#818cbb"
     sodipodi:nodetypes="cccccccccccccccccccccc" />
  <path
     d="m 706.48,617.3 c 0.21,-3.08 1.61,-5.88 3.24,-8.44 0.55,3.68 0.82,7.4 1.19,11.1 1.75,13.86 8.47,26.31 14.52,38.67 5.9,8.89 13.18,16.78 19.89,25.05 5.31,6.93 11.95,12.67 17.97,18.95 3.16,3.43 7.39,5.75 10.07,9.62 -4.2,-1.16 -7.53,-4.09 -11.03,-6.53 -20.79,-14.84 -39.44,-34.09 -49.12,-58.09 -4.09,-9.53 -7.69,-19.81 -6.73,-30.33 z"
     id="path96"
     inkscape:connector-curvature="0"
     style="fill:#656bb4"
     sodipodi:nodetypes="cccccccccc" />
  <path
     d="m 662.38,693.32 c 6.74,-3.08 11.9,-8.5 18.03,-12.51 0.22,11.01 0.45,22.78 6.22,32.54 4.1,6.66 12.04,9.08 19.24,10.66 -1.61,-5.31 -4.23,-10.38 -4.63,-15.99 -0.65,-5.16 -1.15,-11.09 2.31,-15.42 3.73,-1.16 7.49,0.58 10.81,2.16 11.55,5.74 21.22,14.56 30.04,23.83 7.49,7.84 14.59,17.13 15.55,28.32 -1.63,1.73 1.79457,4.63546 0.14457,6.35546 -6.38,4.13 -16.54457,13.03638 -22.31457,17.90638 -8.78,7.54 -17.56,17.30092 -26.28,24.91092 -8.75,8.65 -20.35819,17.60819 -29.32819,26.01819 -14.38,12.94 -26.39635,21.00816 -40.55635,34.20816 -10.33,8.67 -22.67092,19.80092 -33.08092,28.41092 -7.58,6.76 -16.32273,12.8 -23.83273,19.65 -5.85,4.98 -10.04181,3.87997 -16.07181,8.62997 l -61.70671,0.39084 c 0.84,-10.74 -0.5642,-21.90084 -1.2042,-32.67084 3.62,-2.18 10.27091,-14.49095 12.36091,-17.94095 6.18,-9.58 8.93362,-15.36089 14.75362,-25.15089 13.7,-21.8 25.91908,-38.69816 39.97908,-60.25816 4.37,-6.31 10.52819,-16.39911 14.56819,-22.93911 8.74,-12.91 13.26816,-19.58997 22.15816,-32.39997 4.29058,-4.36359 8.83034,-7.31837 11.01782,-15.79924 C 629.22429,703.75832 649.74,700.62 662.38,693.32 z"
     id="path100"
     inkscape:connector-curvature="0"
     style="fill:#22356c"
     sodipodi:nodetypes="cccccccccccccccccccccccccc" />
  <path
     d="m 613.48,706.29 c 4.55496,0.13302 6.08359,-0.49365 13.44,-1.58336 -2.41,4.91 -3.67039,5.87787 -9.09,15.11336 -8.89,12.81 -17.84,25.57 -26.58,38.48 -4.04,6.54 -8.54,12.76 -12.91,19.07 -14.06,21.56 -28.49,42.88 -42.19,64.68 -5.82,9.79 -11.89,19.44 -18.07,29.02 -2.09,3.45 -3.66,7.47 -7.28,9.65 -0.39,-4.33 -0.12,-8.79 -1.44,-12.99 4.43,-6.58 8.77,-13.24 12.69,-20.14 3.34,-6.32 7.07,-12.42 10.97,-18.41 11.09,-19.02 22.77,-37.7 35.48,-55.69 6.05,-10.35 12.99,-20.14 19.83,-29.98 7.74,-11.66 15.96,-23.02 23.75,-34.63 0.47,-0.87 0.93,-1.73 1.4,-2.59 z"
     id="path104"
     inkscape:connector-curvature="0"
     style="fill:#051b3f"
     sodipodi:nodetypes="ccccccccccccccc" />
  <path
     d="m 331.38,705.57 c -0.5,5.57 -2.22,10.91 -3.52,16.33 -6.6,24.05 -13.35,48.33 -24.95,70.54 -0.46,-0.08 -3.3442,6.02342 -3.8042,5.94342 -3.26,-1.32 -7.25167,-2.36916 -10.55167,-3.57916 1.97,-4.27 8.09587,-14.26426 10.34587,-18.36426 1.84,-2.9 3.17,-6.08 4.3,-9.31 4.44,-12.35 8.44,-24.87 12.03,-37.5 0.44,2.97 1.12,5.9 1.83,8.82 1.23,-2 2.35,-4.06 3.21,-6.24 3.51,-8.96 7.49,-17.72 11.11,-26.64 z"
     id="path102"
     inkscape:connector-curvature="0"
     style="fill:#061b3e"
     sodipodi:nodetypes="ccccccccccc" />
  <path
     d="m 737.78,766.75 c 5.77,-4.87 10.96,-10.46 17.34,-14.59 2.62,1.74 5.23,3.53 7.71,5.49 -5.88,5.88 -12.53,10.91 -18.43,16.77 -28.88,24.44 -56.43,50.43 -85.94,74.12 -6,4.27 -11.18,9.52 -17.01,13.99 -11.34,8.94 -22.25,18.4 -33.44,27.54 -8.69,6.64 -16.87,13.92 -25.13,21.07 -0.68,0.61 -1.34,1.23 -1.99,1.86 l -12.26,0 c 6.03,-4.75 11.88,-9.73 17.73,-14.71 7.51,-6.85 15.7,-12.89 23.28,-19.65 10.41,-8.61 20.54,-17.53 30.87,-26.2 14.16,-13.2 28.94,-25.69 43.32,-38.63 8.97,-8.41 18.92,-15.71 27.67,-24.36 8.72,-7.61 17.5,-15.16 26.28,-22.7 z"
     id="path106"
     inkscape:connector-curvature="0"
     style="fill:#041c40"
     sodipodi:nodetypes="cccccccccccccccc" />
  <path
     d="m 283.54923,817.72986 c 5.5,5.41 12.78252,19.60014 17.69252,25.60014 13.56,14.8 21.69832,33.16 28.13832,52 2.51,5.73 4.93252,11.50916 7.31252,17.27916 L 192.82,913 c -0.79,-1.59 -1.39,-1.59 -1.79,0 l -0.13,0 c -5.03,-3.01 -35.56286,1.16007 -40.93286,-0.92993 5.08,-1.56 24.95104,-6.96175 30.02104,-8.54175 10.41,-3.9 23.9084,-10.50168 32.7784,-17.14168 22.85,-17.26 53.65265,-45.73678 70.78265,-68.65678 z"
     id="path116"
     inkscape:connector-curvature="0"
     style="fill:#2d3c7a"
     sodipodi:nodetypes="ccccccccccc" />
  <path
     d="m 294.30664,795.10658 c 14.2,5.41 33.6361,14.25068 45.1861,24.35068 5.97,6.04 11.44364,13.99819 16.57364,20.78819 6.28,8.32 16.75365,15.65636 24.08365,23.00636 8.83,8.03 22.66184,14.59454 33.55184,19.65454 13.31,6.96 25.32271,9.44272 40.30271,11.06272 13.86,1.41 14.41812,0.34455 26.96812,-5.56545 4.4,-2.08 18.74187,-7.42092 23.29187,-9.22092 0.45,9.43 1.50909,25.02003 -0.0109,34.37003 L 416.12,913 c -22.34069,0.94178 -57.94961,0 -78.02274,0 -10.23002,-24.86181 -17.4,-41.44267 -33.74181,-65.92905 -5.69,-6.94 -21.00727,-20.05927 -26.87727,-26.81927 11.9823,-6.12848 11.94355,-11.96955 16.82846,-25.1451 z"
     id="path110"
     inkscape:connector-curvature="0"
     style="fill:#060411"
     sodipodi:nodetypes="cccccccccccccc" />
  <path
     d="m 271.16,821.47 c 6.45,-11.08 13.76,-21.85 17.51,-34.24 0.65,0.23 1.96,0.7 2.62,0.93 3.3,1.21 6.51,2.65 9.77,3.97 11.05,5.12 22.78,9.05 32.88,16 12.92,8.62 21.41,21.95 31.55,33.39 13.87,14.64 29,28.86 47.65,37.14 6.97,3.21 14.41,5.25 21.84,7.11 8.81,2.18 17.95,1.73 26.92,1.15 5.81,-0.9 11.53,-2.36 17.15,-4.09 6.92,-2.01 13.07,-5.88 19.36,-9.29 3.64,-2.18 7.11,-4.64 10.51,-7.18 l 0.44,1.37 c 1.32,4.2 1.05,8.66 1.44,12.99 0.64,10.77 0.09,21.54 -0.75,32.28 l -11.6,0 c 1.52,-9.35 1.29,-18.86 0.84,-28.29 -4.55,1.8 -8.39,4.93 -12.79,7.01 -12.55,5.91 -26.65,8.91 -40.51,7.5 -14.98,-1.62 -29.48,-6.59 -42.79,-13.55 -10.89,-5.06 -20.3,-12.73 -29.13,-20.76 -7.33,-7.35 -15.04,-14.41 -21.32,-22.73 -5.13,-6.79 -10.88,-13.09 -16.85,-19.13 -11.55,-10.1 -25.83,-16.28 -40.03,-21.69 -1.82,5.01 -4.5,9.63 -7.44,14.06 -0.6,1.16 -1.93,2.8 -0.79,4.05 5.87,6.76 12.96,12.37 18.65,19.31 18,21.17 28.21,47.7 35.4,74.22 l -10.86,0 c -2.38,-5.77 -3.63,-11.94 -6.14,-17.67 -6.44,-18.84 -15.36,-37.2 -28.92,-52 -4.91,-6 -11.02,-10.81 -16.52,-16.22 -2.49,-2.16 -5.24,-4 -8.09,-5.64 z"
     id="path108"
     inkscape:connector-curvature="0"
     style="fill:#6941c5"
     sodipodi:nodetypes="ccccccccccccccccccccccccccccccccc" />
  <path
     d="m 257.97,837.99 c 4.62,-5.3 9.86,-10.25 13.19,-16.52 2.85,1.64 5.6,3.48 8.09,5.64 -17.13,22.92 -37.38,43.58 -60.23,60.84 -8.87,6.64 -18.46,12.46 -28.87,16.36 -5.07,1.58 -10.48,1.51 -15.56,3.07 5.37,2.09 11.28,2.61 16.31,5.62 l -98.69,0 c 10.28,-6.52 22.79,-7.74 34.65,-8.7 5.03,-0.9 10.16,-0.09 15.21,-0.7 12.61,-2.67 25,-6.52 37.86,-7.85 8.28,-1.15 15.93,-4.67 23.01,-8.97 19.82,-14.5 38.39,-30.74 55.03,-48.79 z"
     id="path114"
     inkscape:connector-curvature="0"
     style="fill:#051b3e"
     sodipodi:nodetypes="ccccccccccccc" />
  <path
     d="m 396.98,902.33 c 10.26,-3.59 21.61,-1.72 31.35,2.6 -4.81,1.4 -8.88,4.4 -12.21,8.07 l -35.5,0 c 4.67,-4.59 10.01,-8.75 16.36,-10.67 z"
     id="path118"
     inkscape:connector-curvature="0"
     style="fill:#c9d5df"
     sodipodi:nodetypes="ccccc" />
  <path
     d="m 580.89,913 c 0.65,-0.63 1.31,-1.25 1.99,-1.86 12.47,2.55 25.45,-0.85 37.91,1.86 z"
     id="path120"
     inkscape:connector-curvature="0"
     style="fill:#254894"
     sodipodi:nodetypes="cccc" />
  <path
     d="m 191.03,913 c 0.4,-1.59 1,-1.59 1.79,0 z"
     id="path122"
     inkscape:connector-curvature="0"
     style="fill:#7e86a3"
     sodipodi:nodetypes="ccc" />
  <path
     d="m 486.17077,256.89329 c -0.23,-5.19 4.04091,-12.05084 8.63091,-15.71084 2.51,-0.48 14.82097,4.16755 10.53839,6.11755 6.56,7.38 11.45,16.01 17.07,24.09 5.12,7.19 10.20084,14.69 15.38084,21.84 3.22,4.17 2.83993,3.55909 8.54993,3.32909 2.61,0.21 8.43463,-23.60285 10.56463,-24.78285 0.04,2.29 0.38637,31.81194 0.35637,34.11194 -1.01,0.52 -0.9601,6.16815 -1.9701,6.66815 -17.65,0.78 -45.06181,6.00709 -62.01181,10.71709 -2.77,-18.96 -5.39916,-47.29013 -7.10916,-66.38013 z"
     id="path20"
     inkscape:connector-curvature="0"
     style="fill:#040216"
     sodipodi:nodetypes="ccccccccccc" />
  <path
     d="m 647.99559,432.57649 c -1.39328,-1.2219 -2.03019,2.61754 -3.42347,1.39564 1.19632,6.50241 -2.26469,7.90544 1.10953,30.5947 2.12066,-0.25839 7.44647,-11.06311 9.86225,-11.47468 0.66842,-8.73127 -10.39959,-8.86033 -7.54831,-20.51566 z"
     id="path64-3"
     inkscape:connector-curvature="0"
     style="fill:#0e7384"
     sodipodi:nodetypes="ccccc" />
  <path
     d="m 616.63903,106.36117 c -0.20115,59.22501 0.0917,112.72268 -0.46428,171.9627 0.15738,15.1328 -0.79538,30.27454 -0.0202,45.38571 -2.8582,-1.84837 -3.55003,1.27827 -6.60786,-0.19242 0.25795,-6.33864 0.93761,-11.62805 0.64112,-17.96718 -6.70265,-2.45204 -17.15815,-8.9201 -22.97631,-13.39611 -8.59519,-5.3058 -16.37063,-15.11645 -22.35675,-23.00147 -3.57353,9.5532 -5.96858,20.98945 -8.37347,30.86383 1.23253,1.71058 5.27915,3.73605 6.85984,5.16864 1.85256,0.96334 3.95257,1.33332 5.88625,2.13567 -26.14209,7.17875 -20.54767,3.85186 -18.87455,-10.29312 1.68037,-7.83999 3.81319,-15.59173 5.56298,-23.42282 2.30067,-7.88146 3.98663,-15.92236 6.04441,-23.87528 11.95909,-48.70481 24.07561,-97.37935 36.03596,-146.09408 4.94728,-17.705041 17.58673,-34.071818 18.6429,2.72593 z"
     id="path6"
     inkscape:connector-curvature="0"
     style="fill:#041d40"
     sodipodi:nodetypes="ccccccccccccccc" />
  <path
     d="m 596.04938,126.11065 c 14.19102,-36.79411 13.56128,-34.110419 14.09853,-22.77546 -0.0392,6.59855 3.81758,28.77931 3.21528,35.36618 -3.05734,-1.63193 -16.3582,-9.19165 -17.31381,-12.59072 z"
     id="path8"
     inkscape:connector-curvature="0"
     style="fill:#2b3e73"
     sodipodi:nodetypes="cccc" />
  <path
     d="m 595.09778,134.47026 c 2.89586,2.49844 15.12127,9.63273 18.13539,11.99509 0.18032,8.18938 -0.048,17.00183 -1.17981,25.12385 -4.35498,-1.81673 -19.27471,-8.61139 -23.21426,-13.23034 1.30016,-7.2334 3.62125,-16.99799 6.25868,-23.8886 z"
     id="path10"
     inkscape:connector-curvature="0"
     style="fill:#2b3e73"
     sodipodi:nodetypes="ccccc" />
  <path
     d="m 587.63577,166.0659 c 5.19477,3.51898 19.08375,9.45167 24.68263,12.25624 0.35452,8.01007 0.51303,17.75732 0.40365,25.76842 -7.86517,-4.3221 -26.71297,-14.52013 -28.96454,-19.18546 1.43797,-7.04354 1.74747,-9.9589 3.87826,-18.8392 z"
     id="path12"
     inkscape:connector-curvature="0"
     style="fill:#2b3e73"
     sodipodi:nodetypes="ccccc" />
  <path
     d="m 582.33416,191.95278 c 11.73928,10.48739 20.20221,13.73009 29.3804,19.53799 1.00768,12.33711 -0.89049,25.8143 -1.23956,36.74516 -12.67177,-3.07597 -28.934,-13.86351 -34.96219,-25.35314 2.233,-11.46909 4.1771,-22.44851 6.82135,-30.93001 z"
     id="path14"
     inkscape:connector-curvature="0"
     style="fill:#2b3e73"
     sodipodi:nodetypes="ccccc" />
  <path
     d="m 573.21691,231.63483 c 11.11047,11.84568 27.43368,19.77392 38.35987,24.07095 -0.91738,15.91506 -0.90509,23.1706 -2.06633,38.44006 -19.4654,-4.78729 -34.30413,-18.0729 -41.8134,-37.80228 1.68671,-8.28277 3.35222,-16.52793 5.51986,-24.70873 z"
     id="path16"
     inkscape:connector-curvature="0"
     style="fill:#2b3e73"
     sodipodi:nodetypes="ccccc" />
  <path
     d="m 556.01904,300.54804 c 2.40488,-9.87438 4.22828,-24.53619 7.80181,-34.08939 15.99625,21.1222 23.36037,26.16037 46.75694,34.51138 0.29648,6.33913 -0.14796,17.47894 -0.40591,23.81758 -7.23271,-3.90118 -18.78499,-6.84635 -26.72062,-8.88175 -4.92638,-1.28676 -10.03165,-0.4273 -14.84996,-2.16396 -1.93369,-0.80235 -11.69763,-3.63228 -13.55018,-4.59562 -1.5807,-1.43259 2.20045,-6.88766 0.96792,-8.59824 z"
     id="path22"
     inkscape:connector-curvature="0"
     style="fill:#2b3e73"
     sodipodi:nodetypes="cccccccc" />
  <path
     style="fill:none;stroke:#041d40;stroke-width:4.90189075;stroke-linecap:butt;stroke-linejoin:miter;stroke-miterlimit:4;stroke-opacity:1;stroke-dasharray:none"
     d="m 612.41686,94.957079 -2.55051,203.251981 -0.0917,7.30942 -0.0254,2.02322 -0.181,14.42422"
     id="path3135"
     inkscape:connector-curvature="0"
     sodipodi:nodetypes="ccccc" />
  <path
     d="m 486.28,239.28 c 5.45,-7.14 17.26,-5.76 22.28,1.16 10.64,13.85 19.42,29.02 29.87,43.01 1.5,2.54 3.16,5.04 5.76,6.6 3.91,-4.89 7.48,-10.03 11.11,-15.13 -0.74,7.99 -1.90184,17.51336 -2.57184,25.50336 -2.13,1.18 -4.16816,1.42664 -6.77816,1.21664 -5.71,0.23 -10.02,-4.24 -13.24,-8.41 -5.18,-7.15 -9.87,-14.65 -14.99,-21.84 -5.62,-8.08 -10.51,-16.71 -17.07,-24.09 -1.58,-1.95 -4.12,-3.08 -6.63,-2.6 -4.59,3.66 -3.78,10.13 -3.55,15.32 1.71,19.09 4.73,38.04 7.5,57 16.95,-4.71 34.2,-8.96 51.85,-9.74 13.31835,-0.82498 25.93962,-0.89849 38.17,0.57 12.30122,1.95283 23.09799,4.21645 33.43,9.11 22.89223,10.38742 45.23399,24.45642 59.61,39.96 4.86,4.3 7.45,10.5 12.15,14.95 3.87635,-4.66822 17.28911,8.91365 41.80193,27.96463 17.68429,14.16118 49.19165,32.83862 137.1422,67.88014 39.05158,15.86862 111.25645,64.92128 125.01589,126.99974 4.52008,17.1657 4.66818,49.06099 -4.78002,65.67549 -14.73165,28.89189 -39.80526,53.52069 -55.03,77.07 -4.33,6.64 -4.42,15.19 -2.27,22.62 4.2565,17.44764 9.31428,28.20467 25.69,42.12 33.82954,27.75881 47.5727,16.84149 74.81,47.31 7.5,9.32 14.3,19.31 19.54,30.1 3.36,8.05 7.36,15.82 10.44,23.98 1.27,3.05 2.86,6.04 3.1,9.41 l -10.34,0 c -4.65,-11.32 -19.8719,-50.82922 -42.4365,-67.31652 C 984.32423,824.38204 936.80551,821.94437 924.37,759.63 c -1.03,-8.68 -1.49,-18.25 3.31,-25.97 22.73363,-36.2843 56.99935,-66.17549 61.43273,-104.89092 0.7041,-49.3172 -19.17933,-73.75633 -48.02212,-101.6454 C 893.71348,478.03849 826.08057,469.17446 759.04,428 c -29.30515,-17.46993 -36.76259,-24.82584 -59.41,-41.49 4.63847,26.47135 6.21822,44.69177 -11.51091,71.3498 -11.25494,12.65583 -17.01992,17.49053 -30.61362,24.24453 -9.65,5.11 -24.75974,9.24452 -35.73974,9.53452 5.52969,-6.22374 10.22496,-8.84069 16.35061,-17.12549 8.47982,-10.35659 11.05188,-22.45865 6.71366,-34.27084 -3.85,-7.29 -9.83,-14.93252 -17.39,-18.41252 -1.06,-0.71 -2.07,-1.48 -3.09,-2.2 -9.23,-4.34 -19.34,-6.37 -29.33,-8.17 -24.37833,-1.9331 -49.33521,-1.94235 -72.04,-1.86 -28.84896,-1.45254 -42.51397,-2.99106 -66.08,-8.58 -9.35,-2.51 -19.36,-3.79 -27.47,-9.51 -1.01,-0.98 -1.51,-2.33 -2.13,-3.54 -1.15,-2.66 -2.64,-5.14 -4.1,-7.62 2.93,-1.44 5.81,1.01 8.58,1.83 40.5924,16.69627 85.36516,16.07968 125.27,16.52 9.65,0.18 19.32,-0.44 28.96,0.38 12.37,0.86 24.7,3.23 36.32,7.64 7.77,2.44 14.44,7.28 20.71,12.34 5.71,5.31 10.52,13.06252 12.54,20.70252 3.47739,10.7849 2.66671,22.05972 -5.51175,34.96923 19.10369,-8.56738 25.76083,-18.8662 32.02381,-28.84168 7.03965,-12.08863 9.07628,-19.18793 9.34794,-36.73755 0.33,-10.54 -4.09,-21.57252 -8.75,-30.76252 -3.3,-6.13 -7.24,-11.95 -11.84,-17.17 -11.52,-12 -25.84,-20.76 -40.27,-28.79 -9.88,-5.23 -20.6,-8.63 -31.31,-11.7 -16.46,-3.73 -33.47,-3.68 -50.26,-3.46 -4.06,0.07 -8.09,0.67 -12.08,1.34 -19.97,3.06 -39.76,8 -58.33,16.04 -23.87885,8.13355 -48.20117,19.09542 -64.72,32.13 -2.69,-2.9 -5.24,-5.94 -8.03,-8.74 11.04,-6.22 26.71007,-15.73671 38.46007,-20.57671 15.85,-7.76 27.23993,-12.05329 44.10993,-17.33329 -2.9,-18.66 -5.94,-37.34 -7.72,-56.15 -0.41,-4.65 -0.46,-9.33 -0.15,-13.98 0.22,-4.23 3,-7.72 5.73,-10.72 z"
     id="path18"
     inkscape:connector-curvature="0"
     style="fill:#6941c5"
     sodipodi:nodetypes="ccccccccccccccccccccccccccccccccccccccccccccccccccccccccccccccccccccccccc" />
  <path
     style="fill:none;stroke:#041d40;stroke-width:5.19999981;stroke-linecap:butt;stroke-linejoin:miter;stroke-miterlimit:4;stroke-opacity:1;stroke-dasharray:none"
     d="M 605.85572,94.674387 554.34571,306.4925"
     id="path3135-4"
     inkscape:connector-curvature="0"
     sodipodi:nodetypes="cc" />
  <path
     d="m 527.12,483.55 c 4.50132,4.0769 -2.23547,28.71225 -8.3,25.05 -3.6509,-2.94606 2.114,-27.69337 8.3,-25.05 z"
     id="path70"
     inkscape:connector-curvature="0"
     style="fill:#c9d5e0"
     sodipodi:nodetypes="ccc" />
  <path
     style="fill:none;stroke:#041d40;stroke-width:5.1728735;stroke-linecap:butt;stroke-linejoin:miter;stroke-miterlimit:4;stroke-opacity:1;stroke-dasharray:none"
     d="M 602.647,99.26787 550.32819,305.64136"
     id="path3135-4-3"
     inkscape:connector-curvature="0"
     sodipodi:nodetypes="cc" />
</svg>
