<?xml version="1.0" encoding="UTF-8" standalone="no"?>
<svg
   xmlns:dc="http://purl.org/dc/elements/1.1/"
   xmlns:cc="http://creativecommons.org/ns#"
   xmlns:rdf="http://www.w3.org/1999/02/22-rdf-syntax-ns#"
   xmlns:svg="http://www.w3.org/2000/svg"
   xmlns="http://www.w3.org/2000/svg"
   viewBox="0 0 256 256"
   width="256"
   height="256"
   id="svg2"
   version="1.1">
  <defs
     id="defs4">
    <rect
       x="-31.917041"
       y="-33.317633"
       width="165.75465"
       height="116.04506"
       id="rect954" />
    <rect
       x="-9.952925"
       y="-36.808158"
       width="76.522469"
       height="98.650768"
       id="rect937" />
    <rect
       x="7.9710083"
       y="810.14287"
       width="245.18665"
       height="203.94759"
       id="rect873" />
    <linearGradient
       id="linearGradient3869">
      <stop
         style="stop-color:#220004;stop-opacity:1;"
         offset="0"
         id="stop3871" />
      <stop
         style="stop-color:#e27ca8;stop-opacity:1;"
         offset="1"
         id="stop3873" />
    </linearGradient>
    <filter
       x="-0.25"
       width="1.5"
       y="-0.25"
       height="1.5"
       color-interpolation-filters="sRGB"
       id="filter3918">
      <feGaussianBlur
         stdDeviation="5"
         result="result1"
         id="feGaussianBlur3920" />
      <feTurbulence
         numOctaves="1"
         seed="0"
         type="fractalNoise"
         baseFrequency="0.1"
         result="result2"
         id="feTurbulence3922" />
      <feDisplacementMap
         scale="5"
         yChannelSelector="G"
         xChannelSelector="R"
         result="result3"
         in="result1"
         in2="result2"
         id="feDisplacementMap3924" />
      <feComposite
         operator="atop"
         in2="result3"
         id="feComposite3926" />
    </filter>
    <radialGradient
       id="radialGradient3117"
       gradientUnits="userSpaceOnUse"
       gradientTransform="matrix(1,0,0,0.94754723,0,803.19485)"
       cx="123.46834"
       cy="130.26325"
       fx="123.46834"
       fy="130.26325"
       r="112.11763" />
    <mask
       maskUnits="userSpaceOnUse"
       id="mask3113">
      <path
         id="path3115"
         d="m 97.142857,894.86218 c -10.583692,-21.80007 -3.984033,-59.44884 20.000003,-73.57143 19.06663,-5.51099 42.15817,47.04376 42.5,71.07143 5.12452,-6.76624 24.04966,-10.61312 53.92857,-12.14286 5.4976,-0.24081 6.26163,14.10083 10.71428,21.42857 4.45265,7.32774 12.81435,16.1077 10.35715,20.71429 -6.66649,20.08398 -28.20467,33.52359 -51.07143,30.71429 13.33217,14.95589 28.03055,29.2856 30.35714,49.28573 -2.11571,21.0671 -17.17936,29.9955 -42.14286,29.6428 -15.21937,-7.8945 -31.71484,-11.7214 -39.64285,-42.85711 -7.64244,22.60841 -22.71524,36.79571 -44.64286,43.21431 -8.645651,-0.6569 -15.520586,-3.7485 -20.357143,-9.6429 C 59.727954,1017.7958 56.218045,1010.9198 52.5,1004.1479 60.499807,984.98109 64.489172,962.94968 85,952.71932 51.374017,958.96703 26.498574,930.35337 22.142857,923.61218 c -4.355717,-6.7412 -0.276973,-11.66214 -10.292149,-29.69516 34.356697,-1.76087 68.875699,-4.14388 85.292149,0.94516 z"
         style="fill:url(#radialGradient3117);fill-opacity:1;stroke:#70394e;stroke-width:1px;stroke-linecap:butt;stroke-linejoin:miter;stroke-opacity:1;display:inline" />
    </mask>
    <radialGradient
       id="radialGradient3875"
       cx="123.46834"
       cy="130.26324"
       fx="123.46834"
       fy="130.26324"
       r="112.11763"
       gradientTransform="matrix(0.42947351,-0.09429508,0.08934904,0.40694643,67.394595,119.4364)"
       gradientUnits="userSpaceOnUse" />
  </defs>
  <metadata
     id="metadata7">
    <rdf:RDF>
      <cc:Work
         rdf:about="">
        <dc:format>image/svg+xml</dc:format>
        <dc:type
           rdf:resource="http://purl.org/dc/dcmitype/StillImage" />
        <dc:title></dc:title>
      </cc:Work>
    </rdf:RDF>
  </metadata>
  <g
     id="layer3"
     style="display:inline" />
  <g
     id="layer2"
     style="display:inline" />
  <g
     style="font-style:normal;font-weight:normal;font-size:85.3333px;line-height:1.25;font-family:sans-serif;letter-spacing:0px;word-spacing:0px;white-space:pre;shape-inside:url(#rect873);fill:#001564;fill-opacity:1;stroke:none"
     id="text871"
     transform="rotate(-32.904865,-1219.2818,522.43848)"
     aria-label="№74 2018">
    <path
       id="path877"
       style="font-style:normal;font-variant:normal;font-weight:bold;font-stretch:normal;font-size:85.3333px;font-family:monospace;-inkscape-font-specification:'monospace Bold';text-align:center;text-anchor:middle;fill:#001564;fill-opacity:1"
       d="m 89.710304,864.26756 q 0,-11.95833 7.374996,-11.95833 7.375,0 7.375,11.95833 0,11.95832 -7.375,11.95832 -7.374996,0 -7.374996,-11.95832 z m 8.624996,0 q 0,-5.33334 -1.25,-5.33334 -1.249999,0 -1.249999,5.33334 0,5.33333 1.249999,5.33333 1.25,0 1.25,-5.33333 z m -8.624996,13.45832 H 104.4603 v 7.91667 H 89.710304 Z M 58.460317,823.43424 h 12.374994 l 6.083331,41.45832 v -28.74999 q 0,-6.5 3.041666,-9.58333 3.083332,-3.125 11.916661,-3.125 v 9.125 q -3.624998,0 -4.291665,1.29166 -0.666666,1.29167 -0.666666,3.75 v 48.04165 H 74.626976 l -6.166664,-41.45832 v 28.74999 q 0,6.5 -3.083332,9.62499 -3.041665,3.08334 -11.874995,3.08334 v -9.125 q 3.624999,0 4.291665,-1.29167 0.666667,-1.29166 0.666667,-3.74999 z" />
    <path
       id="path879"
       style="font-style:normal;font-variant:normal;font-weight:bold;font-stretch:normal;font-size:85.3333px;font-family:monospace;-inkscape-font-specification:'monospace Bold';text-align:center;text-anchor:middle;fill:#001564;fill-opacity:1"
       d="m 110.50196,823.43424 h 39.33332 v 8.70833 l -21.08333,53.49998 h -12.54166 l 20.24999,-51.37498 h -25.95832 z" />
    <path
       id="path883"
       style="font-style:normal;font-variant:normal;font-weight:bold;font-stretch:normal;font-size:85.3333px;font-family:monospace;-inkscape-font-specification:'monospace Bold';text-align:center;text-anchor:middle;fill:#001564;fill-opacity:1"
       d="m 45.897822,981.47584 h 26.208322 v 10.83333 H 32.606161 v -10.49999 l 6.666664,-7.08333 q 11.874995,-12.625 14.41666,-15.54166 3.124999,-3.58334 4.499998,-6.33333 1.375,-2.79167 1.375,-5.5 0,-4.16667 -2.541666,-6.41667 -2.499999,-2.29166 -7.124997,-2.29166 -3.291665,0 -7.416663,1.33333 -4.083332,1.29167 -8.541664,3.79167 V 932.3092 q 4.458332,-1.625 8.70833,-2.45833 4.291665,-0.875 8.20833,-0.875 9.874996,0 15.499994,4.62499 5.666664,4.58334 5.666664,12.54167 0,3.66666 -1.25,6.87499 -1.208332,3.20833 -4.208331,7.125 -2.208333,2.83333 -12.124995,12.74999 -5.374998,5.375 -8.541663,8.58333 z" />
    <path
       d="m 188.25445,930.45289 h 39.33332 v 8.70833 l -21.08333,53.49998 h -12.54166 l 20.24999,-51.37498 h -25.95832 z"
       style="font-style:normal;font-variant:normal;font-weight:bold;font-stretch:normal;font-size:85.3333px;font-family:monospace;-inkscape-font-specification:'monospace Bold';text-align:center;text-anchor:middle;fill:#001564;fill-opacity:1"
       id="path855" />
  </g>
  <g
     transform="matrix(-2.537251,3.3053689,3.3053689,2.537251,151.79478,-796.72144)"
     id="g874">
    <path
       id="path4510"
       d="m 185.70995,148.8806 c -1.83172,-0.78941 -10.20079,-3.4662 -13.07403,-5.12354 l 0.80402,-1.60804 c -2.6928,-0.48341 -4.68414,-2.01902 -6.63317,-3.61809 l 0.80402,-1.00503 c -1.57174,-0.96503 -2.60275,-2.83126 -3.61809,-4.72362 l 1.10553,-0.40201 -1.60804,-4.2211 0.70352,0.40201 0.40201,-1.40704 3.81909,3.31659 0.80402,-0.80402 c 1.07203,1.67004 2.14405,3.36876 3.21608,5.22613 l 0.50252,-0.30151 c 0.68394,1.83243 2.20162,2.27152 3.81909,4.92462 l 0.90452,-0.90452 c 2.10618,2.85406 3.79093,6.13325 7.03518,7.8392"
       style="display:inline;fill:#005916;fill-opacity:1;fill-rule:evenodd;stroke:#00b540;stroke-width:0.5;stroke-linecap:butt;stroke-linejoin:miter;stroke-miterlimit:4;stroke-dasharray:none;stroke-opacity:1;enable-background:new" />
    <path
       style="display:inline;fill:#005916;fill-opacity:1;fill-rule:evenodd;stroke:#00b540;stroke-width:0.5;stroke-linecap:butt;stroke-linejoin:miter;stroke-miterlimit:4;stroke-dasharray:none;stroke-opacity:1;enable-background:new"
       d="m 164.65753,127.545 1.96479,3.93469 0.74221,-0.49497 c 1.07203,1.67004 1.835,4.17229 3.52513,5.72061 l 0.50252,-0.30151 c 0.68394,1.83243 3.12877,3.32229 4.74624,5.97539 l 0.90452,-0.90452 c 2.10618,2.85406 2.49292,3.84628 5.73717,5.55223"
       id="path4509" />
  </g>
  <path
     style="display:inline;fill:#ff45a3;fill-opacity:1;stroke:#70394e;stroke-width:0.439704px;stroke-linecap:butt;stroke-linejoin:miter;stroke-opacity:1"
     d="m 117.75865,149.64498 c -6.60106,-8.36455 -7.31677,-25.15603 1.65205,-33.48286 7.66895,-4.16472 22.54181,16.22873 24.95431,26.51575 1.56282,-3.38914 9.32793,-6.82582 22.01588,-10.30024 2.33836,-0.62186 4.01885,5.46549 6.62211,8.1927 2.60327,2.7272 7.0223,5.7095 6.40137,7.91961 -0.96925,9.25415 -8.95204,17.05705 -19.03761,18.00675 7.13607,5.16602 14.79987,9.93425 17.68498,18.30439 1.07789,9.24726 -4.54964,14.50222 -15.30406,16.70468 -7.28074,-1.95538 -14.72595,-2.0435 -21.06677,-14.66788 -1.15037,10.43037 -6.28594,17.94473 -15.09804,22.76899 -3.77502,0.53314 -7.01913,-0.14635 -9.65212,-2.22177 -3.64877,-1.41533 -5.80456,-4.03742 -8.03992,-6.59518 1.62838,-8.98598 1.26424,-18.82407 9.10843,-25.15181 -13.85234,5.85399 -27.233811,-4.08919 -29.740136,-6.57362 -2.506328,-2.48445 -1.218637,-4.98247 -7.220312,-11.78279 14.589248,-3.99592 29.189538,-8.27432 36.719838,-7.63672 z"
     id="path3867" />
  <g
     aria-label="0"
     id="text952"
     style="font-style:normal;font-weight:normal;font-size:85.3333px;line-height:1.25;font-family:sans-serif;letter-spacing:0px;word-spacing:0px;white-space:pre;shape-inside:url(#rect954);fill:#000000;fill-opacity:1;stroke:none"
     transform="rotate(-27.842808,129.0671,-257.59668)">
    <path
       d="m -11.417977,11.139955 q 0,-2.208332 1.4999991,-3.7083314 1.4999993,-1.4999994 3.6666651,-1.4999994 2.2083324,0 3.7083318,1.4999994 1.4999994,1.4999994 1.4999994,3.7083314 0,2.166666 -1.4999994,3.666666 -1.4999994,1.499999 -3.7083318,1.499999 -2.1666658,0 -3.6666651,-1.458333 -1.4999991,-1.499999 -1.4999991,-3.708332 z m 5.1666642,-21.87499 q -4.2499982,0 -6.2083312,5.2083307 -1.958332,5.20833116 -1.958332,16.6666593 0,11.416662 1.958332,16.624993 1.958333,5.208332 6.2083312,5.208332 4.2916649,0 6.2499974,-5.208332 1.9583325,-5.208331 1.9583325,-16.624993 0,-11.45832814 -1.9583325,-16.6666593 -1.9583325,-5.2083307 -6.2499974,-5.2083307 z m -20.5416582,21.87499 q 0,-16.1666595 5.124998,-24.208323 5.124998,-8.08333 15.4166602,-8.08333 10.333329,0 15.4583269,8.041664 5.1249979,8.0416628 5.1249979,24.249989 0,16.16666 -5.1249979,24.208324 -5.1249979,8.041663 -15.4583269,8.041663 -10.2916622,0 -15.4166602,-8.041663 -5.124998,-8.08333 -5.124998,-24.208324 z"
       style="font-style:normal;font-variant:normal;font-weight:bold;font-stretch:normal;font-family:monospace;-inkscape-font-specification:'monospace Bold';fill:#001564;fill-opacity:1"
       id="path960" />
  </g>
</svg>
