<?xml version="1.0" encoding="UTF-8" standalone="no"?>
<svg
   xmlns:dc="http://purl.org/dc/elements/1.1/"
   xmlns:cc="http://creativecommons.org/ns#"
   xmlns:rdf="http://www.w3.org/1999/02/22-rdf-syntax-ns#"
   xmlns:svg="http://www.w3.org/2000/svg"
   xmlns="http://www.w3.org/2000/svg"
   viewBox="0 0 256 256"
   width="256"
   height="256"
   id="svg2"
   version="1.1">
  <defs
     id="defs4">
    <rect
       id="rect860"
       height="324.73855"
       width="397.90823"
       y="-56.790016"
       x="-208.17876" />
    <rect
       x="-31.917041"
       y="-33.317633"
       width="165.75465"
       height="116.04506"
       id="rect954" />
    <rect
       x="-9.952925"
       y="-36.808158"
       width="76.522469"
       height="98.650768"
       id="rect937" />
    <rect
       x="7.9710083"
       y="810.14287"
       width="245.18665"
       height="203.94759"
       id="rect873" />
    <linearGradient
       id="linearGradient3869">
      <stop
         style="stop-color:#220004;stop-opacity:1;"
         offset="0"
         id="stop3871" />
      <stop
         style="stop-color:#e27ca8;stop-opacity:1;"
         offset="1"
         id="stop3873" />
    </linearGradient>
    <filter
       x="-0.25"
       width="1.5"
       y="-0.25"
       height="1.5"
       color-interpolation-filters="sRGB"
       id="filter3918">
      <feGaussianBlur
         stdDeviation="5"
         result="result1"
         id="feGaussianBlur3920" />
      <feTurbulence
         numOctaves="1"
         seed="0"
         type="fractalNoise"
         baseFrequency="0.1"
         result="result2"
         id="feTurbulence3922" />
      <feDisplacementMap
         scale="5"
         yChannelSelector="G"
         xChannelSelector="R"
         result="result3"
         in="result1"
         in2="result2"
         id="feDisplacementMap3924" />
      <feComposite
         operator="atop"
         in2="result3"
         id="feComposite3926" />
    </filter>
    <radialGradient
       id="radialGradient3117"
       gradientUnits="userSpaceOnUse"
       gradientTransform="matrix(1,0,0,0.94754723,0,803.19485)"
       cx="123.46834"
       cy="130.26325"
       fx="123.46834"
       fy="130.26325"
       r="112.11763" />
    <mask
       maskUnits="userSpaceOnUse"
       id="mask3113">
      <path
         id="path3115"
         d="m 97.142857,894.86218 c -10.583692,-21.80007 -3.984033,-59.44884 20.000003,-73.57143 19.06663,-5.51099 42.15817,47.04376 42.5,71.07143 5.12452,-6.76624 24.04966,-10.61312 53.92857,-12.14286 5.4976,-0.24081 6.26163,14.10083 10.71428,21.42857 4.45265,7.32774 12.81435,16.1077 10.35715,20.71429 -6.66649,20.08398 -28.20467,33.52359 -51.07143,30.71429 13.33217,14.95589 28.03055,29.2856 30.35714,49.28573 -2.11571,21.0671 -17.17936,29.9955 -42.14286,29.6428 -15.21937,-7.8945 -31.71484,-11.7214 -39.64285,-42.85711 -7.64244,22.60841 -22.71524,36.79571 -44.64286,43.21431 -8.645651,-0.6569 -15.520586,-3.7485 -20.357143,-9.6429 C 59.727954,1017.7958 56.218045,1010.9198 52.5,1004.1479 60.499807,984.98109 64.489172,962.94968 85,952.71932 51.374017,958.96703 26.498574,930.35337 22.142857,923.61218 c -4.355717,-6.7412 -0.276973,-11.66214 -10.292149,-29.69516 34.356697,-1.76087 68.875699,-4.14388 85.292149,0.94516 z"
         style="fill:url(#radialGradient3117);fill-opacity:1;stroke:#70394e;stroke-width:1px;stroke-linecap:butt;stroke-linejoin:miter;stroke-opacity:1;display:inline" />
    </mask>
    <radialGradient
       id="radialGradient3875"
       cx="123.46834"
       cy="130.26324"
       fx="123.46834"
       fy="130.26324"
       r="112.11763"
       gradientTransform="matrix(0.42947351,-0.09429508,0.08934904,0.40694643,67.394595,119.4364)"
       gradientUnits="userSpaceOnUse" />
  </defs>
  <metadata
     id="metadata7">
    <rdf:RDF>
      <cc:Work
         rdf:about="">
        <dc:format>image/svg+xml</dc:format>
        <dc:type
           rdf:resource="http://purl.org/dc/dcmitype/StillImage" />
        <dc:title></dc:title>
      </cc:Work>
    </rdf:RDF>
  </metadata>
  <g
     aria-label="№61 2  6"
     transform="rotate(-32.91427,180.71355,-146.15433)"
     id="text858"
     style="font-style:normal;font-weight:normal;font-size:85.3333px;line-height:1.25;font-family:sans-serif;letter-spacing:0px;word-spacing:0px;white-space:pre;shape-inside:url(#rect860);fill:#000000;fill-opacity:1;stroke:none">
    <path
       d="m -50.079736,-2.6640851 q 0,-11.9583279 7.374997,-11.9583279 7.374997,0 7.374997,11.9583279 0,11.9583284 -7.374997,11.9583284 -7.374997,0 -7.374997,-11.9583284 z m 8.624997,0 q 0,-5.3333311 -1.25,-5.3333311 -1.249999,0 -1.249999,5.3333311 0,5.3333311 1.249999,5.3333311 1.25,0 1.25,-5.3333311 z m -8.624997,13.4583281 h 14.749994 v 7.916663 h -14.749994 z m -31.249987,-54.291644 h 12.374995 l 6.083331,41.4583157 V -30.789073 q 0,-6.499998 3.041666,-9.58333 3.083332,-3.124998 11.916661,-3.124998 v 9.124996 q -3.624998,0 -4.291665,1.291666 -0.666666,1.291666 -0.666666,3.749998 V 18.710906 H -65.163063 L -71.329727,-22.74741 V 6.002578 q 0,6.499997 -3.083332,9.624996 -3.041665,3.083332 -11.874995,3.083332 V 9.5859098 q 3.624999,0 4.291665,-1.2916661 0.666666,-1.2916661 0.666666,-3.7499985 z"
       style="font-style:normal;font-variant:normal;font-weight:bold;font-stretch:normal;font-family:monospace;-inkscape-font-specification:'monospace Bold';text-align:center;text-anchor:middle;fill:#001564;fill-opacity:1"
       id="path862" />
    <path
       d="m -8.1214212,-12.455748 q -3.9999988,0 -6.1249978,2.9166658 -2.083332,2.8749988 -2.083332,8.3749965 0,5.458331 2.083332,8.3749965 2.124999,2.8749992 6.1249978,2.8749992 3.9999983,0 6.1249975,-2.8749992 2.16666572,-2.9166655 2.16666572,-8.3749965 0,-5.4583311 -2.16666572,-8.3749965 -2.1249992,-2.9166658 -6.1249975,-2.9166658 z M 8.0035721,-42.039069 v 11.166662 q -3.2916653,-1.874999 -6.3333307,-2.791665 -2.9999988,-0.958333 -5.7916643,-0.958333 -6.6666641,0 -10.1666621,4.499998 -3.458332,4.458332 -3.624999,13.208328 1.958333,-2.708332 4.999998,-4.041665 3.0416655,-1.375 7.1666638,-1.375 8.4166632,0 12.9999946,5.333332 4.5833316,5.291664 4.5833316,15.04166 0,10.4583289 -5.1666647,16.208327 -5.1249979,5.749997 -14.4583273,5.749997 -11.374995,0 -16.54166,-7.624997 -5.124998,-7.6249965 -5.124998,-24.624989 0,-16.16666 6.291664,-24.208324 6.291664,-8.08333 18.8749925,-8.08333 2.9166655,0 5.9999975,0.625 3.1249987,0.625 6.2916641,1.874999 z"
       style="font-style:normal;font-variant:normal;font-weight:bold;font-stretch:normal;font-family:monospace;-inkscape-font-specification:'monospace Bold';text-align:center;text-anchor:middle;fill:#001564;fill-opacity:1"
       id="path864" />
    <path
       d="M 24.295231,7.8775772 H 38.045225 V -32.497406 l -12.791662,3.166665 v -11.083328 l 12.874995,-3.083332 H 50.003553 V 7.8775772 H 63.753547 V 18.710906 H 24.295231 Z"
       style="font-style:normal;font-variant:normal;font-weight:bold;font-stretch:normal;font-family:monospace;-inkscape-font-specification:'monospace Bold';text-align:center;text-anchor:middle;fill:#001564;fill-opacity:1"
       id="path866" />
    <path
       d="m -93.892217,114.5442 h 26.208322 v 10.83333 h -39.499985 v -10.49999 l 6.66667,-7.08333 q 11.874991,-12.624999 14.416656,-15.541664 3.124999,-3.583332 4.499998,-6.333331 1.375,-2.791665 1.375,-5.499998 0,-4.166665 -2.541666,-6.416664 -2.499999,-2.291665 -7.124997,-2.291665 -3.291665,0 -7.416664,1.333332 -4.083327,1.291667 -8.541667,3.791666 V 65.377557 q 4.45834,-1.624999 8.708334,-2.458332 4.291665,-0.875 8.20833,-0.875 9.874996,0 15.499994,4.624998 5.666664,4.583332 5.666664,12.541662 0,3.666665 -1.25,6.874997 -1.208332,3.208332 -4.208331,7.124997 -2.208333,2.833332 -12.124995,12.749991 -5.374998,5.375 -8.541663,8.58333 z"
       style="font-style:normal;font-variant:normal;font-weight:bold;font-stretch:normal;font-family:monospace;-inkscape-font-specification:'monospace Bold';text-align:center;text-anchor:middle;fill:#001564;fill-opacity:1"
       id="path868" />
    <path
       d="m 68.941051,94.210878 q -3.999998,0 -6.124997,2.916666 -2.083333,2.874996 -2.083333,8.374996 0,5.45833 2.083333,8.375 2.124999,2.875 6.124997,2.875 3.999999,0 6.124998,-2.875 2.166666,-2.91667 2.166666,-8.375 0,-5.45833 -2.166666,-8.374996 -2.124999,-2.916666 -6.124998,-2.916666 z M 85.066045,64.627557 v 11.166662 q -3.291666,-1.874999 -6.333331,-2.791665 -2.999999,-0.958333 -5.791664,-0.958333 -6.666664,0 -10.166663,4.499998 -3.458332,4.458331 -3.624998,13.208328 1.958332,-2.708332 4.999998,-4.041665 3.041665,-1.375 7.166663,-1.375 8.416664,0 12.999995,5.333332 4.583331,5.291664 4.583331,15.041656 0,10.45833 -5.166664,16.20833 -5.124998,5.75 -14.458327,5.75 -11.374996,0 -16.54166,-7.625 -5.124998,-7.625 -5.124998,-24.624988 0,-16.16666 6.291664,-24.208324 6.291664,-8.08333 18.874992,-8.08333 2.916666,0 5.999998,0.625 3.124998,0.625 6.291664,1.874999 z"
       style="font-style:normal;font-variant:normal;font-weight:bold;font-stretch:normal;font-family:monospace;-inkscape-font-specification:'monospace Bold';text-align:center;text-anchor:middle;fill:#001564;fill-opacity:1"
       id="path870" />
  </g>
  <g
     id="layer3"
     style="display:inline" />
  <g
     id="layer2"
     style="display:inline" />
  <g
     transform="matrix(-2.537251,3.3053689,3.3053689,2.537251,151.79478,-796.72144)"
     id="g874">
    <path
       id="path4510"
       d="m 185.70995,148.8806 c -1.83172,-0.78941 -10.20079,-3.4662 -13.07403,-5.12354 l 0.80402,-1.60804 c -2.6928,-0.48341 -4.68414,-2.01902 -6.63317,-3.61809 l 0.80402,-1.00503 c -1.57174,-0.96503 -2.60275,-2.83126 -3.61809,-4.72362 l 1.10553,-0.40201 -1.60804,-4.2211 0.70352,0.40201 0.40201,-1.40704 3.81909,3.31659 0.80402,-0.80402 c 1.07203,1.67004 2.14405,3.36876 3.21608,5.22613 l 0.50252,-0.30151 c 0.68394,1.83243 2.20162,2.27152 3.81909,4.92462 l 0.90452,-0.90452 c 2.10618,2.85406 3.79093,6.13325 7.03518,7.8392"
       style="display:inline;fill:#005916;fill-opacity:1;fill-rule:evenodd;stroke:#00b540;stroke-width:0.5;stroke-linecap:butt;stroke-linejoin:miter;stroke-miterlimit:4;stroke-dasharray:none;stroke-opacity:1;enable-background:new" />
    <path
       style="display:inline;fill:#005916;fill-opacity:1;fill-rule:evenodd;stroke:#00b540;stroke-width:0.5;stroke-linecap:butt;stroke-linejoin:miter;stroke-miterlimit:4;stroke-dasharray:none;stroke-opacity:1;enable-background:new"
       d="m 164.65753,127.545 1.96479,3.93469 0.74221,-0.49497 c 1.07203,1.67004 1.835,4.17229 3.52513,5.72061 l 0.50252,-0.30151 c 0.68394,1.83243 3.12877,3.32229 4.74624,5.97539 l 0.90452,-0.90452 c 2.10618,2.85406 2.49292,3.84628 5.73717,5.55223"
       id="path4509" />
  </g>
  <path
     style="display:inline;fill:#ff45a3;fill-opacity:1;stroke:#70394e;stroke-width:0.439704px;stroke-linecap:butt;stroke-linejoin:miter;stroke-opacity:1"
     d="m 117.75865,149.64498 c -6.60106,-8.36455 -7.31677,-25.15603 1.65205,-33.48286 7.66895,-4.16472 22.54181,16.22873 24.95431,26.51575 1.56282,-3.38914 9.32793,-6.82582 22.01588,-10.30024 2.33836,-0.62186 4.01885,5.46549 6.62211,8.1927 2.60327,2.7272 7.0223,5.7095 6.40137,7.91961 -0.96925,9.25415 -8.95204,17.05705 -19.03761,18.00675 7.13607,5.16602 14.79987,9.93425 17.68498,18.30439 1.07789,9.24726 -4.54964,14.50222 -15.30406,16.70468 -7.28074,-1.95538 -14.72595,-2.0435 -21.06677,-14.66788 -1.15037,10.43037 -6.28594,17.94473 -15.09804,22.76899 -3.77502,0.53314 -7.01913,-0.14635 -9.65212,-2.22177 -3.64877,-1.41533 -5.80456,-4.03742 -8.03992,-6.59518 1.62838,-8.98598 1.26424,-18.82407 9.10843,-25.15181 -13.85234,5.85399 -27.233811,-4.08919 -29.740136,-6.57362 -2.506328,-2.48445 -1.218637,-4.98247 -7.220312,-11.78279 14.589248,-3.99592 29.189538,-8.27432 36.719838,-7.63672 z"
     id="path3867" />
</svg>
