<?xml version="1.0" encoding="UTF-8" standalone="no"?>
<!-- Created with Inkscape (http://www.inkscape.org/) -->

<svg
   width="33.620998mm"
   height="10.242mm"
   viewBox="0 0 33.620998 10.242"
   version="1.1"
   id="svg1"
   xmlns="http://www.w3.org/2000/svg"
   xmlns:svg="http://www.w3.org/2000/svg">
  <defs
     id="defs1">
    <rect
       x="6.6677146"
       y="23.128687"
       width="474.46811"
       height="213.43967"
       id="rect3" />
    <rect
       x="-12.431521"
       y="-17.458033"
       width="520.28638"
       height="187.85417"
       id="rect2" />
    <rect
       x="45.233089"
       y="136.38235"
       width="664.53809"
       height="208.37578"
       id="rect1" />
  </defs>
  <g
     id="layer1"
     transform="translate(-13.362491,-41.553536)">
    <path
       d="m 23.113281,40.003906 q -0.605469,-0.351562 -1.328125,-0.507812 -0.703125,-0.175782 -1.5625,-0.175782 -3.046875,0 -4.6875,1.992188 -1.621093,1.972656 -1.621093,5.683594 v 11.523437 h -3.613282 v -21.875 h 3.613282 v 3.398438 q 1.132812,-1.992188 2.949218,-2.949219 1.816406,-0.976563 4.414063,-0.976563 0.371093,0 0.820312,0.05859 0.449219,0.03906 0.996094,0.136719 z m 3.398438,9.882813 V 36.644531 h 3.59375 V 49.75 q 0,3.105469 1.210937,4.667969 1.210938,1.542968 3.632813,1.542968 2.910156,0 4.589843,-1.855468 Q 41.238281,52.25 41.238281,49.046875 V 36.644531 h 3.59375 v 21.875 h -3.59375 v -3.359375 q -1.308594,1.992188 -3.046875,2.96875 -1.71875,0.957031 -4.003906,0.957031 -3.769531,0 -5.722656,-2.34375 -1.953125,-2.34375 -1.953125,-6.855468 z m 9.042968,-13.769532 z m 20.234375,-5.683593 v 6.210937 h 7.402344 V 39.4375 h -7.402344 v 11.875 q 0,2.675781 0.722657,3.4375 0.742187,0.761719 2.988281,0.761719 h 3.691406 v 3.007812 H 59.5 q -4.160156,0 -5.742188,-1.542969 -1.582031,-1.5625 -1.582031,-5.664062 v -11.875 h -2.636719 v -2.792969 h 2.636719 V 30.433594 Z M 67.546875,49.886719 V 36.644531 h 3.59375 V 49.75 q 0,3.105469 1.210937,4.667969 1.210938,1.542968 3.632813,1.542968 2.910156,0 4.589844,-1.855468 Q 82.273437,52.25 82.273437,49.046875 V 36.644531 h 3.59375 v 21.875 h -3.59375 v -3.359375 q -1.308593,1.992188 -3.046875,2.96875 -1.71875,0.957031 -4.003906,0.957031 -3.769531,0 -5.722656,-2.34375 -1.953125,-2.34375 -1.953125,-6.855468 z m 9.042969,-13.769532 z m 32.382816,11.484375 q 0,-3.964843 -1.64063,-6.210937 -1.62109,-2.265625 -4.47265,-2.265625 -2.85157,0 -4.492193,2.265625 -1.621093,2.246094 -1.621093,6.210937 0,3.964844 1.621093,6.230469 1.640623,2.246094 4.492193,2.246094 2.85156,0 4.47265,-2.246094 1.64063,-2.265625 1.64063,-6.230469 z M 96.746094,39.964844 q 1.132812,-1.953125 2.851562,-2.890625 1.738284,-0.957032 4.140624,-0.957032 3.98438,0 6.46485,3.164063 2.5,3.164062 2.5,8.320312 0,5.15625 -2.5,8.320313 -2.48047,3.164062 -6.46485,3.164062 -2.40234,0 -4.140624,-0.9375 -1.71875,-0.957031 -2.851562,-2.910156 v 3.28125 H 93.132812 V 28.128906 h 3.613282 z m 40.624996,6.71875 v 1.757812 h -16.52343 q 0.23437,3.710938 2.22656,5.664063 2.01172,1.933593 5.58594,1.933593 2.07031,0 4.0039,-0.507812 1.95313,-0.507813 3.86719,-1.523438 v 3.398438 q -1.93359,0.820312 -3.96484,1.25 -2.03125,0.429687 -4.1211,0.429687 -5.23437,0 -8.30078,-3.046875 -3.04687,-3.046875 -3.04687,-8.242187 0,-5.371094 2.89062,-8.515625 2.91016,-3.164063 7.83203,-3.164063 4.41406,0 6.97266,2.851563 2.57812,2.832031 2.57812,7.714844 z m -3.59375,-1.054688 q -0.0391,-2.949219 -1.66015,-4.707031 -1.60157,-1.757813 -4.25781,-1.757813 -3.00782,0 -4.82422,1.699219 -1.79688,1.699219 -2.07032,4.785156 z"
       id="text2"
       style="font-size:40px;line-height:1.25;letter-spacing:0px;word-spacing:0px;white-space:pre"
       transform="matrix(0.26458333,0,0,0.26458333,10.637076,34.111096)"
       aria-label="rutube" />
  </g>
</svg>
