<?xml version="1.0" encoding="UTF-8" standalone="no"?>
<!-- Created with Inkscape (http://www.inkscape.org/) -->

<svg
   width="17.383951mm"
   height="10.242269mm"
   viewBox="0 0 17.383951 10.242269"
   version="1.1"
   id="svg1"
   xmlns="http://www.w3.org/2000/svg"
   xmlns:svg="http://www.w3.org/2000/svg">
  <defs
     id="defs1">
    <rect
       x="-12.431521"
       y="-17.458033"
       width="520.28638"
       height="187.85417"
       id="rect2" />
    <rect
       x="45.233089"
       y="136.38235"
       width="664.53809"
       height="208.37578"
       id="rect1" />
  </defs>
  <g
     id="layer1"
     transform="translate(-10.637076,-34.111096)">
    <path
       d="m -8.6621094,-3.9433594 h 3.59375 V 17.931641 h -3.59375 z m 0,-8.5156246 h 3.59375 v 4.5507809 h -3.59375 z M 5.9277344,14.650391 V 26.251953 H 2.3144531 V -3.9433594 h 3.6132813 v 3.32031253 q 1.1328125,-1.95312503 2.8515625,-2.89062503 1.7382811,-0.9570312 4.1406251,-0.9570312 3.984375,0 6.464844,3.1640625 2.5,3.1640625 2.5,8.3203125 0,5.1562501 -2.5,8.3203121 -2.480469,3.164063 -6.464844,3.164063 -2.402344,0 -4.1406251,-0.9375 -1.71875,-0.957031 -2.8515625,-2.910156 z M 18.154297,7.0136719 q 0,-3.9648438 -1.640625,-6.21093752 -1.621094,-2.26562498 -4.472656,-2.26562498 -2.8515629,0 -4.4921879,2.26562498 -1.6210937,2.24609372 -1.6210937,6.21093752 0,3.9648441 1.6210937,6.2304691 1.640625,2.246093 4.4921879,2.246093 2.851562,0 4.472656,-2.246093 1.640625,-2.265625 1.640625,-6.2304691 z M 38.916016,-12.458984 v 2.9882809 h -3.4375 q -1.933594,0 -2.695313,0.78125 -0.742187,0.78125 -0.742187,2.8125 v 1.9335937 h 5.917968 v 2.7929688 H 32.041016 V 17.931641 H 28.427734 V -1.1503906 h -3.4375 v -2.7929688 h 3.4375 v -1.5234375 q 0,-3.6523437 1.699219,-5.3125001 1.699219,-1.679687 5.390625,-1.679687 z m 16.953125,9.1601559 v 3.39843747 q -1.523438,-0.78124999 -3.164063,-1.17187497 -1.640625,-0.390625 -3.398437,-0.390625 -2.675782,0 -4.023438,0.82031248 -1.328125,0.82031249 -1.328125,2.46093752 0,1.25 0.957031,1.9726562 0.957032,0.703125 3.847657,1.3476563 l 1.230468,0.2734375 q 3.828125,0.8203125 5.429688,2.3242187 1.621094,1.484375 1.621094,4.1601559 0,3.046875 -2.421875,4.824219 -2.402344,1.777344 -6.621094,1.777344 -1.757813,0 -3.671875,-0.351563 -1.894531,-0.332031 -4.003906,-1.015625 v -3.710937 q 1.992187,1.035156 3.925781,1.5625 1.933594,0.507812 3.828125,0.507812 2.539062,0 3.90625,-0.859375 1.367187,-0.878906 1.367187,-2.460937 0,-1.464844 -0.996093,-2.2460939 -0.976563,-0.78125 -4.316407,-1.5039062 l -1.25,-0.2929688 Q 43.447266,7.4238281 41.962891,5.9785156 40.478516,4.5136719 40.478516,1.9746094 q 0,-3.0859375 2.1875,-4.765625 2.1875,-1.6796875 6.210937,-1.6796875 1.992188,0 3.75,0.2929687 1.757813,0.2929688 3.242188,0.8789063 z"
       id="text1"
       style="font-size:40px;line-height:1.25;letter-spacing:0px;word-spacing:0px;white-space:pre"
       transform="matrix(0.26458333,0,0,0.26458333,12.928926,37.407535)"
       aria-label="ipfs" />
  </g>
</svg>
