<?xml version="1.0" encoding="UTF-8" standalone="no"?>
<svg
   xmlns:dc="http://purl.org/dc/elements/1.1/"
   xmlns:cc="http://creativecommons.org/ns#"
   xmlns:rdf="http://www.w3.org/1999/02/22-rdf-syntax-ns#"
   xmlns:svg="http://www.w3.org/2000/svg"
   xmlns="http://www.w3.org/2000/svg"
   xmlns:xlink="http://www.w3.org/1999/xlink"
   version="1.1"
   id="svg2"
   viewBox="0 0 1080 1440"
   height="406.39999mm"
   width="304.79999mm">
  <defs
     id="defs4">
    <marker
       style="overflow:visible;"
       id="marker4975"
       refX="0.0"
       refY="0.0"
       orient="auto">
      <path
         transform="scale(0.8) rotate(180) translate(12.5,0)"
         style="fill-rule:evenodd;stroke:#000000;stroke-width:1pt;stroke-opacity:1;fill:#000000;fill-opacity:1"
         d="M 0.0,0.0 L 5.0,-5.0 L -12.5,0.0 L 5.0,5.0 L 0.0,0.0 z "
         id="path4977" />
    </marker>
    <marker
       style="overflow:visible;"
       id="Arrow1Lend"
       refX="0.0"
       refY="0.0"
       orient="auto">
      <path
         transform="scale(0.8) rotate(180) translate(12.5,0)"
         style="fill-rule:evenodd;stroke:#ff0000;stroke-width:1pt;stroke-opacity:1;fill:#ff0000;fill-opacity:1"
         d="M 0.0,0.0 L 5.0,-5.0 L -12.5,0.0 L 5.0,5.0 L 0.0,0.0 z "
         id="path4299" />
    </marker>
  </defs>
  <metadata
     id="metadata7">
    <rdf:RDF>
      <cc:Work
         rdf:about="">
        <dc:format>image/svg+xml</dc:format>
        <dc:type
           rdf:resource="http://purl.org/dc/dcmitype/StillImage" />
        <dc:title></dc:title>
      </cc:Work>
    </rdf:RDF>
  </metadata>
  <g
     transform="translate(20.000122,233.35208)"
     id="layer1">
    <image
       xlink:href="20160519_020.jpg"
       transform="matrix(0,1,-1,0,0,0)"
       width="1440"
       height="1080"
       preserveAspectRatio="none"
       id="image4242"
       x="-233.35208"
       y="-1059.9999" />
    <flowRoot
       style="font-style:normal;font-weight:normal;line-height:0.01%;font-family:sans-serif;letter-spacing:0px;word-spacing:0px;fill:#ff0000;fill-opacity:1;stroke:none;stroke-width:1px;stroke-linecap:butt;stroke-linejoin:miter;stroke-opacity:1"
       id="flowRoot4245"
       xml:space="preserve"><flowRegion
         id="flowRegion4247"><rect
           style="fill:#ff0000;fill-opacity:1;"
           y="532"
           x="100"
           height="222"
           width="706"
           id="rect4249" /></flowRegion><flowPara
         style="font-size:40px;line-height:1.25"
         id="flowPara4251"> </flowPara></flowRoot>
    <text
       id="text4253"
       y="341.35684"
       x="435.41696"
       style="font-style:normal;font-weight:normal;font-size:9.81376px;line-height:0%;font-family:sans-serif;letter-spacing:0px;word-spacing:0px;fill:#000000;fill-opacity:1;stroke:none;stroke-width:0.817813px;stroke-linecap:butt;stroke-linejoin:miter;stroke-opacity:1"
       xml:space="preserve"><tspan
         id="tspan4257"
         style="font-size:32.7125px;line-height:1.25;text-align:start;text-anchor:start;fill:#ff0000;fill-opacity:1;stroke-width:0.817813px"
         y="341.35684"
         x="435.41696">Будто только что из морозилки, </tspan><tspan
         id="tspan4259"
         style="font-size:32.7125px;line-height:1.25;text-align:start;text-anchor:start;fill:#ff0000;fill-opacity:1;stroke-width:0.817813px"
         y="382.24747"
         x="435.41696">на самом деле из теплицы </tspan></text>
    <text
       id="text4253-2"
       y="1005.3245"
       x="763.12256"
       style="font-style:normal;font-weight:normal;line-height:0%;font-family:sans-serif;letter-spacing:0px;word-spacing:0px;fill:#000000;fill-opacity:1;stroke:none;stroke-width:1px;stroke-linecap:butt;stroke-linejoin:miter;stroke-opacity:1"
       xml:space="preserve"><tspan
         id="tspan4259-7"
         style="font-size:40px;line-height:1.25;text-align:start;text-anchor:start;fill:#ff0000;fill-opacity:1"
         y="1005.3245"
         x="763.12256">пенопласт</tspan></text>
    <path
       id="path4290"
       d="m 804.07395,1021.4627 -175.92592,50"
       style="fill:none;fill-rule:evenodd;stroke:#ff0000;stroke-width:4.7;stroke-linecap:butt;stroke-linejoin:miter;stroke-opacity:1;stroke-miterlimit:4;stroke-dasharray:none;marker-end:url(#Arrow1Lend)" />
    <text
       id="text4253-9"
       y="428.37637"
       x="488.89496"
       style="font-style:normal;font-weight:normal;font-size:11.1202px;line-height:0%;font-family:sans-serif;letter-spacing:0px;word-spacing:0px;fill:#000000;fill-opacity:1;stroke:none;stroke-width:0.926685px;stroke-linecap:butt;stroke-linejoin:miter;stroke-opacity:1"
       xml:space="preserve"><tspan
         id="tspan4763"
         style="font-size:23.1671px;line-height:1.25;text-align:start;text-anchor:start;fill:#000000;fill-opacity:1;stroke-width:0.926685px"
         y="428.37637"
         x="488.89496">Totally looks like it was in a freezer but no, </tspan><tspan
         id="tspan4767"
         style="font-size:23.1671px;line-height:1.25;text-align:start;text-anchor:start;fill:#000000;fill-opacity:1;stroke-width:0.926685px"
         y="457.33524"
         x="488.89496">it's from greenhouse glasshouse bottlehouse</tspan></text>
    <path
       id="path4769"
       d="m 586.03436,464.40654 c 10.56998,-8.34147 24.58969,-12.16503 37.93104,-10.34483 1.73199,0.2363 3.45019,0.56274 5.17241,0.86207 8.84827,1.53787 18.05451,2.34404 26.72414,0 4.30055,-1.16275 8.40731,-3.08592 12.81326,-3.74494 2.20298,-0.32951 4.47901,-0.33185 6.63129,0.24207 2.15227,0.57391 4.17754,1.75272 5.55545,3.50287 0.64116,0.81437 1.13292,1.73489 1.72414,2.58621 2.13689,3.07697 5.62242,5.17336 9.33842,5.64815 3.716,0.47478 7.60513,-0.67103 10.48916,-3.06194 1.7692,-1.46669 3.15073,-3.35266 4.89761,-4.84587 0.87344,-0.7466 1.84457,-1.39592 2.92269,-1.79337 1.07812,-0.39746 2.27102,-0.53262 3.3866,-0.25732 1.25229,0.30904 2.31945,1.10006 3.44828,1.72414 1.8466,1.0209 3.92727,1.61538 6.03448,1.72414"
       style="fill:none;fill-rule:evenodd;stroke:#000000;stroke-width:1px;stroke-linecap:butt;stroke-linejoin:miter;stroke-opacity:1" />
    <path
       id="path4773"
       d="m 715.34471,462.6824 c 1.6229,-3.14552 4.44452,-5.65363 7.75862,-6.89655 4.34692,-1.63027 9.17456,-1.0799 13.76411,-0.38022 4.58955,0.69969 9.32192,1.52123 13.8221,0.38022 2.38176,-0.60389 4.59138,-1.73551 6.89655,-2.58621 6.53873,-2.41306 13.71155,-2.51585 20.64768,-1.83186 6.93614,0.68399 13.78536,2.12204 20.73163,2.69393 8.0231,0.66054 16.08927,0.15949 24.13793,0 9.48922,-0.18804 18.98785,0.0998 28.44827,0.86207"
       style="fill:none;fill-rule:evenodd;stroke:#000000;stroke-width:1px;stroke-linecap:butt;stroke-linejoin:miter;stroke-opacity:1" />
    <text
       id="text4253-9-5"
       y="1028.8148"
       x="833.79041"
       style="font-style:normal;font-weight:normal;line-height:0%;font-family:sans-serif;letter-spacing:0px;word-spacing:0px;fill:#000000;fill-opacity:1;stroke:none;stroke-width:1px;stroke-linecap:butt;stroke-linejoin:miter;stroke-opacity:1"
       xml:space="preserve"><tspan
         id="tspan4767-8"
         style="font-size:25px;line-height:1.25;text-align:start;text-anchor:start;fill:#000000;fill-opacity:1"
         y="1028.8148"
         x="833.79041">styrofoam</tspan></text>
    <text
       id="text4253-28"
       y="664.48846"
       x="24.085539"
       style="font-style:normal;font-weight:normal;line-height:0%;font-family:sans-serif;letter-spacing:0px;word-spacing:0px;fill:#000000;fill-opacity:1;stroke:none;stroke-width:1px;stroke-linecap:butt;stroke-linejoin:miter;stroke-opacity:1"
       xml:space="preserve"><tspan
         id="tspan4259-73"
         style="font-size:40px;line-height:1.25;text-align:start;text-anchor:start;fill:#ff0000;fill-opacity:1"
         y="664.48846"
         x="24.085539">Такое можно</tspan><tspan
         id="tspan4863"
         style="font-size:40px;line-height:1.25;text-align:start;text-anchor:start;fill:#ff0000;fill-opacity:1"
         y="714.48846"
         x="24.085539">не поливать</tspan></text>
    <text
       id="text4253-9-52"
       y="685.23914"
       x="731.19373"
       style="font-style:normal;font-weight:normal;line-height:0%;font-family:sans-serif;letter-spacing:0px;word-spacing:0px;fill:#000000;fill-opacity:1;stroke:none;stroke-width:1px;stroke-linecap:butt;stroke-linejoin:miter;stroke-opacity:1"
       xml:space="preserve"><tspan
         id="tspan4767-7"
         style="font-size:25px;line-height:1.25;text-align:start;text-anchor:start;fill:#000000;fill-opacity:1"
         y="685.23914"
         x="731.19373">Why bother watering </tspan><tspan
         id="tspan4867"
         style="font-size:25px;line-height:1.25;text-align:start;text-anchor:start;fill:#000000;fill-opacity:1"
         y="716.48914"
         x="731.19373">something like this</tspan></text>
    <g
       transform="matrix(0.84900406,0,0,0.84900406,-213.15107,-303.00891)"
       id="g4937">
      <path
         id="path5788"
         d="m 1063.6145,472.59623 c -15.355,34.2891 -7.2873,55.2427 -0.4962,78.0828 -8.8791,15.2903 -8.8838,28.3249 -0.252,45.8708 -9.9247,29.5346 -15.1416,56.1722 0.7482,69.821 l 312.7324,0 c 25.1388,-0.6732 72.3314,-45.4579 72,-66.338 l 21.1267,0 0,-60.5634 -22.5352,0 c -0.5811,-22.4177 -44.5337,-64.1519 -72,-66.0563 l -53.8309,0 1.0845,118 -6.9578,-208 -169.9155,0 -2.9577,208 -0.9155,-118 -77.831,0 z"
         style="fill:none;fill-rule:evenodd;stroke:#000000;stroke-width:1px;stroke-linecap:butt;stroke-linejoin:miter;stroke-opacity:1" />
      <path
         id="path5790"
         d="m 1116.5642,649.43713 c 1.3081,7.1374 -17.396,10.0735 -28.5714,13.1429 -15.2161,4.1792 -28.5715,-5.8843 -28.5714,-13.1429 0,-7.2586 14.1211,-19.4819 28.5714,-13.1429 12.4916,5.4799 27.5527,7.5848 28.5714,13.1429 z"
         style="fill:#ffffff;fill-opacity:1;fill-rule:evenodd;stroke:#000000;stroke-width:1px;stroke-linecap:butt;stroke-linejoin:miter;stroke-opacity:1" />
      <path
         id="path5792"
         d="m 1170.8183,649.25613 c 1.3081,7.1374 -17.3959,10.0735 -28.5714,13.1429 -15.2161,4.1792 -28.5715,-5.8843 -28.5714,-13.1429 0,-7.2586 14.1211,-19.4819 28.5714,-13.1428 12.4916,5.4798 27.5527,7.5847 28.5714,13.1428 z"
         style="fill:#ffffff;fill-opacity:1;fill-rule:evenodd;stroke:#000000;stroke-width:1px;stroke-linecap:butt;stroke-linejoin:miter;stroke-opacity:1" />
      <path
         id="path5794"
         d="m 1207.3898,647.54183 c 1.3081,7.1374 -18.0269,17.9517 -28.5715,13.1429 -10.6891,-4.8747 -26.8756,-2.9902 -28,-8 -1.5894,-7.0825 13.5498,-24.6248 28,-18.2857 12.4917,5.4798 27.5528,7.5847 28.5715,13.1428 z"
         style="fill:#ffffff;fill-opacity:1;fill-rule:evenodd;stroke:#000000;stroke-width:1px;stroke-linecap:butt;stroke-linejoin:miter;stroke-opacity:1" />
      <path
         id="path5796"
         d="m 1246.8183,646.39903 c 1.3081,7.1374 -17.3959,10.0735 -28.5714,13.1429 -15.2161,4.1792 -34.8572,2.6871 -34.8571,-4.5715 0,-7.2586 20.4068,-28.0534 34.8571,-21.7143 12.4916,5.4799 27.5527,7.5847 28.5714,13.1429 z"
         style="fill:#ffffff;fill-opacity:1;fill-rule:evenodd;stroke:#000000;stroke-width:1px;stroke-linecap:butt;stroke-linejoin:miter;stroke-opacity:1" />
      <path
         id="path5798"
         d="m 1270.2469,649.25613 c 1.3081,7.1374 -7.6817,8.9306 -18.8572,12 -15.216,4.1792 -38.2857,-4.7414 -38.2857,-12 10e-5,-7.2586 14.1212,-19.4819 28.5715,-13.1428 12.4916,5.4798 27.5527,7.5847 28.5714,13.1428 z"
         style="fill:#ffffff;fill-opacity:1;fill-rule:evenodd;stroke:#000000;stroke-width:1px;stroke-linecap:butt;stroke-linejoin:miter;stroke-opacity:1" />
      <path
         id="path5800"
         d="m 1182.8183,627.54193 c 1.3082,7.1374 -17.3959,10.0735 -28.5714,13.1429 -15.2161,4.1792 -28.5715,-5.8843 -28.5714,-13.1429 0,-7.2586 14.1211,-19.4819 28.5714,-13.1428 12.4916,5.4798 27.5527,7.5846 28.5714,13.1428 z"
         style="fill:#ffffff;fill-opacity:1;fill-rule:evenodd;stroke:#000000;stroke-width:1px;stroke-linecap:butt;stroke-linejoin:miter;stroke-opacity:1" />
      <path
         id="path5802"
         d="m 1317.6754,634.39903 c 1.3082,7.1374 -17.3959,10.0735 -28.5714,13.1429 -15.2161,4.1792 -28.6987,-5.8854 -28.5714,-13.1429 0.117,-6.6737 16.501,-11.0112 29.7143,-10.8571 13.6398,0.159 26.4099,5.2989 27.4285,10.8571 z"
         style="fill:#ffffff;fill-opacity:1;fill-rule:evenodd;stroke:#000000;stroke-width:1px;stroke-linecap:butt;stroke-linejoin:miter;stroke-opacity:1" />
      <path
         id="path5804"
         d="m 1354.2469,647.54183 c 1.3081,7.1374 -17.396,10.0735 -28.5714,13.1429 -15.2162,4.1792 -28.5715,-5.8843 -28.5715,-13.1429 0,-7.2586 14.1212,-19.4819 28.5715,-13.1428 12.4916,5.4798 27.5527,7.5847 28.5714,13.1428 z"
         style="fill:#ffffff;fill-opacity:1;fill-rule:evenodd;stroke:#000000;stroke-width:1px;stroke-linecap:butt;stroke-linejoin:miter;stroke-opacity:1" />
      <path
         id="path5806"
         d="m 1406.8183,639.54183 c 0.8438,7.2071 -17.3959,10.0735 -28.5714,13.1429 -15.2161,4.1792 -28.5715,-5.8843 -28.5714,-13.1429 0,-7.2586 21.9886,-20.3982 37.1428,-15.9999 18.8808,5.4798 19.3493,10.4418 20,15.9999 z"
         style="fill:#ffffff;fill-opacity:1;fill-rule:evenodd;stroke:#000000;stroke-width:1px;stroke-linecap:butt;stroke-linejoin:miter;stroke-opacity:1" />
      <path
         id="path5808"
         d="m 1390.2469,650.97043 c 1.3081,7.1374 -17.2116,10.848 -28.5714,13.1429 -11.507,2.3246 -20.4543,-9.9429 -28.5715,-13.1429 -6.7528,-2.6621 14.1212,-19.4819 28.5715,-13.1428 12.4916,5.4798 27.5527,7.5847 28.5714,13.1428 z"
         style="fill:#ffffff;fill-opacity:1;fill-rule:evenodd;stroke:#000000;stroke-width:1px;stroke-linecap:butt;stroke-linejoin:miter;stroke-opacity:1" />
      <path
         id="path5810"
         d="m 1353.104,633.25613 c -0.285,7.2507 -17.3959,10.0735 -28.5714,13.1429 -15.2161,4.1792 -28.5715,-5.8843 -28.5714,-13.1429 0,-7.2586 13.8573,-7.443 28.5714,-13.1428 16.8591,-6.5307 28.9398,3.7702 28.5714,13.1428 z"
         style="fill:#ffffff;fill-opacity:1;fill-rule:evenodd;stroke:#000000;stroke-width:1px;stroke-linecap:butt;stroke-linejoin:miter;stroke-opacity:1" />
      <path
         id="path5812"
         d="m 1315.9612,650.97043 c 1.3081,7.1374 -17.396,10.0735 -28.5715,13.1429 -15.2161,4.1792 -28.5714,-5.8843 -28.5714,-13.1429 0,-7.2586 26.1212,-19.4819 40.5714,-13.1428 12.4917,5.4798 15.5528,7.5847 16.5715,13.1428 z"
         style="fill:#ffffff;fill-opacity:1;fill-rule:evenodd;stroke:#000000;stroke-width:1px;stroke-linecap:butt;stroke-linejoin:miter;stroke-opacity:1" />
      <path
         id="path5814"
         d="m 1142.2469,633.25613 c 1.3081,7.1374 -29.8864,14.1862 -41.1429,11.4286 -31.662,-7.7566 -16,-4.17 -15.9999,-11.4286 0,-7.2586 14.1211,-19.4819 28.5714,-13.1428 12.4916,5.4799 27.5527,7.5847 28.5714,13.1428 z"
         style="fill:#ffffff;fill-opacity:1;fill-rule:evenodd;stroke:#000000;stroke-width:1px;stroke-linecap:butt;stroke-linejoin:miter;stroke-opacity:1" />
      <path
         id="path5816"
         d="m 1063.9928,664.86573 c -9.262,6.6026 -14.7303,-38.0963 -4,-45.7142 0.8026,-0.5698 0.2677,-1.2767 1.1428,-1.7143 0.3408,-0.1704 0.8022,0.1704 1.1429,0 0.4819,-0.2409 0.661,-0.9019 1.1429,-1.1429 0.3407,-0.1703 0.8021,0.1704 1.1428,0 0.2409,-0.1204 0.3305,-0.4509 0.5714,-0.5714 0.1704,-0.085 0.381,0 0.5715,0 0.1904,0 0.401,-0.085 0.5714,0 0.4819,0.2409 0.6318,0.9725 1.1429,1.1429 0.3614,0.1204 0.8258,-0.2114 1.1428,0 0.3544,0.2362 0.3352,0.7884 0.5714,1.1428 0.5606,0.8409 1.7252,1.4449 2.2858,2.2857 0.3479,0.522 0.4877,1.3868 1.1428,1.7143 0.1739,0.087 1.4569,0 1.7143,0 0.565,0 1.789,0.1242 2.2857,0 0.5844,-0.1461 1.1299,-0.4253 1.7143,-0.5714 0.1848,-0.046 0.4011,0.085 0.5714,0 0.241,-0.1205 0.3473,-0.422 0.5715,-0.5714 0.3543,-0.2363 0.7884,-0.3352 1.1428,-0.5715 0.2241,-0.1494 0.3305,-0.4509 0.5714,-0.5714 0.4572,-0.2286 1.2572,0.2286 1.7143,0 0.8752,-0.4376 0.4469,-1.0183 1.1429,-1.7143 0.2694,-0.2694 0.8021,0.1704 1.1428,0 0.241,-0.1205 0.3305,-0.4509 0.5715,-0.5714 0.3407,-0.1704 0.7814,0.1205 1.1428,0 0.4041,-0.1347 0.7388,-0.4368 1.1429,-0.5714 0.3614,-0.1205 0.8021,0.1703 1.1428,0 0.241,-0.1205 0.3305,-0.451 0.5715,-0.5715 0.1703,-0.085 0.3809,0 0.5714,0 l 1.1428,0 2.8572,0 4,0 1.7143,0 0.5714,0 c 0.1905,0 0.4011,-0.085 0.5714,0 0.241,0.1205 0.3305,0.451 0.5715,0.5715 0.3016,0.1508 1.4654,-0.1659 1.7142,0 0.4483,0.2988 0.762,0.7619 1.1429,1.1428 0.1905,0.1905 0.3305,0.451 0.5714,0.5714 0.3408,0.1704 0.7815,-0.1204 1.1429,0 0.4041,0.1347 0.7388,0.4368 1.1428,0.5715 0.3093,0.1031 2.0911,0 2.2858,0 l 5.7142,0 2.2858,0 c 0.1904,0 0.4129,0.1056 0.5714,0 0.4483,-0.2989 0.7619,-0.7619 1.1428,-1.1429 0.1905,-0.1905 0.3305,-0.4509 0.5715,-0.5714 0.3407,-0.1704 0.8021,0.1704 1.1428,0 0.241,-0.1205 0.3159,-0.4863 0.5715,-0.5714 0.3614,-0.1205 0.7732,0.092 1.1428,0 0.4132,-0.1033 0.7388,-0.4368 1.1429,-0.5715 0.1807,-0.06 0.401,0.085 0.5714,0 0.2409,-0.1204 0.3305,-0.4509 0.5714,-0.5714 0.1704,-0.085 0.381,0 0.5715,0 0.3809,0 0.7814,0.1205 1.1428,0 0.2556,-0.085 0.3473,-0.422 0.5714,-0.5714 0.3544,-0.2363 0.7885,-0.3352 1.1429,-0.5715 0.2241,-0.1494 0.3159,-0.4862 0.5714,-0.5714 0.5421,-0.1807 1.1429,0 1.7143,0 l 2.8572,0 c 0.7743,0 3.6219,-0.126 4,0 0.3491,0.1164 1.8041,1.9647 2.2857,2.2857 0.3544,0.2363 0.7388,0.4368 1.1428,0.5715 0.5715,0.1904 1.1429,-0.381 1.7143,0 0.3544,0.2362 0.2703,0.8416 0.5714,1.1428 0.018,0.018 1.5757,0 1.7143,0 0.3876,0 3.5151,0.1212 4,0 0.4132,-0.1033 0.7297,-0.4681 1.1429,-0.5714 0.3696,-0.092 0.7619,0 1.1428,0 0.1905,0 0.413,0.1056 0.5715,0 0.4482,-0.2989 0.6946,-0.844 1.1428,-1.1429 0.1585,-0.1056 0.3847,0.037 0.5715,0 0.7701,-0.154 1.5082,-0.4603 2.2857,-0.5714 0.5657,-0.081 1.1472,0.071 1.7143,0 0.9637,-0.1205 1.8934,-0.451 2.8571,-0.5714 0.567,-0.071 1.1486,0.081 1.7143,0 1.5549,-0.2222 3.0128,-0.9481 4.5714,-1.1429 0.756,-0.095 1.5238,0 2.2857,0 l 2.8572,0 3.4285,0 0.5715,0 c 0.1905,0 0.401,-0.085 0.5714,0 0.4819,0.2409 0.661,0.9019 1.1429,1.1429 0.7882,0.3941 0.5111,-0.6921 1.1428,0.5714 0.3941,0.7882 -0.692,0.5111 0.5714,1.1429 0.1704,0.085 0.413,-0.1057 0.5715,0 0.4482,0.2988 0.6946,0.844 1.1428,1.1428 0.1585,0.1057 0.4011,-0.085 0.5715,0 0.2409,0.1205 0.3305,0.451 0.5714,0.5714 0.1704,0.085 0.4011,-0.085 0.5714,0 0.241,0.1205 0.3101,0.5061 0.5714,0.5715 0.5544,0.1386 1.1429,0 1.7143,0 l 5.1429,0 15.4286,0 4.5714,0 c 0.5714,0 1.1722,-0.1807 1.7143,0 0.2555,0.085 0.3305,0.4509 0.5714,0.5714 0.1704,0.085 0.4011,-0.085 0.5714,0 0.4728,0.2364 1.8036,1.0714 2.2857,1.7143 0.4121,0.5494 0.6573,1.2287 1.1429,1.7143 0.2694,0.2693 0.8021,-0.1704 1.1429,0 0.2409,0.1204 0.3305,0.4509 0.5714,0.5714 0.1704,0.085 0.3809,0 0.5714,0 0.1905,0 0.4011,0.085 0.5714,0 0.241,-0.1205 0.3305,-0.451 0.5715,-0.5714 0.1703,-0.085 0.401,0.085 0.5714,0 0.6857,-0.3429 1.0286,-1.3715 1.7143,-1.7143 0.3591,-0.1796 1.9266,0.1796 2.2857,0 0.2409,-0.1205 0.3305,-0.451 0.5714,-0.5714 0.3022,-0.1511 2.0074,0.07 2.2857,0 1.4943,-0.3736 0.7915,-0.7693 2.2858,-1.1429 0.3695,-0.092 0.7619,0 1.1428,0 l 5.1429,0 c 0.7619,0 1.5297,0.095 2.2857,0 0.7793,-0.097 1.5082,-0.4604 2.2857,-0.5714 0.5657,-0.081 1.1428,0 1.7143,0 l 4.5714,0 c 0.2404,0 3.2586,-0.085 3.4286,0 1.052,0.526 0.091,1.1883 1.1428,1.7143 0.5388,0.2693 1.2131,0.2373 1.7143,0.5714 0.1585,0.1056 -0.06,0.3907 0,0.5714 0.1347,0.4041 0.3352,0.7885 0.5714,1.1429 0.3288,0.4931 1.268,1.2679 1.7143,1.7143 0.1905,0.1904 0.381,0.3809 0.5715,0.5715 0.1904,0.1905 0.3305,0.4508 0.5714,0.5713 0.3407,0.1704 0.8021,-0.1704 1.1428,0 0.241,0.1205 0.3305,0.451 0.5715,0.5714 0.1739,0.087 1.4569,0 1.7143,0 0.7908,0 2.924,0.1262 3.4285,0 0.2614,-0.065 0.3473,-0.422 0.5715,-0.5714 0.3543,-0.2362 0.8021,-0.3158 1.1428,-0.5713 2.126,-1.5946 0.06,-0.8874 2.8572,-2.2858 1.0775,-0.5388 2.351,-0.6041 3.4285,-1.1429 0.6143,-0.3071 1.1254,-0.7895 1.7143,-1.1428 0.3652,-0.2192 0.7619,-0.381 1.1429,-0.5715 0.3809,-0.1904 0.7388,-0.4367 1.1428,-0.5714 0.1807,-0.06 0.4011,0.085 0.5715,0 0.9399,-0.4699 0.7743,-1.8158 1.7142,-2.2857 0.085,-0.043 2.1603,-0.042 2.2858,0 0.404,0.1347 0.7619,0.3809 1.1428,0.5714 0.7619,0.381 1.577,0.6704 2.2857,1.1429 0.4483,0.2988 0.7619,0.7619 1.1429,1.1428 0.9185,0.9185 1.8769,2.073 2.8571,2.8572 0.3326,0.266 0.7885,0.3351 1.1429,0.5714 0.4483,0.2988 0.661,0.9019 1.1428,1.1429 0.1704,0.085 0.4011,-0.085 0.5715,0 0.2409,0.1204 0.3159,0.4862 0.5714,0.5715 0.3072,0.1024 1.8019,0 2.2857,0 0.3755,0 1.3919,0.1075 1.7143,0 0.5948,-0.1984 1.3407,-0.5826 1.7143,-1.143 0.2362,-0.3544 0.1905,-0.9524 0.5714,-1.1428 3.8938,0 -0.2367,0.404 2.8572,-1.1429 1.7633,-0.8816 4.3648,-0.5714 6.2857,-0.5714 0.7619,0 1.5341,0.1252 2.2857,0 0.4201,-0.07 0.7227,-0.5014 1.1428,-0.5714 0.7516,-0.1253 1.5239,0 2.2858,0 0.3809,0 0.7693,0.075 1.1428,0 0.5907,-0.1182 1.1299,-0.4254 1.7143,-0.5715 0.3696,-0.092 0.7619,0 1.1429,0 l 3.4285,0 3.4286,0 0.5714,0 c 0.1905,0 0.4011,-0.085 0.5715,0 0.2409,0.1205 0.3305,0.451 0.5714,0.5715 0.1704,0.085 0.401,-0.085 0.5714,0 0.4819,0.2409 0.661,0.9019 1.1429,1.1428 0.1703,0.085 0.4367,-0.1347 0.5714,0 0.696,0.696 0.2677,1.2767 1.1429,1.7143 0.1703,0.085 0.401,-0.085 0.5714,0 0.2409,0.1205 0.3305,0.451 0.5714,0.5714 0.1821,0.091 2.3465,0 2.8572,0 0.1417,0 2.2387,0.031 2.2857,0 0.4482,-0.2988 0.7118,-0.8196 1.1428,-1.1428 0.3408,-0.2556 0.7885,-0.3352 1.1429,-0.5715 0.2241,-0.1494 0.3473,-0.422 0.5714,-0.5714 0.3544,-0.2362 0.7619,-0.3809 1.1429,-0.5714 1.3175,-0.6588 2.5535,-1.3527 4,-1.7143 0.3696,-0.092 0.7619,0 1.1428,0 l 2.2857,0 1.7143,0 c 0.381,0 0.7671,-0.063 1.1429,0 2.1436,0.3573 2.0978,0.5994 4,1.1429 0.7551,0.2157 1.5833,0.2202 2.2857,0.5714 0.8518,0.4259 1.4588,1.2418 2.2857,1.7143 0.523,0.2988 1.155,0.3477 1.7143,0.5714 0.3955,0.1582 0.7388,0.4367 1.1429,0.5714 0.1807,0.06 0.401,-0.085 0.5714,0 0.2409,0.1205 0.3305,0.451 0.5714,0.5715 0.1704,0.085 0.381,0 0.5714,0 0.1905,0 0.4368,0.1346 0.5715,0 0.1347,-0.1347 -0.06,-0.3908 0,-0.5715 0.1347,-0.404 0.3159,-0.8021 0.5714,-1.1428 0.5971,-0.7961 1.5648,-1.5648 2.2857,-2.2857 0.1905,-0.1905 0.451,-0.3305 0.5714,-0.5715 0.085,-0.1703 -0.085,-0.401 0,-0.5714 0.1205,-0.2409 0.4221,-0.3473 0.5715,-0.5714 0.2362,-0.3544 0.2702,-0.8417 0.5714,-1.1429 l 1.7143,0 c 0.5906,-0.1181 1.1299,-0.4253 1.7143,-0.5714 0.1848,-0.046 0.3809,0 0.5714,0 l 1.1429,0 6.2857,0 2.2857,0 c 0.3809,0 0.7814,-0.1205 1.1428,0 0.5111,0.1704 0.6946,0.844 1.1429,1.1428 0.1064,0.071 2.2491,1.1063 2.2857,1.1429 0.3012,0.3012 0.2703,0.8417 0.5714,1.1429 0.1347,0.1346 0.4011,-0.085 0.5715,0 1.8952,1.8951 -0.5388,-0.2694 1.1428,0.5714 0.6857,0.3428 1.0286,1.3714 1.7143,1.7143 0.3407,0.1703 0.7619,0 1.1429,0 l 3.4285,0 4,0 c 0.5715,0 1.1722,0.1807 1.7143,0 0.6516,-0.2172 1.0767,-0.8878 1.7143,-1.1429 0.3537,-0.1415 0.7619,0 1.1429,0 0.5714,0 1.1506,0.094 1.7143,0 0.5941,-0.099 1.1299,-0.4253 1.7142,-0.5714 0.3696,-0.092 0.7619,0 1.1429,0 l 3.4286,0 c 0.3755,0 1.3919,-0.1075 1.7143,0 1.6326,0.5442 0.8435,0.4081 1.7142,1.7143 0.2989,0.4482 0.8441,0.6946 1.1429,1.1428 0.2363,0.3544 0.3352,0.7885 0.5714,1.143 0.2666,0.3998 2.6418,2.7135 2.8572,2.857 0.1585,0.1057 0.3809,0 0.5714,0 0.1905,0 0.4011,0.085 0.5714,0 0.241,-0.1204 0.381,-0.3809 0.5715,-0.5714 0.336,-0.3361 2.0211,-2.1533 2.2857,-2.2856 0.1703,-0.085 0.401,0.085 0.5714,0 0.2409,-0.1206 0.3305,-0.4511 0.5714,-0.5715 0.1704,-0.085 0.3908,0.06 0.5715,0 0.404,-0.1347 0.7388,-0.4368 1.1428,-0.5715 0.3614,-0.1204 0.7619,0 1.1429,0 l 4.5714,0 0.5714,0 c 0.1905,0 0.4676,-0.1595 0.5715,0 5.2913,8.1275 -45.7248,44.5557 -49.7143,38.8571 z"
         style="fill:#2c9cff;fill-opacity:0.48275859;fill-rule:evenodd;stroke:#31a9e1;stroke-width:1px;stroke-linecap:butt;stroke-linejoin:miter;stroke-opacity:0.51724135" />
      <path
         d="m 1325.8075,558.82303 -188.9176,-1.1429 0.2858,52.8572 c 34.289,15.355 36.0998,5.573 58.9399,-1.2181 l 71.8708,0.252 c 29.5347,9.9247 44.1723,15.1417 57.8211,-0.7482 z"
         style="fill:none;fill-rule:evenodd;stroke:#000000;stroke-width:1px;stroke-linecap:butt;stroke-linejoin:miter;stroke-opacity:1"
         id="path5818" />
      <path
         d="m 1298.2785,564.00863 0,-30.8571 m -136,30.8571 0,-30.8571 m -25.3886,30.6544 188.9176,1.1429 -0.2857,-52.8571 c -34.2891,-15.3551 -34.0999,-5.573 -56.94,1.218 l -75.8708,-0.2519 c -29.5347,-9.9247 -42.1723,-15.1417 -55.8211,0.7481 z"
         style="fill:none;fill-rule:evenodd;stroke:#000000;stroke-width:1px;stroke-linecap:butt;stroke-linejoin:miter;stroke-opacity:1"
         id="path5820" />
      <path
         id="path5822"
         d="m 1193.7071,614.00863 c 10.6751,0.745 21.7449,0.7006 28,10.2857 l 22.8571,0 c 0.6158,-9.4942 14.1936,-9.0138 28,-9.7143"
         style="fill:none;fill-rule:evenodd;stroke:#000000;stroke-width:1px;stroke-linecap:butt;stroke-linejoin:miter;stroke-opacity:1" />
      <path
         style="fill:none;fill-rule:evenodd;stroke:#000000;stroke-width:1px;stroke-linecap:butt;stroke-linejoin:miter;stroke-opacity:1"
         d="m 1193.7071,610.00863 c 10.6751,0.745 21.7449,0.7006 28,10.2857 l 22.8571,0 c 0.6158,-9.4942 14.1936,-9.0138 28,-9.7143"
         id="path5824" />
      <g
         transform="translate(1017.1356,143.36079)"
         id="g5826">
        <path
           style="fill:#4a433e;fill-opacity:1;fill-rule:evenodd;stroke:#000000;stroke-width:1px;stroke-linecap:butt;stroke-linejoin:miter;stroke-opacity:1"
           d="m 172.2931,371.22423 -6,-54.74138 3.78017,28 c 15.85345,0 71.7069,0 87.56035,0 l 3.78017,-28 -6,56.89655 -5.32758,0 -4,89.65517 -64.86207,0 -4,-90.94827 -4.93104,0 z"
           id="path5828" />
        <path
           style="fill:none;fill-rule:evenodd;stroke:#000000;stroke-width:1px;stroke-linecap:butt;stroke-linejoin:miter;stroke-opacity:1"
           d="m 166.66667,316.78164 94.00749,0"
           id="path5830" />
        <path
           style="fill:none;fill-rule:evenodd;stroke:#000000;stroke-width:1px;stroke-linecap:butt;stroke-linejoin:miter;stroke-opacity:1"
           d="m 214.23221,344.12246 c -0.12484,-0.62422 -0.28451,-1.24248 -0.37453,-1.87266 -0.0353,-0.24718 0,-0.49938 0,-0.74906 0,-0.49938 0,-0.99875 0,-1.49813 0,-1.49813 0,-2.99626 0,-4.49438 0,-0.36226 -0.0555,-2.13611 0,-2.24719 0.079,-0.15792 0.29557,-0.21662 0.37453,-0.37454 0.0558,-0.11166 0,-0.24968 0,-0.37453 0,-0.12484 0,-0.24969 0,-0.37453 0,-0.43353 -0.0836,-1.53828 0,-1.87266 0.43036,-1.72145 0.37453,-0.085 0.37453,-1.12359 0,-1.62298 0,-3.24595 0,-4.86892 0,-0.2158 -0.0683,-1.73615 0,-1.87266 0.079,-0.15791 0.29558,-0.21661 0.37453,-0.37453 0.0558,-0.11166 0,-0.24969 0,-0.37453 0,-0.12484 0,-0.24969 0,-0.37453 0,-0.74907 0,-1.49813 0,-2.24719 0,-0.16868 -0.057,-1.00962 0,-1.1236 0.079,-0.15792 0.3187,-0.20703 0.37454,-0.37453 0.0671,-0.20135 0,-1.18103 0,-1.49813 0,-1.12359 0,-2.24719 0,-3.37078 0,-3.49563 0,-6.99127 0,-10.4869 0,-2.24719 0,-4.49438 0,-6.74157 0,-0.99875 0,-1.9975 0,-2.99625 0,-0.16868 0.057,-1.00962 0,-1.1236 -0.079,-0.15792 -0.29558,-0.21661 -0.37454,-0.37453 -0.0558,-0.11166 0,-0.24969 0,-0.37453 0,-0.15755 0.0557,-2.13578 0,-2.24719 -0.0789,-0.15792 -0.29557,-0.21662 -0.37453,-0.37454 -0.11878,-0.23757 0.12165,-1.62935 0,-1.87265 -0.079,-0.15792 -0.24969,-0.24969 -0.37453,-0.37454 0,-0.24968 0.079,-0.51219 0,-0.74906 -0.0558,-0.1675 -0.29557,-0.21662 -0.37453,-0.37453 -0.0558,-0.11167 0,-0.24969 0,-0.37453 0,-0.12485 0,-0.24969 0,-0.37454 0,-0.2577 0.0727,-2.0291 0,-2.24719 -0.0883,-0.26483 -0.28626,-0.48423 -0.37453,-0.74906 -0.0879,-0.26378 0.10051,-1.39762 0,-1.49813 -0.1974,-0.19739 -0.55167,-0.17713 -0.74907,-0.37453 -0.0883,-0.0883 0,-0.24969 0,-0.37453 0,-0.12485 0,-0.24969 0,-0.37453 0,-0.74907 0,-1.49813 0,-2.24719 0,-0.12485 0,-0.24969 0,-0.37454 0,-0.12484 0.0558,-0.26286 0,-0.37453 -0.079,-0.15791 -0.29557,-0.21661 -0.37453,-0.37453 -0.057,-0.11398 0,-0.95492 0,-1.1236 0,-0.8739 0,-1.74781 0,-2.62172 0,-0.74906 0,-1.49813 0,-2.24719 0,-0.16867 0.057,-1.00961 0,-1.12359 -0.079,-0.15792 -0.29557,-0.21662 -0.37453,-0.37454 -0.0558,-0.11166 0,-0.24968 0,-0.37453 0,-0.24969 0,-0.49937 0,-0.74906 0,-0.74907 0,-1.49813 0,-2.24719 0,-0.37453 0.0908,-0.76025 0,-1.1236 -0.0677,-0.27082 -0.28626,-0.48423 -0.37453,-0.74906 -0.06,-0.18005 0,-2.56667 0,-2.62173 0,-0.12484 0.0558,-0.26286 0,-0.37453 -0.079,-0.15791 -0.29558,-0.21661 -0.37453,-0.37453 -0.0558,-0.11166 0,-0.24969 0,-0.37453 0,-0.12484 0,-0.24969 0,-0.37453 0,-0.87391 0,-1.74782 0,-2.62173 0,-1.9975 0,-3.995 0,-5.9925 0,-0.87391 0,-1.74782 0,-2.62173 0,-0.37453 0,-0.74906 0,-1.12359 0,-0.12485 0,-0.24969 0,-0.37453 0,-0.12485 0.0558,-0.26287 0,-0.37454 -0.079,-0.15791 -0.29558,-0.21661 -0.37454,-0.37453 -0.057,-0.11398 0,-0.95492 0,-1.12359 0,-0.14806 0.08,-1.71271 0,-1.87266 -0.15791,-0.31584 -0.59114,-0.43323 -0.74906,-0.74907 -0.11371,-0.22742 0.11371,-2.01976 0,-2.24719 -0.079,-0.15791 -0.29557,-0.21661 -0.37453,-0.37453 -0.11167,-0.22333 0.11166,-0.52574 0,-0.74906 -0.079,-0.15792 -0.29558,-0.21662 -0.37453,-0.37454 -0.0558,-0.11166 0,-0.24968 0,-0.37453 0,-0.49937 0,-0.99875 0,-1.49812 0,-0.12485 -0.0883,-0.28626 0,-0.37454 0.0883,-0.0883 0.28625,-0.0883 0.37453,0 0.0883,0.0883 0,0.24969 0,0.37454 0,0.24968 0.17655,0.5725 0,0.74906 -0.12485,0.12484 -0.24969,-0.24969 -0.37453,-0.37453 -0.2943,-0.2943 -1.6341,-1.75338 -1.87266,-1.87266 -0.92246,-0.46123 0.3381,1.08716 -1.1236,-0.37453 -0.31829,-0.31829 -0.47898,-0.76349 -0.74906,-1.1236 -0.21187,-0.28249 -0.49938,-0.49937 -0.74907,-0.74906 -0.37453,-0.37453 -0.74906,-0.74907 -1.12359,-1.1236 -0.12485,-0.12484 -0.2766,-0.22763 -0.37453,-0.37453 -0.82516,-0.18861 -0.19798,-0.77048 -0.37454,-1.1236 -0.15791,-0.31583 -0.59114,-0.43323 -0.74906,-0.74906 -0.0558,-0.11166 0,-0.24969 0,-0.37453 -0.12484,-0.12485 -0.29557,-0.21662 -0.37453,-0.37453 -0.11166,-0.22333 0.079,-0.51219 0,-0.74907 -0.9043,-2.71289 0.10798,0.59049 -0.74906,-1.12359 -0.0558,-0.11167 0,-0.24969 0,-0.37453 0,-0.12485 -0.0558,-0.26287 0,-0.37454 0.0789,-0.15791 0.24968,-0.24968 0.37453,-0.37453"
           id="path5832" />
        <path
           style="fill:none;fill-rule:evenodd;stroke:#000000;stroke-width:1px;stroke-linecap:butt;stroke-linejoin:miter;stroke-opacity:1"
           d="m 210.11236,234.75916 c -0.39506,-2.37033 -0.37453,-1.48779 -0.37453,-2.62172 0,-0.12484 0.0558,-0.26287 0,-0.37453 -0.079,-0.15792 -0.29558,-0.21662 -0.37453,-0.37453 -0.11167,-0.22333 0.0789,-0.51219 0,-0.74907 -0.0883,-0.26483 -0.30683,-0.47824 -0.37454,-0.74906 -0.0826,-0.33042 0.10695,-1.17728 0,-1.49813 -0.0883,-0.26483 -0.28625,-0.48423 -0.37453,-0.74906 -0.079,-0.23688 0.11167,-0.52574 0,-0.74906 -0.85704,-1.71409 0.15524,1.58929 -0.74906,-1.1236 -0.11079,-0.33237 0.12262,-1.62741 0,-1.87266 -0.079,-0.15792 -0.29558,-0.21661 -0.37453,-0.37453 -0.0569,-0.11387 0,-1.23951 0,-1.49813 0,-0.99875 0,-1.9975 0,-2.99625 0,-2.87141 0,-5.74282 0,-8.61424"
           id="path5834" />
        <path
           style="fill:none;fill-rule:evenodd;stroke:#000000;stroke-width:1px;stroke-linecap:butt;stroke-linejoin:miter;stroke-opacity:1"
           d="m 211.61049,240.00261 c 0.82547,-0.51286 -0.61468,-1.52677 -0.37453,-2.24719 0.0883,-0.26484 0.28625,-0.48423 0.37453,-0.74907 0.0395,-0.11843 -0.0395,-0.25609 0,-0.37453 0.0883,-0.26483 0.28625,-0.48423 0.37453,-0.74906 0.0695,-0.20858 -0.0963,-0.97916 0,-1.1236 0.19587,-0.2938 0.55319,-0.45525 0.74906,-0.74906 0.0692,-0.10388 -0.0303,-0.25342 0,-0.37453 0.0957,-0.38301 0.19798,-0.77049 0.37453,-1.1236 0.079,-0.15791 0.29558,-0.21661 0.37454,-0.37453 0.14981,-0.29962 -0.14982,-0.82397 0,-1.12359 0.0789,-0.15792 0.29557,-0.21662 0.37453,-0.37454 0.0852,-0.17041 -0.0204,-1.791 0,-1.87266 0.0428,-0.17128 0.27659,-0.22762 0.37453,-0.37453 0.32298,-0.48448 0.42608,-1.01365 0.74906,-1.49812 0.0979,-0.14691 0.2766,-0.22763 0.37454,-0.37454 0.82515,-0.18861 0.19797,-0.77048 0.37453,-1.12359 0.11928,-0.23857 1.57836,-1.57837 1.87266,-1.87266"
           id="path5836" />
        <path
           style="fill:#28a65e;fill-opacity:1;fill-rule:evenodd;stroke:#215024;stroke-width:1px;stroke-linecap:butt;stroke-linejoin:miter;stroke-opacity:1"
           d="m 208.98876,242.2498 c -17.22846,7.86517 -53.18352,-10.11236 -53.18352,-10.11236 18.21619,0.0745 38.57252,-14.2971 53.18352,10.11236 z"
           id="path5838" />
        <path
           id="path5840"
           d="m 204.09472,228.94022 c -18.71577,2.89837 -39.45955,-30.14842 -39.45955,-30.14842 17.51338,5.01164 32.01549,2.69138 39.45955,30.14842 z"
           style="fill:#28a65e;fill-opacity:1;fill-rule:evenodd;stroke:#215024;stroke-width:1px;stroke-linecap:butt;stroke-linejoin:miter;stroke-opacity:1" />
        <path
           style="fill:#28a65e;fill-opacity:1;fill-rule:evenodd;stroke:#215024;stroke-width:1px;stroke-linecap:butt;stroke-linejoin:miter;stroke-opacity:1"
           d="m 207.29621,210.02245 c -18.81614,-2.15252 -40.3387,-36.10451 -40.3387,-36.10451 15.56541,9.46325 40.41814,7.65637 40.3387,36.10451 z"
           id="path5842" />
        <path
           id="path5844"
           d="m 216.22279,225.02133 c 17.22846,7.86517 43.44569,4.49438 43.44569,4.49438 -18.21619,0.0745 -28.83469,-28.90384 -43.44569,-4.49438 z"
           style="fill:#28a65e;fill-opacity:1;fill-rule:evenodd;stroke:#215024;stroke-width:1px;stroke-linecap:butt;stroke-linejoin:miter;stroke-opacity:1" />
        <path
           style="fill:#28a65e;fill-opacity:1;fill-rule:evenodd;stroke:#215024;stroke-width:1px;stroke-linecap:butt;stroke-linejoin:miter;stroke-opacity:1"
           d="m 207.26499,216.36959 c 31.20668,-2.63252 42.54809,-20.79839 42.54809,-20.79839 -20.20662,1.84996 -36.62952,-7.02738 -42.54809,20.79839 z"
           id="path5846" />
      </g>
      <path
         style="fill:none;fill-rule:evenodd;stroke:#000000;stroke-width:1px;stroke-linecap:butt;stroke-linejoin:miter;stroke-opacity:1"
         d="m 1327.1221,561.86033 0,-202.3662 0,-60.1831 c -0.6732,-25.1388 -45.4579,-72.3314 -66.3381,-72 l 0,-21.1268 -60.5633,0 0,22.5352 c -22.4178,0.5812 -64.152,44.5338 -66.0564,72 l 0,53.831 0,205.662 z"
         id="path5848" />
      <path
         style="fill:none;fill-rule:evenodd;stroke:#000000;stroke-width:1px;stroke-linecap:butt;stroke-linejoin:miter;stroke-opacity:1"
         d="m 1137.3682,477.65523 c 0.1974,-3.0712 -6.6779,-7.1999 -8.4507,-9.8592 -0.5823,-0.8734 -0.6662,-2.0745 -1.4085,-2.8169 -0.9568,-0.9568 -2.801,1.4402 -4.2253,-1.4084 -0.2143,-0.4286 0,-3.5911 0,-4.2254 0,-1.3265 -0.2671,-6.241 0,-7.0422 0.2099,-0.6299 1.1115,-0.8146 1.4084,-1.4085 0.079,-0.1572 0.079,-6.885 0,-7.0422 -0.2969,-0.5939 -1.1985,-0.7786 -1.4084,-1.4085 -0.2671,-0.8012 0,-5.7157 0,-7.0422 0,-2.8169 0,-5.6338 0,-8.4507 0,-0.6343 0.2143,-3.7967 0,-4.2254 -0.297,-0.5938 -1.1115,-0.8146 -1.4085,-1.4084 -0.2099,-0.4199 0.21,-0.9886 0,-1.4085 -0.2969,-0.5938 -1.1115,-0.8146 -1.4084,-1.4084 -0.21,-0.4199 0.1484,-0.9631 0,-1.4085 -0.8527,-2.558 -1.2054,-2.6139 -2.8169,-4.2253 -0.4695,-0.4695 -1.1116,-0.8146 -1.4085,-1.4085 -0.2099,-0.4199 -0.332,-1.7404 0,-1.4084 0.7423,0.7423 1.4085,3.8667 1.4085,2.8169 0,-1.9358 -2.2742,-3.9025 -1.4085,-5.6338 0.5939,-1.1877 2.397,-1.5572 2.8169,-2.8169 0.297,-0.8908 -0.2969,-1.9262 0,-2.8169 0.4199,-1.2598 2.2231,-1.6292 2.8169,-2.8169 0.378,-0.7559 -0.3779,-2.0611 0,-2.8169 0.297,-0.5939 1.1115,-0.8146 1.4085,-1.4085 0.2015,-0.4031 0,-6.2898 0,-7.0422 0,-1.1925 0.2524,-4.8767 0,-5.6338 -0.21,-0.6299 -1.1115,-0.8146 -1.4085,-1.4085 -0.2099,-0.4199 0.1485,-0.9631 0,-1.4084 -0.332,-0.996 -1.0765,-1.821 -1.4084,-2.8169 -0.1485,-0.4454 0.1484,-0.9631 0,-1.4085 -0.332,-0.9959 -1.0765,-1.821 -1.4085,-2.8169 -0.3229,-0.9688 0.4155,-3.3943 0,-4.2254 -0.2969,-0.5938 -1.1985,-0.7785 -1.4084,-1.4084 -0.2524,-0.7572 0,-4.4413 0,-5.6338 0,-1.1794 -0.2678,-5.9712 0,-7.0423 0.5092,-2.0369 2.1529,-3.6419 2.8169,-5.6338 0.1484,-0.4454 -0.1485,-0.963 0,-1.4084 0.3319,-0.9959 1.0764,-1.821 1.4084,-2.8169 0.1485,-0.4454 -0.2099,-0.9885 0,-1.4085 0.297,-0.5938 1.0402,-0.856 1.4085,-1.4084 3.103,-0.7093 0.7445,-2.8975 1.4084,-4.2254 0.297,-0.5938 1.1115,-0.8146 1.4085,-1.4084 0.1445,-0.2891 0.1394,-6.624 0,-7.0423 -0.332,-0.9959 -1.0765,-1.821 -1.4085,-2.8169 -0.1484,-0.4454 0.21,-0.9885 0,-1.4084 -0.2969,-0.5939 -1.1115,-0.8146 -1.4084,-1.4085 -0.2143,-0.4286 0,-3.591 0,-4.2253 0,-2.8169 0,-5.6338 0,-8.4507 0,-0.4695 -0.21,-0.9886 0,-1.4085 0.2969,-0.5938 1.1115,-0.8146 1.4084,-1.4084 0.2143,-0.4287 0,-3.5911 0,-4.2254 0,-2.8169 0,-5.6338 0,-8.4507 0,-0.4695 0,-0.939 0,-1.4084 0,-0.4695 -0.2099,-0.9886 0,-1.4085 0.297,-0.5938 0.939,-0.939 1.4085,-1.4084 0,-1.4085 -0.3416,-2.859 0,-4.2254 0.161,-0.6441 1.1115,-0.8146 1.4084,-1.4084 0.4199,-0.8399 -0.4199,-1.9771 0,-2.8169 0.297,-0.5939 1.1116,-0.8146 1.4085,-1.4085 0.4199,-0.8398 -0.2969,-1.9261 0,-2.8169 0.332,-0.9959 1.0765,-1.821 1.4084,-2.8169 0.4423,-1.3269 -0.4566,-7.5375 0,-8.4507 0.297,-0.5939 0.939,-0.939 1.4085,-1.4085 0,-0.9389 -0.2969,-1.9261 0,-2.8169 0.2099,-0.6298 0.9389,-0.9389 1.4084,-1.4084 3.1821,-3.182 -0.8398,0.4199 5.6338,-2.8169 0.5939,-0.2969 0.8146,-1.1115 1.4085,-1.4085 0.8852,-0.4426 4.7485,0.4427 5.6338,0 0.5827,-0.2913 3.8273,-3.6283 4.2253,-4.2253 0.5824,-0.8735 0.8262,-1.9434 1.4085,-2.8169 0.3683,-0.5525 1.1115,-0.8146 1.4084,-1.4085 0.4199,-0.8398 -0.4199,-1.977 0,-2.8169 0.297,-0.5938 1.1116,-0.8146 1.4085,-1.4084 0.2099,-0.4199 -0.092,-0.9481 0,-1.4085 0.3796,-1.8981 0.6895,-3.8365 1.4084,-5.6338 0.2466,-0.6164 1.1116,-0.8146 1.4085,-1.4084 0.2099,-0.4199 -0.21,-0.9886 0,-1.4085 1.0607,-2.1213 3.9036,-1.9518 5.6338,-2.8169 1.8847,-0.9423 4.7522,-6.1606 5.6338,-7.0422 0.332,-0.332 0.9885,0.2099 1.4084,0 0.5939,-0.297 0.8146,-1.1115 1.4085,-1.4085 0.3703,-0.1851 4.8973,0 5.6338,0 0.6343,0 3.7967,-0.2143 4.2254,0 0.5938,0.297 0.7785,1.1985 1.4084,1.4085 0.8908,0.2969 1.9771,-0.4199 2.8169,0 6.9617,3.4808 -0.9723,2.8169 5.6338,2.8169 0.4695,0 0.939,0 1.4085,0 0.4694,0 1.1985,0.4199 1.4084,0 0.4199,-0.8399 -0.2969,-1.9261 0,-2.8169 0.058,-0.175 3.9837,-4.1046 4.2254,-4.2254 0.4199,-0.2099 0.9885,-0.2099 1.4084,0 1.6147,0.8074 1.9592,2.9388 2.8169,4.2254 0.7366,1.1049 1.8779,1.8779 2.8169,2.8169 0.4695,0.4695 0.7786,1.1985 1.4085,1.4084 0.8012,0.2671 5.7157,0 7.0422,0 6.5728,0 13.1456,0 19.7183,0 0.9797,0 6.5329,-0.2546 7.0423,0 0.5938,0.297 0.8146,1.1115 1.4084,1.4085 0.8886,0.4443 6.1537,-0.4443 7.0423,0 0.5938,0.2969 0.8146,1.1115 1.4084,1.4084 0.4287,0.2143 3.5911,0 4.2254,0 3.2864,0 6.5728,0 9.8591,0 7.5118,0 15.0235,0 22.5352,0 3.3031,0 -0.6639,0.332 2.8169,-1.4084 0.42,-0.21 0.9886,0.2099 1.4085,0 0.5939,-0.297 0.8146,-1.1115 1.4085,-1.4085 0.4199,-0.2099 1.0764,-0.3319 1.4084,0 0.332,0.332 0,0.939 0,1.4085 0,0.4695 0,0.9389 0,1.4084 0,2.3474 0,4.6949 0,7.0423 0,0.9255 -0.2649,3.4307 0,4.2253 1.702,5.1061 0.6683,1.0024 2.8169,4.2254 0.5823,0.8735 0.8261,1.9434 1.4085,2.8169 1.6304,2.4456 0.8222,0.9098 2.8169,1.4084 14.2304,3.5576 -1.0172,-0.5085 5.6338,2.8169 0.6015,0.3008 6.4854,0 7.0422,0 1.8779,0 3.7559,0 5.6338,0 0.4695,0 1.4085,-0.4694 1.4085,0 0,0.4695 -1.7405,-0.3319 -1.4085,0 1.7155,1.7155 3.1468,0.6598 4.2254,2.8169 0.2099,0.42 -0.21,0.9886 0,1.4085 0.2969,0.5938 1.0401,0.856 1.4084,1.4084 0.5823,0.8735 0.6661,2.0746 1.4085,2.8169 0.7423,0.7424 2.0745,0.6662 2.8169,1.4085 0.3319,0.332 0,0.939 0,1.4084 0,0.4695 0,0.939 0,1.4085 0,2.8169 0,5.6338 0,8.4507 0,0.4695 0,0.939 0,1.4085 0,0.4694 -0.21,0.9885 0,1.4084 0.1348,0.2696 5.3642,5.499 5.6338,5.6338 0.4199,0.21 0.9885,-0.21 1.4084,0 2.3148,1.1574 1.5193,3.6874 2.8169,5.6338 0.2604,0.3906 0.939,0 1.4085,0 0.4695,0.4695 1.1115,0.8146 1.4084,1.4085 0.2143,0.4286 0,3.591 0,4.2253 0,1.2588 0.2244,6.5934 0,7.0423 -0.2969,0.5938 -1.1115,0.8146 -1.4084,1.4084 -0.5634,1.1268 0.5634,3.0986 0,4.2254 -0.297,0.5938 -1.1115,0.8146 -1.4085,1.4084 -0.4575,0.915 0.4467,6.1489 0,7.0423 -0.2969,0.5938 -1.1115,0.8146 -1.4084,1.4084 -0.1047,0.2094 -0.1031,5.3246 0,5.6338 1.6053,4.8161 1.1682,1.0481 4.2253,5.6338 0.5209,0.7813 -0.4199,1.9771 0,2.8169 4.6713,4.6713 -0.6639,-1.3279 1.4085,2.8169 0.2969,0.5939 1.1985,0.7786 1.4084,1.4085 0.297,0.8908 0,1.8779 0,2.8169 0,0.4695 0.21,0.9885 0,1.4084 -1.336,2.6721 -3.2138,0.397 -5.6338,2.8169 -0.332,0.332 0.21,0.9886 0,1.4085 -1.5571,3.1141 -0.8741,0.4371 -2.8169,1.4084 -2.5646,1.2824 -0.8256,1.0685 -1.4084,2.8169 -0.332,0.996 -0.8262,1.9435 -1.4085,2.8169 -0.3683,0.5525 -1.1115,0.8146 -1.4084,1.4085 -0.21,0.4199 0,0.939 0,1.4084 0,0.939 -0.297,1.9262 0,2.8169 0.2099,0.6299 1.1115,0.8146 1.4084,1.4085 0.4199,0.8398 -0.2277,1.906 0,2.8169 0.3601,1.4403 1.0484,2.785 1.4085,4.2253 0.1138,0.4555 -0.1485,0.9631 0,1.4085 3.4006,10.202 -0.4061,-2.2206 2.8169,4.2253 0.4467,0.8935 -0.4575,6.1273 0,7.0423 0.2969,0.5939 1.1115,0.8146 1.4084,1.4085 0.21,0.4199 0,0.9389 0,1.4084 0,1.4085 0.4454,2.8892 0,4.2254 -0.2099,0.6298 -1.0401,0.856 -1.4084,1.4084 -0.5824,0.8735 -0.6662,2.0746 -1.4085,2.8169 -0.9568,0.9568 -2.801,-1.4401 -4.2253,1.4085 -0.2792,0.5584 0.2879,3.9374 0,4.2253 -0.7423,0.7423 -2.0746,0.6661 -2.8169,1.4085 -0.332,0.3319 0,0.9389 0,1.4084 0,1.4085 0,2.8169 0,4.2254 0,2.8169 0,5.6338 0,8.4507 0,1.4084 -0.6299,2.9656 0,4.2253 0.845,1.6902 3.3803,2.5352 4.2253,4.2254 0.21,0.4199 -0.2099,0.9885 0,1.4084 0.9388,1.8776 1.8781,0.9394 2.8169,2.8169 0.21,0.4199 -0.1484,0.9631 0,1.4085 0.332,0.9959 1.0765,1.821 1.4085,2.8169 0.2946,0.884 0,4.4999 0,5.6338 0,0.9255 0.2649,3.4307 0,4.2253 -3.4007,10.202 0.406,-2.2205 -2.8169,4.2254 -0.037,0.074 -0.037,4.1517 0,4.2253 0.5938,1.1877 2.223,1.6292 2.8169,2.8169 0.2099,0.42 0,0.939 0,1.4085 0,0.939 0,1.8779 0,2.8169 0,0.4695 0,0.939 0,1.4084 0,0.4695 0.2099,0.9886 0,1.4085 -0.693,1.3859 -4.9409,4.2478 -5.6338,5.6338 -0.2244,0.4488 0,5.7835 0,7.0422 0,0.939 0.5208,2.0357 0,2.8169 -0.5824,0.8735 -1.9434,0.8262 -2.8169,1.4085 -0.5525,0.3683 -0.8146,1.1115 -1.4085,1.4084 -0.9223,0.4612 -5.7923,-0.4166 -7.0422,0 -3.0035,1.0012 -3.341,1.9325 -5.6338,4.2254 -0.4695,0.4695 -0.939,1.8779 -1.4085,1.4085 -0.4695,-0.4695 1.8779,-1.878 1.4085,-1.4085 -3.1489,3.1489 -4.1448,2.8169 -1.4085,2.8169"
         id="path5850" />
    </g>
    <path
       id="path4971"
       d="m 974.44432,467.75903 c 10.09442,3.53252 21.38706,3.53252 31.48148,0 10.1122,-3.53873 18.9294,-10.57028 24.8117,-19.52448 5.8823,-8.95419 8.8291,-19.76644 8.5217,-30.47552 -0.1065,-3.70922 -0.5891,-7.44741 0,-11.11111 0.7322,-4.55417 3.0785,-8.69385 5.7801,-12.4325 2.7017,-3.73865 5.7976,-7.1896 8.3359,-11.04105 2.5383,-3.85145 4.5337,-8.22543 4.6734,-12.83598 0.07,-2.30527 -0.337,-4.63963 -1.3129,-6.72927 -0.976,-2.08965 -2.5346,-3.92503 -4.5136,-5.10935 -1.1849,-0.70908 -2.4982,-1.17839 -3.7037,-1.85185 -2.1359,-1.19326 -3.8903,-3.01558 -5.151,-5.11239 -1.2607,-2.09682 -2.0404,-4.46191 -2.4465,-6.87461 -0.8122,-4.82539 -0.1536,-9.76477 0.5592,-14.60584 0.7129,-4.84107 1.481,-9.74896 0.8833,-14.60558 -0.2989,-2.42832 -0.9451,-4.82828 -2.0638,-7.00417 -1.1187,-2.17589 -2.7221,-4.12355 -4.7441,-5.50111 -1.1259,-0.76707 -2.3722,-1.35448 -3.4469,-2.19173 -0.5374,-0.41863 -1.0311,-0.90102 -1.4106,-1.46667 -0.3795,-0.56564 -0.6421,-1.21828 -0.6981,-1.89716 -0.066,-0.80117 0.1518,-1.59724 0.4014,-2.36141 0.2495,-0.76417 0.5296,-1.5229 0.6665,-2.31505 0.1369,-0.79216 0.1217,-1.61344 -0.08,-2.3916 -0.2017,-0.77817 -0.5874,-1.49419 -0.9879,-2.1912 l -29.003,-50.4734"
       style="fill:none;fill-rule:evenodd;stroke:#000000;stroke-width:2.29999995;stroke-linecap:butt;stroke-linejoin:miter;stroke-miterlimit:4;stroke-dasharray:none;stroke-opacity:1;marker-end:url(#marker4975)" />
  </g>
</svg>
